<?xml version="1.0" encoding="utf-8"?>
<!-- Generator: Adobe Illustrator 27.8.1, SVG Export Plug-In . SVG Version: 6.00 Build 0)  -->
<svg version="1.1" id="Livello_1" xmlns="http://www.w3.org/2000/svg" xmlns:xlink="http://www.w3.org/1999/xlink" x="0px" y="0px"
	 viewBox="0 0 200 200" style="enable-background:new 0 0 200 200;" xml:space="preserve">
<style type="text/css">
	.st0{fill:#71BFEC;}
	.st1{fill:none;stroke:#000000;stroke-linecap:round;stroke-linejoin:round;stroke-miterlimit:10;}
	.st2{fill:#F4F4F4;}
	.st3{fill:#CDD5D7;}
	.st4{fill:#080717;}
	.st5{fill:#EFEFEF;stroke:#0F0F0F;}
	.st6{fill:none;stroke:#0F0F0F;}
	.st7{fill:none;stroke:#1D1D1B;stroke-width:2;}
	.st8{fill:#1D1D1B;}
	.st9{fill:#FFFFFF;stroke:#000000;stroke-linecap:round;stroke-linejoin:round;stroke-miterlimit:10;}
	.st10{fill:#0095D5;}
	.st11{fill:#FFFFFF;}
	.st12{fill:#F8B234;}
	.st13{clip-path:url(#SVGID_00000072257788063226394660000017905401244311375545_);}
	.st14{fill:none;stroke:#F4F4F4;stroke-miterlimit:10;}
	.st15{fill:none;stroke:#FFFFFF;}
	.st16{fill:none;stroke:#FFFFFF;stroke-width:0.5;}
	.st17{fill:none;stroke:#FFFFFF;stroke-linejoin:round;stroke-miterlimit:10;}
	.st18{clip-path:url(#SVGID_00000098916815007908348580000006328110668979499648_);}
	.st19{fill:none;stroke:#1D1D1B;stroke-miterlimit:10;}
	.st20{opacity:0.4;}
	.st21{fill:none;stroke:#080717;stroke-width:12;}
	.st22{fill:#0095D5;stroke:#000000;stroke-linecap:round;stroke-linejoin:round;stroke-miterlimit:10;}
	.st23{fill:none;stroke:#080717;stroke-linecap:round;stroke-linejoin:round;stroke-miterlimit:10;}
	.st24{fill:#21CFA9;}
	.st25{clip-path:url(#SVGID_00000003789504346482194580000001994706658779138949_);}
	.st26{fill:#0086DA;}
	.st27{clip-path:url(#SVGID_00000122686586917271069930000004743576347241569953_);}
	.st28{clip-path:url(#SVGID_00000074443080069515025350000013381176145424371885_);}
	.st29{opacity:0.4;clip-path:url(#SVGID_00000062904124335027216480000004050361552052676262_);}
	.st30{clip-path:url(#SVGID_00000062904124335027216480000004050361552052676262_);}
	.st31{clip-path:url(#SVGID_00000031897396002612440490000011854240290856772229_);}
</style>
<circle class="st0" cx="100" cy="100" r="99"/>
<g>
	<defs>
		<circle id="SVGID_00000011007579824211191030000005711596972149068471_" cx="100" cy="100" r="99"/>
	</defs>
	<clipPath id="SVGID_00000107581481773128792610000012591553318127423106_">
		<use xlink:href="#SVGID_00000011007579824211191030000005711596972149068471_"  style="overflow:visible;"/>
	</clipPath>
	<g style="opacity:0.4;clip-path:url(#SVGID_00000107581481773128792610000012591553318127423106_);">
		<path class="st10" d="M193.6,110.5V34.2c0-0.9-0.6-1.7-1.4-1.7h-105c-0.8,0-1.4,0.8-1.4,1.7v76.3H193.6z"/>
		<g>
			<path class="st15" d="M90.8,36.3c0,0.5-0.4,0.9-0.9,0.9c-0.5,0-0.9-0.4-0.9-0.9c0-0.5,0.4-0.9,0.9-0.9
				C90.4,35.4,90.8,35.8,90.8,36.3z"/>
			<path class="st15" d="M93.5,36.3c0,0.5-0.4,0.9-0.9,0.9c-0.5,0-0.9-0.4-0.9-0.9c0-0.5,0.4-0.9,0.9-0.9
				C93.1,35.4,93.5,35.8,93.5,36.3z"/>
			<path class="st15" d="M96.2,36.3c0,0.5-0.4,0.9-0.9,0.9c-0.5,0-0.9-0.4-0.9-0.9c0-0.5,0.4-0.9,0.9-0.9
				C95.8,35.4,96.2,35.8,96.2,36.3z"/>
		</g>
		<g>
			<path class="st15" d="M180.4,36.3c0,0.7-0.6,1.3-1.3,1.3c-0.7,0-1.3-0.6-1.3-1.3c0-0.7,0.6-1.3,1.3-1.3
				C179.8,35,180.4,35.6,180.4,36.3z"/>
			<polyline class="st16" points="179.8,36 179.1,36.6 178.5,36 			"/>
		</g>
		<g>
			<polyline class="st15" points="100.4,35.1 99.2,36.3 100.4,37.5 			"/>
		</g>
		<g>
			<polyline class="st15" points="102.8,35.1 103.9,36.3 102.8,37.5 			"/>
		</g>
		<g>
			<line class="st15" x1="183.4" y1="35.2" x2="183.4" y2="37.4"/>
			<line class="st15" x1="184.4" y1="36.3" x2="182.3" y2="36.3"/>
		</g>
		<g>
			<path class="st11" d="M186.9,35.5v0.2h-0.2v-0.2H186.9 M187.3,35.2h-0.9V36h0.9V35.2L187.3,35.2z"/>
			<path class="st11" d="M186.9,36.9v0.2h-0.2v-0.2H186.9 M187.3,36.6h-0.9v0.9h0.9V36.6L187.3,36.6z"/>
			<path class="st11" d="M188.3,35.5v0.2h-0.2v-0.2H188.3 M188.7,35.2h-0.9V36h0.9V35.2L188.7,35.2z"/>
			<path class="st11" d="M188.3,36.9v0.2h-0.2v-0.2H188.3 M188.7,36.6h-0.9v0.9h0.9V36.6L188.7,36.6z"/>
		</g>
		<g>
			<line class="st15" x1="100.4" y1="88.1" x2="138.4" y2="88.1"/>
			<line class="st15" x1="100.4" y1="91.5" x2="153.2" y2="91.5"/>
			<line class="st15" x1="100.4" y1="94.8" x2="130.5" y2="94.8"/>
			<line class="st15" x1="100.4" y1="98.2" x2="108.1" y2="98.2"/>
		</g>
		<g>
			<rect x="90.5" y="44.6" class="st17" width="82.8" height="37.4"/>
			<polygon class="st17" points="173.2,82 90.5,82 90.5,44.6 			"/>
			<polygon class="st17" points="173.2,44.6 90.5,44.6 90.5,82 			"/>
		</g>
	</g>
	<g style="clip-path:url(#SVGID_00000107581481773128792610000012591553318127423106_);">
		<g>
			<path class="st9" d="M93.3,205.1L77.6,156h54.8l22.2-28.4c3.9-5.9,4.1-7.4,2.3-9.1l0,0c-4-3.6-10.4,0.9-14.1,4.8l-19.9,16.8
				l-49.2-18.8l18.8-10.1c3.5-1.9,4.2-6.7,1.3-9.5h0c-1.4-1.3-3.4-1.9-5.3-1.5L72,103.4c-22.8,4.5-37.3,27-32,49.6l8.6,36.6
				L93.3,205.1z"/>
			<circle class="st2" cx="106.1" cy="93" r="20.9"/>
			<g>
				<path class="st12" d="M142.5,97.7V87.6l-8.9-0.8c-0.8-3.3-2.2-6.3-4-9l5.8-6.9l-7.1-7.1l-7.1,6c-2.8-1.7-5.9-2.9-9.2-3.5l-0.8-9
					l-10.1,0l-0.8,9.2c-3.3,0.8-6.3,2.2-9,4l-6.9-5.8L77.5,72l6,7.1c-1.7,2.8-2.9,5.9-3.5,9.2L71,89v10.1l9.3,0.7
					c0.8,3.3,2.2,6.3,4,9l-5.8,6.9l7.2,7.1l7.1-6c2.8,1.7,5.9,2.9,9.2,3.5l0.8,8.6h10.1l0.7-8.9c3.3-0.8,6.3-2.2,9-4l6.9,5.8
					l7.1-7.1l-6-7.1c1.7-2.8,2.9-5.9,3.5-9.2L142.5,97.7z M106.8,111c-9.9,0-17.8-8-17.8-17.8c0-9.9,8-17.8,17.8-17.8
					s17.8,8,17.8,17.8C124.6,103,116.6,111,106.8,111z"/>
			</g>
			<g>
				<defs>
					<path id="SVGID_00000016062869307327098830000000947778210633244843_" d="M93.3,205.1l-15.8-49h54.8l27.5-29.6
						c1.6-1.8,1.5-4.5-0.3-6.2l0,0c-4-3.6-10.1-3.4-13.8,0.5l-23,19.3l-49.2-18.8l18.8-10.1c3.5-1.9,4.2-6.7,1.3-9.5h0
						c-1.4-1.3-3.4-1.9-5.3-1.5L72,103.5c-22.8,4.5-37.3,27-32,49.6l5.2,22.2L93.3,205.1z"/>
				</defs>
				<clipPath id="SVGID_00000042007706198479917550000006680281431086198942_">
					<use xlink:href="#SVGID_00000016062869307327098830000000947778210633244843_"  style="overflow:visible;"/>
				</clipPath>
				<g style="clip-path:url(#SVGID_00000042007706198479917550000006680281431086198942_);">
					<g>
						<g>
							<g>
								<path class="st4" d="M121.6,141.9c-0.2,0-0.4,0.1-0.4,0.2s0.1,0.4,0.2,0.4c0.2,0,0.4-0.1,0.4-0.2
									C121.9,142.1,121.8,142,121.6,141.9z"/>
								<path class="st4" d="M122.9,141.2c-0.2,0-0.4,0.1-0.4,0.2c0,0.2,0.1,0.4,0.2,0.4c0.2,0,0.4-0.1,0.4-0.2
									S123,141.3,122.9,141.2z"/>
								<path class="st4" d="M123.9,138.4c-0.2,0-0.4,0.1-0.4,0.2s0.1,0.4,0.2,0.4c0.2,0,0.4-0.1,0.4-0.2
									C124.1,138.6,124,138.4,123.9,138.4z"/>
								<path class="st4" d="M122,139.4c-0.2,0-0.4,0.1-0.4,0.2c0,0.2,0.1,0.4,0.2,0.4c0.2,0,0.4-0.1,0.4-0.2
									C122.3,139.6,122.2,139.4,122,139.4z"/>
								<path class="st4" d="M125,139.9c-0.2,0-0.4,0.1-0.4,0.2c0,0.2,0.1,0.4,0.2,0.4c0.2,0,0.4-0.1,0.4-0.2S125.2,139.9,125,139.9
									z"/>
								<path class="st4" d="M119.6,140.8c-0.2,0-0.4,0.1-0.4,0.2s0.1,0.4,0.2,0.4c0.2,0,0.4-0.1,0.4-0.2
									C119.9,141.1,119.8,140.9,119.6,140.8z"/>
								<path class="st4" d="M123.4,137.4c-0.2,0-0.4,0.1-0.4,0.2c0,0.2,0.1,0.4,0.2,0.4c0.2,0,0.4-0.1,0.4-0.2
									C123.7,137.6,123.6,137.4,123.4,137.4z"/>
								<path class="st4" d="M123.8,142.4c-0.2,0-0.4,0.1-0.4,0.2c0,0.2,0.1,0.4,0.2,0.4c0.2,0,0.4-0.1,0.4-0.2
									C124.1,142.6,123.9,142.5,123.8,142.4z"/>
								<path class="st4" d="M120.8,138c-0.2,0-0.4,0.1-0.4,0.2c0,0.2,0.1,0.4,0.2,0.4c0.2,0,0.4-0.1,0.4-0.2
									C121.1,138.2,121,138.1,120.8,138z"/>
							</g>
							<g>
								<circle class="st4" cx="119.6" cy="137.8" r="0.3"/>
								<path class="st4" d="M118.1,138.2c0-0.2-0.1-0.4-0.2-0.4c-0.2,0-0.4,0.1-0.4,0.2c0,0.2,0.1,0.4,0.2,0.4
									C117.8,138.5,118,138.4,118.1,138.2z"/>
								<path class="st4" d="M120.6,139.1c0-0.2-0.1-0.4-0.2-0.4c-0.2,0-0.4,0.1-0.4,0.2c0,0.2,0.1,0.4,0.2,0.4
									C120.4,139.4,120.5,139.3,120.6,139.1z"/>
								<path class="st4" d="M125.5,142.1c0-0.2-0.1-0.4-0.2-0.4c-0.2,0-0.4,0.1-0.4,0.2s0.1,0.4,0.2,0.4
									C125.3,142.4,125.5,142.3,125.5,142.1z"/>
								<circle class="st4" cx="123.1" cy="140" r="0.3"/>
								<path class="st4" d="M122.5,138.3c0-0.2-0.1-0.4-0.2-0.4c-0.2,0-0.4,0.1-0.4,0.2c0,0.2,0.1,0.4,0.2,0.4
									C122.2,138.6,122.4,138.5,122.5,138.3z"/>
								<path class="st4" d="M121.9,141.3c0-0.2-0.1-0.4-0.2-0.4c-0.2,0-0.4,0.1-0.4,0.2s0.1,0.4,0.2,0.4
									C121.7,141.6,121.9,141.5,121.9,141.3z"/>
								<path class="st4" d="M121,135.9c0-0.2-0.1-0.4-0.2-0.4c-0.2,0-0.4,0.1-0.4,0.2c0,0.2,0.1,0.4,0.2,0.4
									C120.8,136.1,120.9,136,121,135.9z"/>
								<path class="st4" d="M118.6,141.9c0-0.2-0.1-0.4-0.2-0.4c-0.2,0-0.4,0.1-0.4,0.2s0.1,0.4,0.2,0.4
									C118.4,142.2,118.6,142.1,118.6,141.9z"/>
								<path class="st4" d="M125.3,138.5c0-0.2-0.1-0.4-0.2-0.4c-0.2,0-0.4,0.1-0.4,0.2c0,0.2,0.1,0.4,0.2,0.4
									C125.1,138.8,125.3,138.7,125.3,138.5z"/>
								<path class="st4" d="M121.6,144.1c0-0.2-0.1-0.4-0.2-0.4c-0.2,0-0.4,0.1-0.4,0.2c0,0.2,0.1,0.4,0.2,0.4
									C121.4,144.4,121.5,144.3,121.6,144.1z"/>
								<path class="st4" d="M127.5,139.1c0-0.2-0.1-0.4-0.2-0.4c-0.2,0-0.4,0.1-0.4,0.2c0,0.2,0.1,0.4,0.2,0.4
									C127.3,139.4,127.5,139.3,127.5,139.1z"/>
								<path class="st4" d="M119.4,140c0-0.2-0.1-0.4-0.2-0.4c-0.2,0-0.4,0.1-0.4,0.2c0,0.2,0.1,0.4,0.2,0.4
									C119.2,140.3,119.4,140.2,119.4,140z"/>
								<path class="st4" d="M123.2,136.6c0-0.2-0.1-0.4-0.2-0.4c-0.2,0-0.4,0.1-0.4,0.2c0,0.2,0.1,0.4,0.2,0.4
									C122.9,136.9,123.1,136.8,123.2,136.6z"/>
								<circle class="st4" cx="124.3" cy="136.3" r="0.3"/>
							</g>
						</g>
						<g>
							<g>
								<path class="st4" d="M118.7,142c-0.2,0-0.3,0.2-0.3,0.3c0,0.2,0.2,0.3,0.3,0.3c0.2,0,0.3-0.2,0.3-0.3
									C119,142.2,118.9,142,118.7,142z"/>
								<path class="st4" d="M119.7,141.1c-0.2,0-0.3,0.2-0.3,0.3s0.2,0.3,0.3,0.3c0.2,0,0.3-0.2,0.3-0.3S119.9,141.1,119.7,141.1z"
									/>
								<path class="st4" d="M120,138c-0.2,0-0.3,0.2-0.3,0.3c0,0.2,0.2,0.3,0.3,0.3s0.3-0.2,0.3-0.3C120.4,138.2,120.2,138,120,138
									z"/>
								<path class="st4" d="M118.5,139.4c-0.2,0-0.3,0.2-0.3,0.3c0,0.2,0.2,0.3,0.3,0.3s0.3-0.2,0.3-0.3
									C118.8,139.6,118.7,139.4,118.5,139.4z"/>
								<path class="st4" d="M121.5,139.2c-0.2,0-0.3,0.2-0.3,0.3c0,0.2,0.2,0.3,0.3,0.3c0.2,0,0.3-0.2,0.3-0.3
									C121.9,139.4,121.7,139.2,121.5,139.2z"/>
								<path class="st4" d="M116.5,141.5c-0.2,0-0.3,0.2-0.3,0.3c0,0.2,0.2,0.3,0.3,0.3c0.2,0,0.3-0.2,0.3-0.3
									C116.8,141.6,116.7,141.5,116.5,141.5z"/>
								<path class="st4" d="M119.3,137.2c-0.2,0-0.3,0.2-0.3,0.3c0,0.2,0.2,0.3,0.3,0.3c0.2,0,0.3-0.2,0.3-0.3
									C119.7,137.3,119.5,137.2,119.3,137.2z"/>
								<path class="st4" d="M120.9,142c-0.2,0-0.3,0.2-0.3,0.3c0,0.2,0.2,0.3,0.3,0.3c0.2,0,0.3-0.2,0.3-0.3
									C121.2,142.1,121.1,142,120.9,142z"/>
								<path class="st4" d="M117,138.4c-0.2,0-0.3,0.2-0.3,0.3c0,0.2,0.2,0.3,0.3,0.3c0.2,0,0.3-0.2,0.3-0.3
									C117.3,138.6,117.2,138.4,117,138.4z"/>
							</g>
							<g>
								<circle class="st4" cx="115.7" cy="138.5" r="0.3"/>
								<path class="st4" d="M114.4,139.3c0-0.2-0.2-0.3-0.3-0.3c-0.2,0-0.3,0.2-0.3,0.3c0,0.2,0.2,0.3,0.3,0.3
									C114.2,139.6,114.4,139.4,114.4,139.3z"/>
								<path class="st4" d="M117,139.5c0-0.2-0.2-0.3-0.3-0.3c-0.2,0-0.3,0.2-0.3,0.3c0,0.2,0.2,0.3,0.3,0.3
									C116.9,139.9,117,139.7,117,139.5z"/>
								<path class="st4" d="M122.6,141.3c0-0.2-0.2-0.3-0.3-0.3c-0.2,0-0.3,0.2-0.3,0.3c0,0.2,0.2,0.3,0.3,0.3
									C122.4,141.6,122.6,141.4,122.6,141.3z"/>
								<circle class="st4" cx="119.7" cy="139.8" r="0.3"/>
								<path class="st4" d="M118.7,138.3c0-0.2-0.2-0.3-0.3-0.3c-0.2,0-0.3,0.2-0.3,0.3c0,0.2,0.2,0.3,0.3,0.3
									C118.5,138.6,118.7,138.5,118.7,138.3z"/>
								<path class="st4" d="M118.9,141.3c0-0.2-0.2-0.3-0.3-0.3c-0.2,0-0.3,0.2-0.3,0.3c0,0.2,0.2,0.3,0.3,0.3
									C118.7,141.7,118.9,141.5,118.9,141.3z"/>
								<path class="st4" d="M116.6,136.3c0-0.2-0.2-0.3-0.3-0.3c-0.2,0-0.3,0.2-0.3,0.3c0,0.2,0.2,0.3,0.3,0.3
									C116.5,136.6,116.6,136.5,116.6,136.3z"/>
								<path class="st4" d="M115.8,142.7c0-0.2-0.2-0.3-0.3-0.3c-0.2,0-0.3,0.2-0.3,0.3c0,0.2,0.2,0.3,0.3,0.3
									C115.7,143.1,115.8,142.9,115.8,142.7z"/>
								<path class="st4" d="M121.5,137.8c0-0.2-0.2-0.3-0.3-0.3c-0.2,0-0.3,0.2-0.3,0.3c0,0.2,0.2,0.3,0.3,0.3
									C121.4,138.1,121.5,138,121.5,137.8z"/>
								<path class="st4" d="M119.2,144.1c0-0.2-0.2-0.3-0.3-0.3c-0.2,0-0.3,0.2-0.3,0.3c0,0.2,0.2,0.3,0.3,0.3
									C119,144.5,119.2,144.3,119.2,144.1z"/>
								<path class="st4" d="M123.8,137.9c0-0.2-0.2-0.3-0.3-0.3c-0.2,0-0.3,0.2-0.3,0.3c0,0.2,0.2,0.3,0.3,0.3
									C123.6,138.2,123.8,138.1,123.8,137.9z"/>
								<path class="st4" d="M116.1,140.7c0-0.2-0.2-0.3-0.3-0.3s-0.3,0.2-0.3,0.3c0,0.2,0.2,0.3,0.3,0.3S116.1,140.9,116.1,140.7z"
									/>
								<path class="st4" d="M118.9,136.5c0-0.2-0.2-0.3-0.3-0.3c-0.2,0-0.3,0.2-0.3,0.3c0,0.2,0.2,0.3,0.3,0.3
									C118.8,136.8,118.9,136.7,118.9,136.5z"/>
								<circle class="st4" cx="120" cy="135.9" r="0.3"/>
							</g>
						</g>
						<g>
							<g>
								<path class="st4" d="M114,138.2c0-0.2-0.2-0.3-0.3-0.3c-0.2,0-0.3,0.2-0.3,0.3c0,0.2,0.2,0.3,0.3,0.3
									C113.8,138.5,114,138.4,114,138.2z"/>
								<path class="st4" d="M114.9,139.2c0-0.2-0.2-0.3-0.3-0.3c-0.2,0-0.3,0.2-0.3,0.3c0,0.2,0.2,0.3,0.3,0.3
									C114.8,139.6,114.9,139.4,114.9,139.2z"/>
								<path class="st4" d="M118,139.6c0-0.2-0.2-0.3-0.3-0.3c-0.2,0-0.3,0.2-0.3,0.3c0,0.2,0.2,0.3,0.3,0.3
									C117.8,139.9,118,139.7,118,139.6z"/>
								<path class="st4" d="M116.6,138c0-0.2-0.2-0.3-0.3-0.3c-0.2,0-0.3,0.2-0.3,0.3c0,0.2,0.2,0.3,0.3,0.3
									C116.4,138.4,116.6,138.2,116.6,138z"/>
								<path class="st4" d="M116.8,141c0-0.2-0.2-0.3-0.3-0.3c-0.2,0-0.3,0.2-0.3,0.3s0.2,0.3,0.3,0.3
									C116.6,141.4,116.8,141.2,116.8,141z"/>
								<path class="st4" d="M114.6,136c0-0.2-0.2-0.3-0.3-0.3c-0.2,0-0.3,0.2-0.3,0.3s0.2,0.3,0.3,0.3
									C114.4,136.3,114.6,136.2,114.6,136z"/>
								<path class="st4" d="M118.8,138.9c0-0.2-0.2-0.3-0.3-0.3c-0.2,0-0.3,0.2-0.3,0.3c0,0.2,0.2,0.3,0.3,0.3
									C118.7,139.2,118.8,139.1,118.8,138.9z"/>
								<path class="st4" d="M114,140.4c0-0.2-0.2-0.3-0.3-0.3c-0.2,0-0.3,0.2-0.3,0.3c0,0.2,0.2,0.3,0.3,0.3
									C113.9,140.7,114,140.6,114,140.4z"/>
								<path class="st4" d="M117.6,136.5c0-0.2-0.2-0.3-0.3-0.3c-0.2,0-0.3,0.2-0.3,0.3c0,0.2,0.2,0.3,0.3,0.3
									S117.6,136.7,117.6,136.5z"/>
							</g>
							<g>
								<circle class="st4" cx="117.5" cy="135.3" r="0.3"/>
								<path class="st4" d="M116.8,133.9c0.2,0,0.3-0.2,0.3-0.3c0-0.2-0.2-0.3-0.3-0.3c-0.2,0-0.3,0.2-0.3,0.3
									C116.4,133.7,116.6,133.9,116.8,133.9z"/>
								<path class="st4" d="M116.5,136.5c0.2,0,0.3-0.2,0.3-0.3c0-0.2-0.2-0.3-0.3-0.3c-0.2,0-0.3,0.2-0.3,0.3
									S116.3,136.5,116.5,136.5z"/>
								<path class="st4" d="M114.7,142.1c0.2,0,0.3-0.2,0.3-0.3s-0.2-0.3-0.3-0.3c-0.2,0-0.3,0.2-0.3,0.3
									C114.4,141.9,114.5,142.1,114.7,142.1z"/>
								<circle class="st4" cx="116.2" cy="139.2" r="0.3"/>
								<path class="st4" d="M117.7,138.2c0.2,0,0.3-0.2,0.3-0.3c0-0.2-0.2-0.3-0.3-0.3c-0.2,0-0.3,0.2-0.3,0.3
									C117.4,138,117.5,138.2,117.7,138.2z"/>
								<path class="st4" d="M114.7,138.4c0.2,0,0.3-0.2,0.3-0.3c0-0.2-0.2-0.3-0.3-0.3c-0.2,0-0.3,0.2-0.3,0.3
									S114.5,138.4,114.7,138.4z"/>
								<path class="st4" d="M119.7,136.2c0.2,0,0.3-0.2,0.3-0.3c0-0.2-0.2-0.3-0.3-0.3c-0.2,0-0.3,0.2-0.3,0.3
									C119.4,136,119.6,136.2,119.7,136.2z"/>
								<path class="st4" d="M113.3,135.3c0.2,0,0.3-0.2,0.3-0.3c0-0.2-0.2-0.3-0.3-0.3c-0.2,0-0.3,0.2-0.3,0.3
									S113.1,135.3,113.3,135.3z"/>
								<path class="st4" d="M118.2,141c0.2,0,0.3-0.2,0.3-0.3c0-0.2-0.2-0.3-0.3-0.3c-0.2,0-0.3,0.2-0.3,0.3
									C117.9,140.9,118,141,118.2,141z"/>
								<path class="st4" d="M111.9,138.7c0.2,0,0.3-0.2,0.3-0.3c0-0.2-0.2-0.3-0.3-0.3c-0.2,0-0.3,0.2-0.3,0.3
									S111.7,138.7,111.9,138.7z"/>
								<path class="st4" d="M118.1,143.3c0.2,0,0.3-0.2,0.3-0.3s-0.2-0.3-0.3-0.3c-0.2,0-0.3,0.2-0.3,0.3
									C117.7,143.2,117.9,143.3,118.1,143.3z"/>
								<path class="st4" d="M115.3,135.6c0.2,0,0.3-0.2,0.3-0.3s-0.2-0.3-0.3-0.3c-0.2,0-0.3,0.2-0.3,0.3
									C115,135.5,115.1,135.6,115.3,135.6z"/>
								<path class="st4" d="M119.5,138.5c0.2,0,0.3-0.2,0.3-0.3c0-0.2-0.2-0.3-0.3-0.3c-0.2,0-0.3,0.2-0.3,0.3
									C119.2,138.3,119.3,138.5,119.5,138.5z"/>
								<circle class="st4" cx="120.1" cy="139.5" r="0.3"/>
							</g>
						</g>
						<g>
							<g>
								<path class="st4" d="M112.1,138.9c-0.2-0.1-0.4,0-0.4,0.2s0,0.4,0.2,0.4c0.2,0.1,0.4,0,0.4-0.2
									C112.4,139.2,112.3,139,112.1,138.9z"/>
								<path class="st4" d="M113.5,138.4c-0.2-0.1-0.4,0-0.4,0.2s0,0.4,0.2,0.4c0.2,0.1,0.4,0,0.4-0.2S113.7,138.5,113.5,138.4z"/>
								<path class="st4" d="M115,135.8c-0.2-0.1-0.4,0-0.4,0.2s0,0.4,0.2,0.4c0.2,0.1,0.4,0,0.4-0.2S115.1,135.9,115,135.8z"/>
								<path class="st4" d="M113,136.4c-0.2-0.1-0.4,0-0.4,0.2c-0.1,0.2,0,0.4,0.2,0.4c0.2,0.1,0.4,0,0.4-0.2
									C113.3,136.7,113.2,136.5,113,136.4z"/>
								<path class="st4" d="M115.9,137.5c-0.2-0.1-0.4,0-0.4,0.2c-0.1,0.2,0,0.4,0.2,0.4c0.2,0.1,0.4,0,0.4-0.2
									C116.1,137.7,116,137.6,115.9,137.5z"/>
								<path class="st4" d="M110.3,137.5c-0.2-0.1-0.4,0-0.4,0.2c-0.1,0.2,0,0.4,0.2,0.4c0.2,0.1,0.4,0,0.4-0.2
									S110.5,137.5,110.3,137.5z"/>
								<path class="st4" d="M114.7,134.7c-0.2-0.1-0.4,0-0.4,0.2c-0.1,0.2,0,0.4,0.2,0.4c0.2,0.1,0.4,0,0.4-0.2
									S114.9,134.8,114.7,134.7z"/>
								<path class="st4" d="M114.2,139.8c-0.2-0.1-0.4,0-0.4,0.2c-0.1,0.2,0,0.4,0.2,0.4c0.2,0.1,0.4,0,0.4-0.2
									C114.4,140,114.3,139.8,114.2,139.8z"/>
								<path class="st4" d="M112.1,134.9c-0.2-0.1-0.4,0-0.4,0.2c-0.1,0.2,0,0.4,0.2,0.4c0.2,0.1,0.4,0,0.4-0.2
									C112.3,135.2,112.2,135,112.1,134.9z"/>
							</g>
							<g>
								<circle class="st4" cx="110.9" cy="134.5" r="0.3"/>
								<path class="st4" d="M109.3,134.6c0.1-0.2,0-0.4-0.2-0.4c-0.2-0.1-0.4,0-0.4,0.2c-0.1,0.2,0,0.4,0.2,0.4
									C109,134.9,109.2,134.8,109.3,134.6z"/>
								<path class="st4" d="M111.6,136c0.1-0.2,0-0.4-0.2-0.4c-0.2-0.1-0.4,0-0.4,0.2s0,0.4,0.2,0.4
									C111.4,136.2,111.5,136.1,111.6,136z"/>
								<path class="st4" d="M116,139.8c0.1-0.2,0-0.4-0.2-0.4c-0.2-0.1-0.4,0-0.4,0.2c-0.1,0.2,0,0.4,0.2,0.4
									C115.7,140,115.9,139.9,116,139.8z"/>
								<circle class="st4" cx="114" cy="137.3" r="0.3"/>
								<path class="st4" d="M113.6,135.5c0.1-0.2,0-0.4-0.2-0.4c-0.2-0.1-0.4,0-0.4,0.2c-0.1,0.2,0,0.4,0.2,0.4
									C113.3,135.7,113.5,135.7,113.6,135.5z"/>
								<path class="st4" d="M112.6,138.3c0.1-0.2,0-0.4-0.2-0.4c-0.2-0.1-0.4,0-0.4,0.2c-0.1,0.2,0,0.4,0.2,0.4
									C112.3,138.6,112.5,138.5,112.6,138.3z"/>
								<path class="st4" d="M112.6,132.8c0.1-0.2,0-0.4-0.2-0.4c-0.2-0.1-0.4,0-0.4,0.2c-0.1,0.2,0,0.4,0.2,0.4
									C112.3,133.1,112.5,133,112.6,132.8z"/>
								<path class="st4" d="M109.2,138.4c0.1-0.2,0-0.4-0.2-0.4c-0.2-0.1-0.4,0-0.4,0.2c-0.1,0.2,0,0.4,0.2,0.4
									C108.9,138.6,109.1,138.5,109.2,138.4z"/>
								<path class="st4" d="M116.4,136.2c0.1-0.2,0-0.4-0.2-0.4c-0.2-0.1-0.4,0-0.4,0.2c-0.1,0.2,0,0.4,0.2,0.4
									C116.2,136.4,116.3,136.3,116.4,136.2z"/>
								<path class="st4" d="M111.7,141c0.1-0.2,0-0.4-0.2-0.4c-0.2-0.1-0.4,0-0.4,0.2s0,0.4,0.2,0.4
									C111.5,141.3,111.7,141.2,111.7,141z"/>
								<path class="st4" d="M118.5,137.2c0.1-0.2,0-0.4-0.2-0.4c-0.2-0.1-0.4,0-0.4,0.2s0,0.4,0.2,0.4
									C118.2,137.4,118.4,137.3,118.5,137.2z"/>
								<path class="st4" d="M110.3,136.6c0.1-0.2,0-0.4-0.2-0.4c-0.2-0.1-0.4,0-0.4,0.2s0,0.4,0.2,0.4S110.2,136.8,110.3,136.6z"/>
								<path class="st4" d="M114.6,133.9c0.1-0.2,0-0.4-0.2-0.4c-0.2-0.1-0.4,0-0.4,0.2c-0.1,0.2,0,0.4,0.2,0.4
									C114.3,134.2,114.5,134.1,114.6,133.9z"/>
								<circle class="st4" cx="115.8" cy="133.8" r="0.3"/>
							</g>
						</g>
						<g>
							<g>
								<path class="st4" d="M111.5,137.5c-0.1,0.2-0.1,0.4,0.1,0.5c0.2,0.1,0.4,0.1,0.5-0.1c0.1-0.2,0.1-0.4-0.1-0.5
									C111.8,137.3,111.6,137.4,111.5,137.5z"/>
								<path class="st4" d="M111.3,136.1c-0.1,0.2-0.1,0.4,0.1,0.5c0.2,0.1,0.4,0.1,0.5-0.1c0.1-0.2,0.1-0.4-0.1-0.5
									S111.4,136,111.3,136.1z"/>
								<path class="st4" d="M108.9,134.2c-0.1,0.2-0.1,0.4,0.1,0.5c0.2,0.1,0.4,0.1,0.5-0.1c0.1-0.2,0.1-0.4-0.1-0.5
									C109.3,134,109,134,108.9,134.2z"/>
								<path class="st4" d="M109.2,136.2c-0.1,0.2-0.1,0.4,0.1,0.5c0.2,0.1,0.4,0.1,0.5-0.1c0.1-0.2,0.1-0.4-0.1-0.5
									C109.6,136,109.3,136.1,109.2,136.2z"/>
								<path class="st4" d="M110.8,133.6c-0.1,0.2-0.1,0.4,0.1,0.5c0.2,0.1,0.4,0.1,0.5-0.1c0.1-0.2,0.1-0.4-0.1-0.5
									C111.1,133.4,110.9,133.5,110.8,133.6z"/>
								<path class="st4" d="M109.8,139c-0.1,0.2-0.1,0.4,0.1,0.5c0.2,0.1,0.4,0.1,0.5-0.1c0.1-0.2,0.1-0.4-0.1-0.5
									C110.1,138.9,109.9,138.9,109.8,139z"/>
								<path class="st4" d="M107.8,134.3c-0.1,0.2-0.1,0.4,0.1,0.5c0.2,0.1,0.4,0.1,0.5-0.1c0.1-0.2,0.1-0.4-0.1-0.5
									C108.1,134.1,107.9,134.1,107.8,134.3z"/>
								<path class="st4" d="M112.7,135.7c-0.1,0.2-0.1,0.4,0.1,0.5c0.2,0.1,0.4,0.1,0.5-0.1c0.1-0.2,0.1-0.4-0.1-0.5
									C113,135.5,112.8,135.5,112.7,135.7z"/>
								<path class="st4" d="M107.6,136.9c-0.1,0.2-0.1,0.4,0.1,0.5c0.2,0.1,0.4,0.1,0.5-0.1c0.1-0.2,0.1-0.4-0.1-0.5
									C107.9,136.7,107.7,136.8,107.6,136.9z"/>
							</g>
							<g>
								<circle class="st4" cx="106.9" cy="138" r="0.3"/>
								<path class="st4" d="M106.8,139.6c-0.2-0.1-0.4-0.1-0.5,0.1c-0.1,0.2-0.1,0.4,0.1,0.5c0.2,0.1,0.4,0.1,0.5-0.1
									C107,139.9,106.9,139.7,106.8,139.6z"/>
								<path class="st4" d="M108.5,137.5c-0.2-0.1-0.4-0.1-0.5,0.1c-0.1,0.2-0.1,0.4,0.1,0.5c0.2,0.1,0.4,0.1,0.5-0.1
									C108.7,137.8,108.7,137.6,108.5,137.5z"/>
								<path class="st4" d="M113,133.9c-0.2-0.1-0.4-0.1-0.5,0.1c-0.1,0.2-0.1,0.4,0.1,0.5c0.2,0.1,0.4,0.1,0.5-0.1
									C113.2,134.2,113.2,134,113,133.9z"/>
								<circle class="st4" cx="110.3" cy="135.5" r="0.3"/>
								<path class="st4" d="M108.4,135.5c-0.2-0.1-0.4-0.1-0.5,0.1c-0.1,0.2-0.1,0.4,0.1,0.5c0.2,0.1,0.4,0.1,0.5-0.1
									C108.6,135.8,108.6,135.6,108.4,135.5z"/>
								<path class="st4" d="M111,137c-0.2-0.1-0.4-0.1-0.5,0.1c-0.1,0.2-0.1,0.4,0.1,0.5c0.2,0.1,0.4,0.1,0.5-0.1
									C111.2,137.3,111.2,137.1,111,137z"/>
								<path class="st4" d="M105.6,136c-0.2-0.1-0.4-0.1-0.5,0.1c-0.1,0.2-0.1,0.4,0.1,0.5c0.2,0.1,0.4,0.1,0.5-0.1
									C105.8,136.3,105.7,136.1,105.6,136z"/>
								<path class="st4" d="M110.5,140.3c-0.2-0.1-0.4-0.1-0.5,0.1c-0.1,0.2-0.1,0.4,0.1,0.5c0.2,0.1,0.4,0.1,0.5-0.1
									C110.7,140.6,110.6,140.4,110.5,140.3z"/>
								<path class="st4" d="M109.6,132.8c-0.2-0.1-0.4-0.1-0.5,0.1c-0.1,0.2-0.1,0.4,0.1,0.5c0.2,0.1,0.4,0.1,0.5-0.1
									C109.8,133.1,109.7,132.9,109.6,132.8z"/>
								<path class="st4" d="M113.5,138.3c-0.2-0.1-0.4-0.1-0.5,0.1c-0.1,0.2-0.1,0.4,0.1,0.5c0.2,0.1,0.4,0.1,0.5-0.1
									S113.7,138.4,113.5,138.3z"/>
								<path class="st4" d="M110.9,131c-0.2-0.1-0.4-0.1-0.5,0.1c-0.1,0.2-0.1,0.4,0.1,0.5c0.2,0.1,0.4,0.1,0.5-0.1
									C111.1,131.3,111.1,131.1,110.9,131z"/>
								<path class="st4" d="M108.9,138.9c-0.2-0.1-0.4-0.1-0.5,0.1c-0.1,0.2-0.1,0.4,0.1,0.5c0.2,0.1,0.4,0.1,0.5-0.1
									C109.1,139.2,109.1,139,108.9,138.9z"/>
								<path class="st4" d="M107.1,134.2c-0.2-0.1-0.4-0.1-0.5,0.1c-0.1,0.2-0.1,0.4,0.1,0.5c0.2,0.1,0.4,0.1,0.5-0.1
									C107.2,134.5,107.2,134.3,107.1,134.2z"/>
								<circle class="st4" cx="107.2" cy="133" r="0.3"/>
							</g>
						</g>
						<g>
							<g>
								<path class="st4" d="M105,135.3c0-0.2-0.2-0.3-0.4-0.3c-0.2,0-0.3,0.2-0.3,0.4c0,0.2,0.2,0.3,0.4,0.3
									C104.9,135.6,105,135.5,105,135.3z"/>
								<path class="st4" d="M106.1,136.2c0-0.2-0.2-0.3-0.4-0.3c-0.2,0-0.3,0.2-0.3,0.4c0,0.2,0.2,0.3,0.4,0.3
									C106,136.5,106.1,136.4,106.1,136.2z"/>
								<path class="st4" d="M109.1,136c0-0.2-0.2-0.3-0.4-0.3c-0.2,0-0.3,0.2-0.3,0.4s0.2,0.3,0.4,0.3
									C109,136.4,109.1,136.2,109.1,136z"/>
								<path class="st4" d="M107.5,134.7c0-0.2-0.2-0.3-0.4-0.3c-0.2,0-0.3,0.2-0.3,0.4c0,0.2,0.2,0.3,0.4,0.3
									C107.4,135.1,107.5,134.9,107.5,134.7z"/>
								<path class="st4" d="M108.1,137.7c0-0.2-0.2-0.3-0.4-0.3c-0.2,0-0.3,0.2-0.3,0.4c0,0.2,0.2,0.3,0.4,0.3
									C108,138,108.2,137.9,108.1,137.7z"/>
								<path class="st4" d="M105.2,133c0-0.2-0.2-0.3-0.4-0.3c-0.2,0-0.3,0.2-0.3,0.4c0,0.2,0.2,0.3,0.4,0.3
									C105.1,133.4,105.2,133.2,105.2,133z"/>
								<path class="st4" d="M109.9,135.2c0-0.2-0.2-0.3-0.4-0.3c-0.2,0-0.3,0.2-0.3,0.4c0,0.2,0.2,0.3,0.4,0.3
									C109.8,135.6,109.9,135.4,109.9,135.2z"/>
								<path class="st4" d="M105.3,137.5c0-0.2-0.2-0.3-0.4-0.3c-0.2,0-0.3,0.2-0.3,0.4c0,0.2,0.2,0.3,0.4,0.3
									C105.2,137.8,105.3,137.7,105.3,137.5z"/>
								<path class="st4" d="M108.3,133.1c0-0.2-0.2-0.3-0.4-0.3s-0.3,0.2-0.3,0.4c0,0.2,0.2,0.3,0.4,0.3S108.3,133.3,108.3,133.1z"
									/>
							</g>
							<g>
								<circle class="st4" cx="108" cy="131.8" r="0.3"/>
								<path class="st4" d="M107.1,130.6c0.2,0,0.3-0.2,0.3-0.4c0-0.2-0.2-0.3-0.4-0.3c-0.2,0-0.3,0.2-0.3,0.4
									S106.9,130.6,107.1,130.6z"/>
								<path class="st4" d="M107.2,133.3c0.2,0,0.3-0.2,0.3-0.4c0-0.2-0.2-0.3-0.4-0.3c-0.2,0-0.3,0.2-0.3,0.4
									C106.8,133.2,107,133.3,107.2,133.3z"/>
								<path class="st4" d="M106.3,139c0.2,0,0.3-0.2,0.3-0.4c0-0.2-0.2-0.3-0.4-0.3c-0.2,0-0.3,0.2-0.3,0.4
									C105.9,138.9,106.1,139,106.3,139z"/>
								<circle class="st4" cx="107.3" cy="136" r="0.3"/>
								<path class="st4" d="M108.6,134.7c0.2,0,0.3-0.2,0.3-0.4c0-0.2-0.2-0.3-0.4-0.3c-0.2,0-0.3,0.2-0.3,0.4
									C108.3,134.6,108.4,134.7,108.6,134.7z"/>
								<path class="st4" d="M105.7,135.4c0.2,0,0.3-0.2,0.3-0.4c0-0.2-0.2-0.3-0.4-0.3c-0.2,0-0.3,0.2-0.3,0.4
									C105.3,135.3,105.5,135.4,105.7,135.4z"/>
								<path class="st4" d="M110.3,132.4c0.2,0,0.3-0.2,0.3-0.4c0-0.2-0.2-0.3-0.4-0.3c-0.2,0-0.3,0.2-0.3,0.4
									C110,132.3,110.2,132.5,110.3,132.4z"/>
								<path class="st4" d="M103.8,132.5c0.2,0,0.3-0.2,0.3-0.4s-0.2-0.3-0.4-0.3c-0.2,0-0.3,0.2-0.3,0.4
									C103.5,132.4,103.7,132.6,103.8,132.5z"/>
								<path class="st4" d="M109.6,137.5c0.2,0,0.3-0.2,0.3-0.4c0-0.2-0.2-0.3-0.4-0.3c-0.2,0-0.3,0.2-0.3,0.4
									C109.2,137.4,109.4,137.5,109.6,137.5z"/>
								<path class="st4" d="M102.9,136.1c0.2,0,0.3-0.2,0.3-0.4c0-0.2-0.2-0.3-0.4-0.3c-0.2,0-0.3,0.2-0.3,0.4
									C102.6,136,102.8,136.1,102.9,136.1z"/>
								<path class="st4" d="M109.8,139.7c0.2,0,0.3-0.2,0.3-0.4c0-0.2-0.2-0.3-0.4-0.3c-0.2,0-0.3,0.2-0.3,0.4
									C109.4,139.6,109.6,139.7,109.8,139.7z"/>
								<path class="st4" d="M105.9,132.5c0.2,0,0.3-0.2,0.3-0.4c0-0.2-0.2-0.3-0.4-0.3c-0.2,0-0.3,0.2-0.3,0.4
									C105.5,132.4,105.7,132.6,105.9,132.5z"/>
								<path class="st4" d="M110.5,134.7c0.2,0,0.3-0.2,0.3-0.4c0-0.2-0.2-0.3-0.4-0.3c-0.2,0-0.3,0.2-0.3,0.4
									C110.1,134.6,110.3,134.8,110.5,134.7z"/>
								<circle class="st4" cx="111.2" cy="135.7" r="0.3"/>
							</g>
						</g>
						<g>
							<g>
								<path class="st4" d="M101.7,135.5c-0.1-0.2-0.2-0.3-0.4-0.2c-0.2,0.1-0.3,0.2-0.2,0.4c0.1,0.2,0.2,0.3,0.4,0.2
									C101.6,135.8,101.7,135.6,101.7,135.5z"/>
								<path class="st4" d="M102.9,136.2c-0.1-0.2-0.2-0.3-0.4-0.2c-0.2,0.1-0.3,0.2-0.2,0.4c0.1,0.2,0.2,0.3,0.4,0.2
									C102.9,136.5,103,136.3,102.9,136.2z"/>
								<path class="st4" d="M105.9,135.5c-0.1-0.2-0.2-0.3-0.4-0.2c-0.2,0.1-0.3,0.2-0.2,0.4c0.1,0.2,0.2,0.3,0.4,0.2
									C105.8,135.9,105.9,135.7,105.9,135.5z"/>
								<path class="st4" d="M104.1,134.5c-0.1-0.2-0.2-0.3-0.4-0.2c-0.2,0.1-0.3,0.2-0.2,0.4c0.1,0.2,0.2,0.3,0.4,0.2
									C104.1,134.9,104.2,134.7,104.1,134.5z"/>
								<path class="st4" d="M105.2,137.3c-0.1-0.2-0.2-0.3-0.4-0.2c-0.2,0.1-0.3,0.2-0.2,0.4c0.1,0.2,0.2,0.3,0.4,0.2
									C105.2,137.7,105.3,137.5,105.2,137.3z"/>
								<path class="st4" d="M101.6,133.2c-0.1-0.2-0.2-0.3-0.4-0.2c-0.2,0.1-0.3,0.2-0.2,0.4c0.1,0.2,0.2,0.3,0.4,0.2
									C101.5,133.5,101.6,133.3,101.6,133.2z"/>
								<path class="st4" d="M106.5,134.6c-0.1-0.2-0.2-0.3-0.4-0.2c-0.2,0.1-0.3,0.2-0.2,0.4c0.1,0.2,0.2,0.3,0.4,0.2
									C106.5,135,106.6,134.8,106.5,134.6z"/>
								<path class="st4" d="M102.4,137.5c-0.1-0.2-0.2-0.3-0.4-0.2c-0.2,0.1-0.3,0.2-0.2,0.4c0.1,0.2,0.2,0.3,0.4,0.2
									C102.3,137.9,102.4,137.7,102.4,137.5z"/>
								<path class="st4" d="M104.6,132.8c-0.1-0.2-0.2-0.3-0.4-0.2c-0.2,0.1-0.3,0.2-0.2,0.4c0.1,0.2,0.2,0.3,0.4,0.2
									C104.6,133.1,104.7,132.9,104.6,132.8z"/>
							</g>
							<g>
								<circle class="st4" cx="104.2" cy="131.6" r="0.3"/>
								<path class="st4" d="M103,130.5c0.2-0.1,0.3-0.2,0.2-0.4c-0.1-0.2-0.2-0.3-0.4-0.2c-0.2,0.1-0.3,0.2-0.2,0.4
									C102.7,130.4,102.9,130.5,103,130.5z"/>
								<path class="st4" d="M103.5,133.1c0.2-0.1,0.3-0.2,0.2-0.4c-0.1-0.2-0.2-0.3-0.4-0.2c-0.2,0.1-0.3,0.2-0.2,0.4
									C103.2,133.1,103.4,133.2,103.5,133.1z"/>
								<path class="st4" d="M103.6,138.9c0.2-0.1,0.3-0.2,0.2-0.4c-0.1-0.2-0.2-0.3-0.4-0.2c-0.2,0.1-0.3,0.2-0.2,0.4
									C103.2,138.9,103.4,139,103.6,138.9z"/>
								<circle class="st4" cx="104.1" cy="135.8" r="0.3"/>
								<path class="st4" d="M105.2,134.3c0.2-0.1,0.3-0.2,0.2-0.4c-0.1-0.2-0.2-0.3-0.4-0.2c-0.2,0.1-0.3,0.2-0.2,0.4
									C104.9,134.3,105,134.4,105.2,134.3z"/>
								<path class="st4" d="M102.4,135.4c0.2-0.1,0.3-0.2,0.2-0.4c-0.1-0.2-0.2-0.3-0.4-0.2c-0.2,0.1-0.3,0.2-0.2,0.4
									C102,135.4,102.2,135.5,102.4,135.4z"/>
								<path class="st4" d="M106.5,131.8c0.2-0.1,0.3-0.2,0.2-0.4c-0.1-0.2-0.2-0.3-0.4-0.2c-0.2,0.1-0.3,0.2-0.2,0.4
									C106.2,131.7,106.4,131.8,106.5,131.8z"/>
								<path class="st4" d="M100.1,132.9c0.2-0.1,0.3-0.2,0.2-0.4c-0.1-0.2-0.2-0.3-0.4-0.2c-0.2,0.1-0.3,0.2-0.2,0.4
									C99.8,132.9,100,133,100.1,132.9z"/>
								<path class="st4" d="M106.6,136.9c0.2-0.1,0.3-0.2,0.2-0.4c-0.1-0.2-0.2-0.3-0.4-0.2c-0.2,0.1-0.3,0.2-0.2,0.4
									C106.2,136.8,106.4,136.9,106.6,136.9z"/>
								<path class="st4" d="M99.8,136.5c0.2-0.1,0.3-0.2,0.2-0.4c-0.1-0.2-0.2-0.3-0.4-0.2c-0.2,0.1-0.3,0.2-0.2,0.4
									C99.5,136.5,99.6,136.6,99.8,136.5z"/>
								<path class="st4" d="M107.1,139.1c0.2-0.1,0.3-0.2,0.2-0.4c-0.1-0.2-0.2-0.3-0.4-0.2c-0.2,0.1-0.3,0.2-0.2,0.4
									C106.8,139,107,139.1,107.1,139.1z"/>
								<path class="st4" d="M102.2,132.6c0.2-0.1,0.3-0.2,0.2-0.4s-0.2-0.3-0.4-0.2c-0.2,0.1-0.3,0.2-0.2,0.4
									C101.8,132.5,102,132.6,102.2,132.6z"/>
								<path class="st4" d="M107,134c0.2-0.1,0.3-0.2,0.2-0.4c-0.1-0.2-0.2-0.3-0.4-0.2c-0.2,0.1-0.3,0.2-0.2,0.4
									C106.7,134,106.9,134.1,107,134z"/>
								<circle class="st4" cx="107.9" cy="134.8" r="0.3"/>
							</g>
						</g>
						<g>
							<g>
								<path class="st4" d="M99.1,134.9c-0.1-0.1-0.3-0.1-0.5,0s-0.1,0.3,0,0.5c0.1,0.1,0.3,0.1,0.5,0
									C99.2,135.3,99.2,135.1,99.1,134.9z"/>
								<path class="st4" d="M100.5,135.1c-0.1-0.1-0.3-0.1-0.5,0c-0.1,0.1-0.1,0.3,0,0.5c0.1,0.1,0.3,0.1,0.5,0
									C100.6,135.4,100.7,135.2,100.5,135.1z"/>
								<path class="st4" d="M103,133.3c-0.1-0.1-0.3-0.1-0.5,0c-0.1,0.1-0.1,0.3,0,0.5c0.1,0.1,0.3,0.1,0.5,0
									S103.1,133.4,103,133.3z"/>
								<path class="st4" d="M100.9,133.1c-0.1-0.1-0.3-0.1-0.5,0c-0.1,0.1-0.1,0.3,0,0.5c0.1,0.1,0.3,0.1,0.5,0
									C101.1,133.4,101.1,133.2,100.9,133.1z"/>
								<path class="st4" d="M103.1,135.2c-0.1-0.1-0.3-0.1-0.5,0c-0.1,0.1-0.1,0.3,0,0.5c0.1,0.1,0.3,0.1,0.5,0
									C103.2,135.5,103.2,135.3,103.1,135.2z"/>
								<path class="st4" d="M98.1,132.9c-0.1-0.1-0.3-0.1-0.5,0c-0.1,0.1-0.1,0.3,0,0.5c0.1,0.1,0.3,0.1,0.5,0S98.2,133,98.1,132.9
									z"/>
								<path class="st4" d="M103.2,132.2c-0.1-0.1-0.3-0.1-0.5,0c-0.1,0.1-0.1,0.3,0,0.5c0.1,0.1,0.3,0.1,0.5,0
									C103.3,132.5,103.3,132.3,103.2,132.2z"/>
								<path class="st4" d="M100.6,136.6c-0.1-0.1-0.3-0.1-0.5,0s-0.1,0.3,0,0.5c0.1,0.1,0.3,0.1,0.5,0
									C100.7,136.9,100.7,136.7,100.6,136.6z"/>
								<path class="st4" d="M100.7,131.3c-0.1-0.1-0.3-0.1-0.5,0c-0.1,0.1-0.1,0.3,0,0.5c0.1,0.1,0.3,0.1,0.5,0
									C100.8,131.6,100.8,131.4,100.7,131.3z"/>
							</g>
							<g>
								<circle class="st4" cx="99.8" cy="130.4" r="0.3"/>
								<path class="st4" d="M98.3,129.8c0.1-0.1,0.1-0.3,0-0.5c-0.1-0.1-0.3-0.1-0.5,0c-0.1,0.1-0.1,0.3,0,0.5
									C98,130,98.2,130,98.3,129.8z"/>
								<path class="st4" d="M99.9,132c0.1-0.1,0.1-0.3,0-0.5c-0.1-0.1-0.3-0.1-0.5,0c-0.1,0.1-0.1,0.3,0,0.5
									C99.5,132.1,99.7,132.2,99.9,132z"/>
								<path class="st4" d="M102.2,137.3c0.1-0.1,0.1-0.3,0-0.5c-0.1-0.1-0.3-0.1-0.5,0c-0.1,0.1-0.1,0.3,0,0.5
									C101.9,137.4,102.1,137.4,102.2,137.3z"/>
								<circle class="st4" cx="101.5" cy="134.2" r="0.3"/>
								<path class="st4" d="M101.9,132.4c0.1-0.1,0.1-0.3,0-0.5c-0.1-0.1-0.3-0.1-0.5,0s-0.1,0.3,0,0.5
									C101.5,132.6,101.8,132.6,101.9,132.4z"/>
								<path class="st4" d="M99.8,134.6c0.1-0.1,0.1-0.3,0-0.5c-0.1-0.1-0.3-0.1-0.5,0c-0.1,0.1-0.1,0.3,0,0.5
									C99.4,134.7,99.6,134.7,99.8,134.6z"/>
								<path class="st4" d="M102.1,129.6c0.1-0.1,0.1-0.3,0-0.5c-0.1-0.1-0.3-0.1-0.5,0c-0.1,0.1-0.1,0.3,0,0.5
									C101.7,129.7,101.9,129.7,102.1,129.6z"/>
								<path class="st4" d="M96.7,133.2c0.1-0.1,0.1-0.3,0-0.5c-0.1-0.1-0.3-0.1-0.5,0c-0.1,0.1-0.1,0.3,0,0.5
									C96.3,133.3,96.5,133.4,96.7,133.2z"/>
								<path class="st4" d="M104.2,134.2c0.1-0.1,0.1-0.3,0-0.5c-0.1-0.1-0.3-0.1-0.5,0c-0.1,0.1-0.1,0.3,0,0.5
									C103.8,134.3,104,134.4,104.2,134.2z"/>
								<path class="st4" d="M97.9,136.7c0.1-0.1,0.1-0.3,0-0.5c-0.1-0.1-0.3-0.1-0.5,0c-0.1,0.1-0.1,0.3,0,0.5
									C97.5,136.8,97.7,136.8,97.9,136.7z"/>
								<path class="st4" d="M105.6,136c0.1-0.1,0.1-0.3,0-0.5c-0.1-0.1-0.3-0.1-0.5,0c-0.1,0.1-0.1,0.3,0,0.5
									C105.2,136.1,105.4,136.1,105.6,136z"/>
								<path class="st4" d="M98.4,132.1c0.1-0.1,0.1-0.3,0-0.5s-0.3-0.1-0.5,0c-0.1,0.1-0.1,0.3,0,0.5S98.3,132.2,98.4,132.1z"/>
								<path class="st4" d="M103.4,131.4c0.1-0.1,0.1-0.3,0-0.5c-0.1-0.1-0.3-0.1-0.5,0c-0.1,0.1-0.1,0.3,0,0.5
									C103.1,131.6,103.3,131.6,103.4,131.4z"/>
								<circle class="st4" cx="104.6" cy="131.8" r="0.3"/>
							</g>
						</g>
						<g>
							<g>
								<path class="st4" d="M99.4,133.6c-0.1,0.2,0,0.4,0.1,0.4c0.2,0.1,0.4,0,0.4-0.1c0.1-0.2,0-0.4-0.1-0.4
									C99.7,133.3,99.5,133.4,99.4,133.6z"/>
								<path class="st4" d="M99,132.2c-0.1,0.2,0,0.4,0.1,0.4c0.2,0.1,0.4,0,0.4-0.1c0.1-0.2,0-0.4-0.1-0.4
									C99.3,132,99.1,132,99,132.2z"/>
								<path class="st4" d="M96.5,130.5c-0.1,0.2,0,0.4,0.1,0.4c0.2,0.1,0.4,0,0.4-0.1c0.1-0.2,0-0.4-0.1-0.4
									C96.8,130.3,96.6,130.3,96.5,130.5z"/>
								<path class="st4" d="M97,132.5c-0.1,0.2,0,0.4,0.1,0.4c0.2,0.1,0.4,0,0.4-0.1c0.1-0.2,0-0.4-0.1-0.4
									C97.3,132.3,97.1,132.3,97,132.5z"/>
								<path class="st4" d="M98.3,129.7c-0.1,0.2,0,0.4,0.1,0.4c0.2,0.1,0.4,0,0.4-0.1c0.1-0.2,0-0.4-0.1-0.4
									C98.5,129.5,98.3,129.6,98.3,129.7z"/>
								<path class="st4" d="M97.8,135.2c-0.1,0.2,0,0.4,0.1,0.4c0.2,0.1,0.4,0,0.4-0.1c0.1-0.2,0-0.4-0.1-0.4
									C98.1,135,97.9,135.1,97.8,135.2z"/>
								<path class="st4" d="M95.4,130.7c-0.1,0.2,0,0.4,0.1,0.4c0.2,0.1,0.4,0,0.4-0.1c0.1-0.2,0-0.4-0.1-0.4
									C95.7,130.5,95.5,130.5,95.4,130.7z"/>
								<path class="st4" d="M100.4,131.6c-0.1,0.2,0,0.4,0.1,0.4c0.2,0.1,0.4,0,0.4-0.1c0.1-0.2,0-0.4-0.1-0.4
									C100.7,131.4,100.5,131.4,100.4,131.6z"/>
								<path class="st4" d="M95.4,133.4c-0.1,0.2,0,0.4,0.1,0.4s0.4,0,0.4-0.1c0.1-0.2,0-0.4-0.1-0.4
									C95.7,133.1,95.5,133.2,95.4,133.4z"/>
							</g>
							<g>
								<circle class="st4" cx="94.9" cy="134.5" r="0.3"/>
								<path class="st4" d="M94.9,136.1c-0.2-0.1-0.4,0-0.4,0.1c-0.1,0.2,0,0.4,0.1,0.4c0.2,0.1,0.4,0,0.4-0.1
									S95.1,136.2,94.9,136.1z"/>
								<path class="st4" d="M96.4,133.9c-0.2-0.1-0.4,0-0.4,0.1c-0.1,0.2,0,0.4,0.1,0.4c0.2,0.1,0.4,0,0.4-0.1
									C96.6,134.1,96.6,133.9,96.4,133.9z"/>
								<path class="st4" d="M100.5,129.8c-0.2-0.1-0.4,0-0.4,0.1c-0.1,0.2,0,0.4,0.1,0.4c0.2,0.1,0.4,0,0.4-0.1
									C100.8,130.1,100.7,129.9,100.5,129.8z"/>
								<circle class="st4" cx="97.9" cy="131.6" r="0.3"/>
								<path class="st4" d="M96.1,131.8c-0.2-0.1-0.4,0-0.4,0.1c-0.1,0.2,0,0.4,0.1,0.4c0.2,0.1,0.4,0,0.4-0.1
									S96.3,131.9,96.1,131.8z"/>
								<path class="st4" d="M98.9,133.1c-0.2-0.1-0.4,0-0.4,0.1c-0.1,0.2,0,0.4,0.1,0.4c0.2,0.1,0.4,0,0.4-0.1
									C99.1,133.4,99,133.2,98.9,133.1z"/>
								<path class="st4" d="M93.4,132.7c-0.2-0.1-0.4,0-0.4,0.1c-0.1,0.2,0,0.4,0.1,0.4c0.2,0.1,0.4,0,0.4-0.1
									C93.6,132.9,93.5,132.7,93.4,132.7z"/>
								<path class="st4" d="M98.7,136.4c-0.2-0.1-0.4,0-0.4,0.1c-0.1,0.2,0,0.4,0.1,0.4c0.2,0.1,0.4,0,0.4-0.1
									C98.9,136.7,98.8,136.5,98.7,136.4z"/>
								<path class="st4" d="M97,129.1c-0.2-0.1-0.4,0-0.4,0.1s0,0.4,0.1,0.4c0.2,0.1,0.4,0,0.4-0.1C97.2,129.4,97.1,129.2,97,129.1
									z"/>
								<path class="st4" d="M101.5,134.1c-0.2-0.1-0.4,0-0.4,0.1s0,0.4,0.1,0.4c0.2,0.1,0.4,0,0.4-0.1
									C101.7,134.4,101.6,134.2,101.5,134.1z"/>
								<path class="st4" d="M98.1,127.1c-0.2-0.1-0.4,0-0.4,0.1c-0.1,0.2,0,0.4,0.1,0.4c0.2,0.1,0.4,0,0.4-0.1
									C98.4,127.4,98.3,127.2,98.1,127.1z"/>
								<path class="st4" d="M97,135.2c-0.2-0.1-0.4,0-0.4,0.1c-0.1,0.2,0,0.4,0.1,0.4c0.2,0.1,0.4,0,0.4-0.1
									C97.2,135.5,97.2,135.3,97,135.2z"/>
								<path class="st4" d="M94.6,130.7c-0.2-0.1-0.4,0-0.4,0.1c-0.1,0.2,0,0.4,0.1,0.4c0.2,0.1,0.4,0,0.4-0.1
									C94.8,131,94.8,130.8,94.6,130.7z"/>
								<circle class="st4" cx="94.6" cy="129.5" r="0.3"/>
							</g>
						</g>
						<g>
							<g>
								<path class="st4" d="M96.7,131.6c-0.1,0.2,0,0.4,0.2,0.4c0.2,0.1,0.4,0,0.4-0.2c0.1-0.2,0-0.4-0.2-0.4
									C97,131.3,96.8,131.4,96.7,131.6z"/>
								<path class="st4" d="M96.3,130.2c-0.1,0.2,0,0.4,0.2,0.4c0.2,0.1,0.4,0,0.4-0.2c0.1-0.2,0-0.4-0.2-0.4
									C96.5,130,96.3,130.1,96.3,130.2z"/>
								<path class="st4" d="M93.6,128.8c-0.1,0.2,0,0.4,0.2,0.4c0.2,0.1,0.4,0,0.4-0.2s0-0.4-0.2-0.4
									C93.9,128.5,93.7,128.6,93.6,128.8z"/>
								<path class="st4" d="M94.3,130.7c-0.1,0.2,0,0.4,0.2,0.4c0.2,0.1,0.4,0,0.4-0.2c0.1-0.2,0-0.4-0.2-0.4
									C94.5,130.5,94.3,130.6,94.3,130.7z"/>
								<path class="st4" d="M95.3,127.9c-0.1,0.2,0,0.4,0.2,0.4c0.2,0.1,0.4,0,0.4-0.2c0.1-0.2,0-0.4-0.2-0.4
									C95.5,127.6,95.4,127.7,95.3,127.9z"/>
								<path class="st4" d="M95.3,133.4c-0.1,0.2,0,0.4,0.2,0.4c0.2,0.1,0.4,0,0.4-0.2c0.1-0.2,0-0.4-0.2-0.4
									C95.6,133.1,95.4,133.2,95.3,133.4z"/>
								<path class="st4" d="M92.5,129.1c-0.1,0.2,0,0.4,0.2,0.4c0.2,0.1,0.4,0,0.4-0.2s0-0.4-0.2-0.4
									C92.8,128.8,92.6,128.9,92.5,129.1z"/>
								<path class="st4" d="M97.6,129.5c-0.1,0.2,0,0.4,0.2,0.4c0.2,0.1,0.4,0,0.4-0.2c0.1-0.2,0-0.4-0.2-0.4
									C97.8,129.3,97.6,129.4,97.6,129.5z"/>
								<path class="st4" d="M92.7,131.7c-0.1,0.2,0,0.4,0.2,0.4c0.2,0.1,0.4,0,0.4-0.2c0.1-0.2,0-0.4-0.2-0.4
									C93,131.5,92.8,131.5,92.7,131.7z"/>
							</g>
							<g>
								<circle class="st4" cx="92.3" cy="132.9" r="0.3"/>
								<path class="st4" d="M92.5,134.5c-0.2-0.1-0.4,0-0.4,0.2c-0.1,0.2,0,0.4,0.2,0.4c0.2,0.1,0.4,0,0.4-0.2
									C92.7,134.7,92.6,134.5,92.5,134.5z"/>
								<path class="st4" d="M93.8,132.1c-0.2-0.1-0.4,0-0.4,0.2s0,0.4,0.2,0.4c0.2,0.1,0.4,0,0.4-0.2S94,132.2,93.8,132.1z"/>
								<path class="st4" d="M97.6,127.7c-0.2-0.1-0.4,0-0.4,0.2c-0.1,0.2,0,0.4,0.2,0.4c0.2,0.1,0.4,0,0.4-0.2
									C97.8,128,97.7,127.8,97.6,127.7z"/>
								<circle class="st4" cx="95.1" cy="129.8" r="0.3"/>
								<path class="st4" d="M93.3,130.1c-0.2-0.1-0.4,0-0.4,0.2c-0.1,0.2,0,0.4,0.2,0.4c0.2,0.1,0.4,0,0.4-0.2
									C93.6,130.4,93.5,130.2,93.3,130.1z"/>
								<path class="st4" d="M96.2,131.1c-0.2-0.1-0.4,0-0.4,0.2s0,0.4,0.2,0.4c0.2,0.1,0.4,0,0.4-0.2S96.3,131.2,96.2,131.1z"/>
								<path class="st4" d="M90.6,131.2c-0.2-0.1-0.4,0-0.4,0.2c-0.1,0.2,0,0.4,0.2,0.4c0.2,0.1,0.4,0,0.4-0.2
									S90.8,131.3,90.6,131.2z"/>
								<path class="st4" d="M96.2,134.5c-0.2-0.1-0.4,0-0.4,0.2s0,0.4,0.2,0.4c0.2,0.1,0.4,0,0.4-0.2
									C96.5,134.8,96.4,134.6,96.2,134.5z"/>
								<path class="st4" d="M94,127.3c-0.2-0.1-0.4,0-0.4,0.2c-0.1,0.2,0,0.4,0.2,0.4c0.2,0.1,0.4,0,0.4-0.2
									C94.2,127.6,94.1,127.4,94,127.3z"/>
								<path class="st4" d="M98.8,132c-0.2-0.1-0.4,0-0.4,0.2c-0.1,0.2,0,0.4,0.2,0.4c0.2,0.1,0.4,0,0.4-0.2
									C99.1,132.2,99,132,98.8,132z"/>
								<path class="st4" d="M94.9,125.3c-0.2-0.1-0.4,0-0.4,0.2c-0.1,0.2,0,0.4,0.2,0.4c0.2,0.1,0.4,0,0.4-0.2
									C95.2,125.6,95.1,125.4,94.9,125.3z"/>
								<path class="st4" d="M94.5,133.4c-0.2-0.1-0.4,0-0.4,0.2c-0.1,0.2,0,0.4,0.2,0.4c0.2,0.1,0.4,0,0.4-0.2
									C94.7,133.7,94.7,133.5,94.5,133.4z"/>
								<path class="st4" d="M91.7,129.2c-0.2-0.1-0.4,0-0.4,0.2c-0.1,0.2,0,0.4,0.2,0.4c0.2,0.1,0.4,0,0.4-0.2
									C92,129.4,91.9,129.2,91.7,129.2z"/>
								<circle class="st4" cx="91.6" cy="128" r="0.3"/>
							</g>
						</g>
						<g>
							<g>
								<path class="st4" d="M90.7,132.5c-0.2-0.1-0.4,0-0.4,0.2c-0.1,0.2,0,0.4,0.2,0.4c0.2,0.1,0.4,0,0.4-0.2
									C90.9,132.8,90.8,132.6,90.7,132.5z"/>
								<path class="st4" d="M92,132.1c-0.2-0.1-0.4,0-0.4,0.2c-0.1,0.2,0,0.4,0.2,0.4c0.2,0.1,0.4,0,0.4-0.2
									C92.3,132.3,92.2,132.1,92,132.1z"/>
								<path class="st4" d="M93.5,129.4c-0.2-0.1-0.4,0-0.4,0.2c-0.1,0.2,0,0.4,0.2,0.4c0.2,0.1,0.4,0,0.4-0.2
									C93.7,129.7,93.7,129.5,93.5,129.4z"/>
								<path class="st4" d="M91.5,130.1c-0.2-0.1-0.4,0-0.4,0.2c-0.1,0.2,0,0.4,0.2,0.4c0.2,0.1,0.4,0,0.4-0.2
									C91.8,130.3,91.7,130.1,91.5,130.1z"/>
								<path class="st4" d="M94.4,131.1c-0.2-0.1-0.4,0-0.4,0.2c-0.1,0.2,0,0.4,0.2,0.4c0.2,0.1,0.4,0,0.4-0.2
									C94.6,131.4,94.6,131.2,94.4,131.1z"/>
								<path class="st4" d="M88.9,131.1c-0.2-0.1-0.4,0-0.4,0.2c-0.1,0.2,0,0.4,0.2,0.4c0.2,0.1,0.4,0,0.4-0.2
									C89.1,131.4,89,131.2,88.9,131.1z"/>
								<path class="st4" d="M93.2,128.3c-0.2-0.1-0.4,0-0.4,0.2c-0.1,0.2,0,0.4,0.2,0.4c0.2,0.1,0.4,0,0.4-0.2
									C93.5,128.6,93.4,128.4,93.2,128.3z"/>
								<path class="st4" d="M92.7,133.4c-0.2-0.1-0.4,0-0.4,0.2c-0.1,0.2,0,0.4,0.2,0.4c0.2,0.1,0.4,0,0.4-0.2
									C92.9,133.6,92.9,133.5,92.7,133.4z"/>
								<path class="st4" d="M90.6,128.5c-0.2-0.1-0.4,0-0.4,0.2s0,0.4,0.2,0.4c0.2,0.1,0.4,0,0.4-0.2S90.8,128.6,90.6,128.5z"/>
							</g>
							<g>
								<circle class="st4" cx="89.4" cy="128.1" r="0.3"/>
								<path class="st4" d="M87.8,128.2c0.1-0.2,0-0.4-0.2-0.4c-0.2-0.1-0.4,0-0.4,0.2c-0.1,0.2,0,0.4,0.2,0.4
									C87.6,128.5,87.8,128.4,87.8,128.2z"/>
								<path class="st4" d="M90.1,129.6c0.1-0.2,0-0.4-0.2-0.4c-0.2-0.1-0.4,0-0.4,0.2c-0.1,0.2,0,0.4,0.2,0.4
									C89.9,129.8,90.1,129.7,90.1,129.6z"/>
								<path class="st4" d="M94.5,133.4c0.1-0.2,0-0.4-0.2-0.4c-0.2-0.1-0.4,0-0.4,0.2c-0.1,0.2,0,0.4,0.2,0.4
									C94.2,133.6,94.4,133.6,94.5,133.4z"/>
								<circle class="st4" cx="92.5" cy="130.9" r="0.3"/>
								<path class="st4" d="M92.1,129.1c0.1-0.2,0-0.4-0.2-0.4c-0.2-0.1-0.4,0-0.4,0.2c-0.1,0.2,0,0.4,0.2,0.4
									C91.9,129.4,92.1,129.3,92.1,129.1z"/>
								<path class="st4" d="M91.1,131.9c0.1-0.2,0-0.4-0.2-0.4c-0.2-0.1-0.4,0-0.4,0.2c-0.1,0.2,0,0.4,0.2,0.4
									C90.8,132.2,91,132.1,91.1,131.9z"/>
								<path class="st4" d="M91.1,126.4c0.1-0.2,0-0.4-0.2-0.4c-0.2-0.1-0.4,0-0.4,0.2c-0.1,0.2,0,0.4,0.2,0.4
									C90.9,126.7,91,126.6,91.1,126.4z"/>
								<path class="st4" d="M87.7,132c0.1-0.2,0-0.4-0.2-0.4c-0.2-0.1-0.4,0-0.4,0.2c-0.1,0.2,0,0.4,0.2,0.4
									C87.5,132.2,87.7,132.2,87.7,132z"/>
								<path class="st4" d="M94.9,129.8c0.1-0.2,0-0.4-0.2-0.4c-0.2-0.1-0.4,0-0.4,0.2c-0.1,0.2,0,0.4,0.2,0.4
									C94.7,130,94.9,130,94.9,129.8z"/>
								<path class="st4" d="M90.3,134.6c0.1-0.2,0-0.4-0.2-0.4c-0.2-0.1-0.4,0-0.4,0.2c-0.1,0.2,0,0.4,0.2,0.4
									C90,134.9,90.2,134.8,90.3,134.6z"/>
								<path class="st4" d="M97,130.8c0.1-0.2,0-0.4-0.2-0.4c-0.2-0.1-0.4,0-0.4,0.2c-0.1,0.2,0,0.4,0.2,0.4
									C96.7,131,96.9,131,97,130.8z"/>
								<path class="st4" d="M88.8,130.3c0.1-0.2,0-0.4-0.2-0.4c-0.2-0.1-0.4,0-0.4,0.2c-0.1,0.2,0,0.4,0.2,0.4
									C88.6,130.5,88.8,130.4,88.8,130.3z"/>
								<path class="st4" d="M93.1,127.6c0.1-0.2,0-0.4-0.2-0.4c-0.2-0.1-0.4,0-0.4,0.2c-0.1,0.2,0,0.4,0.2,0.4
									C92.9,127.8,93.1,127.7,93.1,127.6z"/>
								<circle class="st4" cx="94.3" cy="127.4" r="0.3"/>
							</g>
						</g>
						<g>
							<g>
								<path class="st4" d="M88.7,130.2c-0.2,0-0.3,0.1-0.4,0.3s0.1,0.3,0.3,0.4c0.2,0,0.3-0.1,0.4-0.3
									C89,130.4,88.8,130.3,88.7,130.2z"/>
								<path class="st4" d="M89.8,129.4c-0.2,0-0.3,0.1-0.4,0.3c0,0.2,0.1,0.3,0.3,0.4c0.2,0,0.3-0.1,0.4-0.3
									C90.1,129.6,90,129.5,89.8,129.4z"/>
								<path class="st4" d="M90.6,126.5c-0.2,0-0.3,0.1-0.4,0.3c0,0.2,0.1,0.3,0.3,0.4c0.2,0,0.3-0.1,0.4-0.3
									C90.9,126.7,90.7,126.5,90.6,126.5z"/>
								<path class="st4" d="M88.8,127.6c-0.2,0-0.3,0.1-0.4,0.3c0,0.2,0.1,0.3,0.3,0.4c0.2,0,0.3-0.1,0.4-0.3
									C89.2,127.8,89,127.7,88.8,127.6z"/>
								<path class="st4" d="M91.9,127.9c-0.2,0-0.3,0.1-0.4,0.3c0,0.2,0.1,0.3,0.3,0.4c0.2,0,0.3-0.1,0.4-0.3
									C92.2,128.1,92,127.9,91.9,127.9z"/>
								<path class="st4" d="M86.5,129.3c-0.2,0-0.3,0.1-0.4,0.3c0,0.2,0.1,0.3,0.3,0.4c0.2,0,0.3-0.1,0.4-0.3
									C86.9,129.5,86.7,129.4,86.5,129.3z"/>
								<path class="st4" d="M90,125.5c-0.2,0-0.3,0.1-0.4,0.3c0,0.2,0.1,0.3,0.3,0.4c0.2,0,0.3-0.1,0.4-0.3
									C90.3,125.7,90.2,125.5,90,125.5z"/>
								<path class="st4" d="M90.9,130.5c-0.2,0-0.3,0.1-0.4,0.3c0,0.2,0.1,0.3,0.3,0.4c0.2,0,0.3-0.1,0.4-0.3
									C91.2,130.7,91,130.5,90.9,130.5z"/>
								<path class="st4" d="M87.5,126.4c-0.2,0-0.3,0.1-0.4,0.3c0,0.2,0.1,0.3,0.3,0.4c0.2,0,0.3-0.1,0.4-0.3
									C87.8,126.6,87.7,126.4,87.5,126.4z"/>
							</g>
							<g>
								<circle class="st4" cx="86.2" cy="126.3" r="0.3"/>
								<path class="st4" d="M84.8,126.9c0-0.2-0.1-0.3-0.3-0.4c-0.2,0-0.3,0.1-0.4,0.3c0,0.2,0.1,0.3,0.3,0.4
									C84.6,127.2,84.7,127.1,84.8,126.9z"/>
								<path class="st4" d="M87.4,127.5c0-0.2-0.1-0.3-0.3-0.4c-0.2,0-0.3,0.1-0.4,0.3c0,0.2,0.1,0.3,0.3,0.4
									C87.2,127.8,87.3,127.7,87.4,127.5z"/>
								<path class="st4" d="M92.6,130c0-0.2-0.1-0.3-0.3-0.4c-0.2,0-0.3,0.1-0.4,0.3c0,0.2,0.1,0.3,0.3,0.4
									C92.4,130.3,92.6,130.2,92.6,130z"/>
								<circle class="st4" cx="90" cy="128.2" r="0.3"/>
								<path class="st4" d="M89.2,126.6c0-0.2-0.1-0.3-0.3-0.4c-0.2,0-0.3,0.1-0.4,0.3c0,0.2,0.1,0.3,0.3,0.4
									C89,126.9,89.1,126.7,89.2,126.6z"/>
								<path class="st4" d="M88.9,129.6c0-0.2-0.1-0.3-0.3-0.4c-0.2,0-0.3,0.1-0.4,0.3c0,0.2,0.1,0.3,0.3,0.4
									C88.7,129.9,88.9,129.7,88.9,129.6z"/>
								<path class="st4" d="M87.5,124.3c0-0.2-0.1-0.3-0.3-0.4c-0.2,0-0.3,0.1-0.4,0.3c0,0.2,0.1,0.3,0.3,0.4
									C87.3,124.6,87.4,124.4,87.5,124.3z"/>
								<path class="st4" d="M85.7,130.5c0-0.2-0.1-0.3-0.3-0.4c-0.2,0-0.3,0.1-0.4,0.3c0,0.2,0.1,0.3,0.3,0.4
									C85.5,130.8,85.7,130.7,85.7,130.5z"/>
								<path class="st4" d="M92,126.5c0-0.2-0.1-0.3-0.3-0.4c-0.2,0-0.3,0.1-0.4,0.3c0,0.2,0.1,0.3,0.3,0.4
									C91.9,126.8,92,126.6,92,126.5z"/>
								<path class="st4" d="M88.8,132.4c0-0.2-0.1-0.3-0.3-0.4c-0.2,0-0.3,0.1-0.4,0.3c0,0.2,0.1,0.3,0.3,0.4
									C88.6,132.7,88.8,132.6,88.8,132.4z"/>
								<path class="st4" d="M94.3,126.9c0-0.2-0.1-0.3-0.3-0.4c-0.2,0-0.3,0.1-0.4,0.3c0,0.2,0.1,0.3,0.3,0.4
									C94.1,127.2,94.3,127.1,94.3,126.9z"/>
								<path class="st4" d="M86.3,128.6c0-0.2-0.1-0.3-0.3-0.4c-0.2,0-0.3,0.1-0.4,0.3c0,0.2,0.1,0.3,0.3,0.4
									C86.1,128.9,86.3,128.7,86.3,128.6z"/>
								<path class="st4" d="M89.7,124.8c0-0.2-0.1-0.3-0.3-0.4c-0.2,0-0.3,0.1-0.4,0.3c0,0.2,0.1,0.3,0.3,0.4
									C89.5,125.1,89.7,125,89.7,124.8z"/>
								<circle class="st4" cx="90.8" cy="124.4" r="0.3"/>
							</g>
						</g>
						<g>
							<g>
								<path class="st4" d="M87.4,129.1c-0.1,0.2,0,0.4,0.1,0.4c0.2,0.1,0.4,0,0.4-0.1c0.1-0.2,0-0.4-0.1-0.4
									C87.7,128.9,87.5,128.9,87.4,129.1z"/>
								<path class="st4" d="M87.1,127.7c-0.1,0.2,0,0.4,0.1,0.4c0.2,0.1,0.4,0,0.4-0.1c0.1-0.2,0-0.4-0.1-0.4
									C87.4,127.5,87.2,127.6,87.1,127.7z"/>
								<path class="st4" d="M84.6,126c-0.1,0.2,0,0.4,0.1,0.4c0.2,0.1,0.4,0,0.4-0.1c0.1-0.2,0-0.4-0.1-0.4
									C84.9,125.8,84.7,125.8,84.6,126z"/>
								<path class="st4" d="M85,128c-0.1,0.2,0,0.4,0.1,0.4c0.2,0.1,0.4,0,0.4-0.1c0.1-0.2,0-0.4-0.1-0.4
									C85.3,127.8,85.1,127.8,85,128z"/>
								<path class="st4" d="M86.3,125.3c-0.1,0.2,0,0.4,0.1,0.4c0.2,0.1,0.4,0,0.4-0.1c0.1-0.2,0-0.4-0.1-0.4
									C86.6,125,86.4,125.1,86.3,125.3z"/>
								<path class="st4" d="M85.8,130.8c-0.1,0.2,0,0.4,0.1,0.4c0.2,0.1,0.4,0,0.4-0.1c0.1-0.2,0-0.4-0.1-0.4
									C86.1,130.5,85.9,130.6,85.8,130.8z"/>
								<path class="st4" d="M83.5,126.2c-0.1,0.2,0,0.4,0.1,0.4c0.2,0.1,0.4,0,0.4-0.1c0.1-0.2,0-0.4-0.1-0.4
									C83.8,125.9,83.6,126,83.5,126.2z"/>
								<path class="st4" d="M88.5,127.2c-0.1,0.2,0,0.4,0.1,0.4c0.2,0.1,0.4,0,0.4-0.1c0.1-0.2,0-0.4-0.1-0.4
									C88.7,126.9,88.5,127,88.5,127.2z"/>
								<path class="st4" d="M83.4,128.8c-0.1,0.2,0,0.4,0.1,0.4c0.2,0.1,0.4,0,0.4-0.1s0-0.4-0.1-0.4S83.5,128.7,83.4,128.8z"/>
							</g>
							<g>
								<circle class="st4" cx="82.9" cy="130" r="0.3"/>
								<path class="st4" d="M82.9,131.5c-0.2-0.1-0.4,0-0.4,0.1c-0.1,0.2,0,0.4,0.1,0.4c0.2,0.1,0.4,0,0.4-0.1S83,131.6,82.9,131.5
									z"/>
								<path class="st4" d="M84.4,129.3c-0.2-0.1-0.4,0-0.4,0.1c-0.1,0.2,0,0.4,0.1,0.4c0.2,0.1,0.4,0,0.4-0.1
									C84.6,129.6,84.6,129.4,84.4,129.3z"/>
								<path class="st4" d="M88.6,125.4c-0.2-0.1-0.4,0-0.4,0.1c-0.1,0.2,0,0.4,0.1,0.4c0.2,0.1,0.4,0,0.4-0.1
									C88.8,125.7,88.8,125.5,88.6,125.4z"/>
								<circle class="st4" cx="86" cy="127.1" r="0.3"/>
								<path class="st4" d="M84.1,127.3c-0.2-0.1-0.4,0-0.4,0.1c-0.1,0.2,0,0.4,0.1,0.4c0.2,0.1,0.4,0,0.4-0.1
									C84.4,127.6,84.3,127.4,84.1,127.3z"/>
								<path class="st4" d="M86.9,128.6c-0.2-0.1-0.4,0-0.4,0.1c-0.1,0.2,0,0.4,0.1,0.4c0.2,0.1,0.4,0,0.4-0.1
									C87.1,128.9,87,128.7,86.9,128.6z"/>
								<path class="st4" d="M81.4,128.1c-0.2-0.1-0.4,0-0.4,0.1c-0.1,0.2,0,0.4,0.1,0.4c0.2,0.1,0.4,0,0.4-0.1
									C81.6,128.4,81.5,128.2,81.4,128.1z"/>
								<path class="st4" d="M86.6,132c-0.2-0.1-0.4,0-0.4,0.1c-0.1,0.2,0,0.4,0.1,0.4c0.2,0.1,0.4,0,0.4-0.1
									C86.8,132.3,86.8,132.1,86.6,132z"/>
								<path class="st4" d="M85.1,124.6c-0.2-0.1-0.4,0-0.4,0.1c-0.1,0.2,0,0.4,0.1,0.4c0.2,0.1,0.4,0,0.4-0.1
									C85.3,124.9,85.2,124.7,85.1,124.6z"/>
								<path class="st4" d="M89.5,129.7c-0.2-0.1-0.4,0-0.4,0.1c-0.1,0.2,0,0.4,0.1,0.4c0.2,0.1,0.4,0,0.4-0.1
									C89.7,130,89.6,129.8,89.5,129.7z"/>
								<path class="st4" d="M86.3,122.7c-0.2-0.1-0.4,0-0.4,0.1c-0.1,0.2,0,0.4,0.1,0.4c0.2,0.1,0.4,0,0.4-0.1
									C86.5,122.9,86.4,122.7,86.3,122.7z"/>
								<path class="st4" d="M85,130.7c-0.2-0.1-0.4,0-0.4,0.1c-0.1,0.2,0,0.4,0.1,0.4c0.2,0.1,0.4,0,0.4-0.1
									C85.2,131,85.1,130.8,85,130.7z"/>
								<path class="st4" d="M82.7,126.2c-0.2-0.1-0.4,0-0.4,0.1c-0.1,0.2,0,0.4,0.1,0.4c0.2,0.1,0.4,0,0.4-0.1
									C82.9,126.5,82.8,126.3,82.7,126.2z"/>
								<circle class="st4" cx="82.7" cy="125" r="0.3"/>
							</g>
						</g>
						<g>
							<g>
								<path class="st4" d="M82.3,128c-0.2-0.1-0.4,0-0.4,0.2c-0.1,0.2,0,0.4,0.2,0.4c0.2,0.1,0.4,0,0.4-0.2
									C82.5,128.3,82.4,128.1,82.3,128z"/>
								<path class="st4" d="M83.6,127.5c-0.2-0.1-0.4,0-0.4,0.2c-0.1,0.2,0,0.4,0.2,0.4c0.2,0.1,0.4,0,0.4-0.2
									C83.8,127.7,83.7,127.5,83.6,127.5z"/>
								<path class="st4" d="M84.8,124.7c-0.2-0.1-0.4,0-0.4,0.2c-0.1,0.2,0,0.4,0.2,0.4c0.2,0.1,0.4,0,0.4-0.2
									C85.1,124.9,85,124.7,84.8,124.7z"/>
								<path class="st4" d="M82.9,125.5c-0.2-0.1-0.4,0-0.4,0.2c-0.1,0.2,0,0.4,0.2,0.4s0.4,0,0.4-0.2
									C83.2,125.8,83.1,125.6,82.9,125.5z"/>
								<path class="st4" d="M85.9,126.3c-0.2-0.1-0.4,0-0.4,0.2c-0.1,0.2,0,0.4,0.2,0.4c0.2,0.1,0.4,0,0.4-0.2
									C86.1,126.5,86,126.3,85.9,126.3z"/>
								<path class="st4" d="M80.4,126.8c-0.2-0.1-0.4,0-0.4,0.2c-0.1,0.2,0,0.4,0.2,0.4c0.2,0.1,0.4,0,0.4-0.2
									C80.6,127,80.5,126.8,80.4,126.8z"/>
								<path class="st4" d="M84.5,123.6c-0.2-0.1-0.4,0-0.4,0.2c-0.1,0.2,0,0.4,0.2,0.4c0.2,0.1,0.4,0,0.4-0.2
									C84.7,123.9,84.6,123.7,84.5,123.6z"/>
								<path class="st4" d="M84.4,128.7c-0.2-0.1-0.4,0-0.4,0.2c-0.1,0.2,0,0.4,0.2,0.4c0.2,0.1,0.4,0,0.4-0.2
									C84.6,129,84.6,128.8,84.4,128.7z"/>
								<path class="st4" d="M81.8,124.1c-0.2-0.1-0.4,0-0.4,0.2c-0.1,0.2,0,0.4,0.2,0.4c0.2,0.1,0.4,0,0.4-0.2
									C82.1,124.3,82,124.1,81.8,124.1z"/>
							</g>
							<g>
								<circle class="st4" cx="80.6" cy="123.7" r="0.3"/>
								<path class="st4" d="M79.1,124c0.1-0.2,0-0.4-0.2-0.4c-0.2-0.1-0.4,0-0.4,0.2c-0.1,0.2,0,0.4,0.2,0.4
									C78.8,124.3,79,124.2,79.1,124z"/>
								<path class="st4" d="M81.5,125.1c0.1-0.2,0-0.4-0.2-0.4c-0.2-0.1-0.4,0-0.4,0.2c-0.1,0.2,0,0.4,0.2,0.4
									C81.2,125.4,81.4,125.3,81.5,125.1z"/>
								<path class="st4" d="M86.2,128.6c0.1-0.2,0-0.4-0.2-0.4c-0.2-0.1-0.4,0-0.4,0.2c-0.1,0.2,0,0.4,0.2,0.4
									C85.9,128.8,86.1,128.7,86.2,128.6z"/>
								<circle class="st4" cx="84" cy="126.3" r="0.3"/>
								<path class="st4" d="M83.4,124.5c0.1-0.2,0-0.4-0.2-0.4c-0.2-0.1-0.4,0-0.4,0.2c-0.1,0.2,0,0.4,0.2,0.4
									C83.2,124.8,83.4,124.7,83.4,124.5z"/>
								<path class="st4" d="M82.7,127.4c0.1-0.2,0-0.4-0.2-0.4c-0.2-0.1-0.4,0-0.4,0.2c-0.1,0.2,0,0.4,0.2,0.4
									C82.4,127.7,82.6,127.6,82.7,127.4z"/>
								<path class="st4" d="M82.2,121.9c0.1-0.2,0-0.4-0.2-0.4c-0.2-0.1-0.4,0-0.4,0.2c-0.1,0.2,0,0.4,0.2,0.4
									C81.9,122.2,82.1,122.1,82.2,121.9z"/>
								<path class="st4" d="M79.3,127.8c0.1-0.2,0-0.4-0.2-0.4c-0.2-0.1-0.4,0-0.4,0.2c-0.1,0.2,0,0.4,0.2,0.4
									C79.1,128.1,79.3,128,79.3,127.8z"/>
								<path class="st4" d="M86.3,124.9c0.1-0.2,0-0.4-0.2-0.4c-0.2-0.1-0.4,0-0.4,0.2c-0.1,0.2,0,0.4,0.2,0.4
									C86,125.2,86.2,125.1,86.3,124.9z"/>
								<path class="st4" d="M82.1,130.2c0.1-0.2,0-0.4-0.2-0.4c-0.2-0.1-0.4,0-0.4,0.2c-0.1,0.2,0,0.4,0.2,0.4
									C81.8,130.4,82,130.4,82.1,130.2z"/>
								<path class="st4" d="M88.4,125.7c0.1-0.2,0-0.4-0.2-0.4c-0.2-0.1-0.4,0-0.4,0.2c-0.1,0.2,0,0.4,0.2,0.4
									C88.2,126,88.3,125.9,88.4,125.7z"/>
								<path class="st4" d="M80.2,126c0.1-0.2,0-0.4-0.2-0.4c-0.2-0.1-0.4,0-0.4,0.2c-0.1,0.2,0,0.4,0.2,0.4
									C80,126.2,80.2,126.1,80.2,126z"/>
								<path class="st4" d="M84.3,122.9c0.1-0.2,0-0.4-0.2-0.4c-0.2-0.1-0.4,0-0.4,0.2c-0.1,0.2,0,0.4,0.2,0.4
									C84,123.1,84.2,123,84.3,122.9z"/>
								<circle class="st4" cx="85.5" cy="122.6" r="0.3"/>
							</g>
						</g>
						<g>
							<g>
								<path class="st4" d="M80,127.4c-0.2,0-0.3,0.2-0.3,0.4c0,0.2,0.2,0.3,0.4,0.3c0.2,0,0.3-0.2,0.3-0.4
									C80.4,127.5,80.2,127.4,80,127.4z"/>
								<path class="st4" d="M80.9,126.3c-0.2,0-0.3,0.2-0.3,0.4c0,0.2,0.2,0.3,0.4,0.3c0.2,0,0.3-0.2,0.3-0.4
									C81.3,126.4,81.1,126.3,80.9,126.3z"/>
								<path class="st4" d="M80.9,123.3c-0.2,0-0.3,0.2-0.3,0.4c0,0.2,0.2,0.3,0.4,0.3c0.2,0,0.3-0.2,0.3-0.4
									C81.3,123.4,81.1,123.3,80.9,123.3z"/>
								<path class="st4" d="M79.5,124.8c-0.2,0-0.3,0.2-0.3,0.4c0,0.2,0.2,0.3,0.4,0.3c0.2,0,0.3-0.2,0.3-0.4
									C79.9,124.9,79.7,124.8,79.5,124.8z"/>
								<path class="st4" d="M82.5,124.3c-0.2,0-0.3,0.2-0.3,0.4c0,0.2,0.2,0.3,0.4,0.3c0.2,0,0.3-0.2,0.3-0.4
									C82.9,124.4,82.7,124.3,82.5,124.3z"/>
								<path class="st4" d="M77.7,127c-0.2,0-0.3,0.2-0.3,0.4c0,0.2,0.2,0.3,0.4,0.3c0.2,0,0.3-0.2,0.3-0.4
									C78.1,127.1,77.9,127,77.7,127z"/>
								<path class="st4" d="M80.2,122.5c-0.2,0-0.3,0.2-0.3,0.4c0,0.2,0.2,0.3,0.4,0.3c0.2,0,0.3-0.2,0.3-0.4
									C80.5,122.6,80.3,122.5,80.2,122.5z"/>
								<path class="st4" d="M82.2,127.1c-0.2,0-0.3,0.2-0.3,0.4c0,0.2,0.2,0.3,0.4,0.3c0.2,0,0.3-0.2,0.3-0.4
									C82.5,127.2,82.4,127.1,82.2,127.1z"/>
								<path class="st4" d="M77.9,124c-0.2,0-0.3,0.2-0.3,0.4c0,0.2,0.2,0.3,0.4,0.3c0.2,0,0.3-0.2,0.3-0.4
									C78.3,124.1,78.1,123.9,77.9,124z"/>
							</g>
							<g>
								<circle class="st4" cx="76.7" cy="124.2" r="0.3"/>
								<path class="st4" d="M75.4,125.1c0-0.2-0.2-0.3-0.4-0.3c-0.2,0-0.3,0.2-0.3,0.4c0,0.2,0.2,0.3,0.4,0.3
									C75.3,125.4,75.4,125.3,75.4,125.1z"/>
								<path class="st4" d="M78.1,125.1c0-0.2-0.2-0.3-0.4-0.3c-0.2,0-0.3,0.2-0.3,0.4c0,0.2,0.2,0.3,0.4,0.3
									C78,125.4,78.1,125.3,78.1,125.1z"/>
								<path class="st4" d="M83.8,126.2c0-0.2-0.2-0.3-0.4-0.3c-0.2,0-0.3,0.2-0.3,0.4c0,0.2,0.2,0.3,0.4,0.3
									C83.7,126.6,83.8,126.4,83.8,126.2z"/>
								<circle class="st4" cx="80.8" cy="125.1" r="0.3"/>
								<path class="st4" d="M79.6,123.7c0-0.2-0.2-0.3-0.4-0.3c-0.2,0-0.3,0.2-0.3,0.4c0,0.2,0.2,0.3,0.4,0.3
									C79.5,124,79.6,123.9,79.6,123.7z"/>
								<path class="st4" d="M80.1,126.7c0-0.2-0.2-0.3-0.4-0.3c-0.2,0-0.3,0.2-0.3,0.4c0,0.2,0.2,0.3,0.4,0.3
									C80,127,80.1,126.8,80.1,126.7z"/>
								<path class="st4" d="M77.4,121.9c0-0.2-0.2-0.3-0.4-0.3c-0.2,0-0.3,0.2-0.3,0.4c0,0.2,0.2,0.3,0.4,0.3
									C77.3,122.2,77.4,122.1,77.4,121.9z"/>
								<path class="st4" d="M77.2,128.4c0-0.2-0.2-0.3-0.4-0.3c-0.2,0-0.3,0.2-0.3,0.4c0,0.2,0.2,0.3,0.4,0.3
									C77.1,128.7,77.2,128.6,77.2,128.4z"/>
								<path class="st4" d="M82.4,122.9c0-0.2-0.2-0.3-0.4-0.3c-0.2,0-0.3,0.2-0.3,0.4c0,0.2,0.2,0.3,0.4,0.3
									C82.3,123.2,82.4,123.1,82.4,122.9z"/>
								<path class="st4" d="M80.7,129.4c0-0.2-0.2-0.3-0.4-0.3c-0.2,0-0.3,0.2-0.3,0.4c0,0.2,0.2,0.3,0.4,0.3
									C80.6,129.8,80.7,129.6,80.7,129.4z"/>
								<path class="st4" d="M84.6,122.7c0-0.2-0.2-0.3-0.4-0.3c-0.2,0-0.3,0.2-0.3,0.4c0,0.2,0.2,0.3,0.4,0.3
									C84.5,123.1,84.6,122.9,84.6,122.7z"/>
								<path class="st4" d="M77.3,126.3c0-0.2-0.2-0.3-0.4-0.3c-0.2,0-0.3,0.2-0.3,0.4c0,0.2,0.2,0.3,0.4,0.3
									S77.3,126.5,77.3,126.3z"/>
								<path class="st4" d="M79.7,121.8c0-0.2-0.2-0.3-0.4-0.3c-0.2,0-0.3,0.2-0.3,0.4c0,0.2,0.2,0.3,0.4,0.3
									C79.6,122.2,79.7,122,79.7,121.8z"/>
								<circle class="st4" cx="80.7" cy="121.1" r="0.3"/>
							</g>
						</g>
						<g>
							<g>
								<path class="st4" d="M78.5,125.3c-0.1,0.1-0.1,0.4,0.1,0.5c0.1,0.1,0.4,0.1,0.5-0.1c0.1-0.1,0.1-0.4-0.1-0.5
									C78.8,125.1,78.6,125.1,78.5,125.3z"/>
								<path class="st4" d="M78.4,123.9c-0.1,0.1-0.1,0.4,0.1,0.5c0.1,0.1,0.4,0.1,0.5-0.1c0.1-0.1,0.1-0.4-0.1-0.5
									C78.7,123.7,78.5,123.7,78.4,123.9z"/>
								<path class="st4" d="M76.1,121.8c-0.1,0.1-0.1,0.4,0.1,0.5c0.1,0.1,0.4,0.1,0.5-0.1c0.1-0.1,0.1-0.4-0.1-0.5
									C76.5,121.6,76.3,121.6,76.1,121.8z"/>
								<path class="st4" d="M76.3,123.8c-0.1,0.1-0.1,0.4,0.1,0.5c0.1,0.1,0.4,0.1,0.5-0.1c0.1-0.1,0.1-0.4-0.1-0.5
									C76.6,123.7,76.4,123.7,76.3,123.8z"/>
								<path class="st4" d="M78,121.3c-0.1,0.1-0.1,0.4,0.1,0.5c0.1,0.1,0.4,0.1,0.5-0.1c0.1-0.1,0.1-0.4-0.1-0.5
									C78.3,121.1,78.1,121.2,78,121.3z"/>
								<path class="st4" d="M76.7,126.7c-0.1,0.1-0.1,0.4,0.1,0.5c0.1,0.1,0.4,0.1,0.5-0.1c0.1-0.1,0.1-0.4-0.1-0.5
									C77,126.5,76.8,126.5,76.7,126.7z"/>
								<path class="st4" d="M75,121.8c-0.1,0.1-0.1,0.4,0.1,0.5c0.1,0.1,0.4,0.1,0.5-0.1c0.1-0.1,0.1-0.4-0.1-0.5
									C75.4,121.6,75.2,121.7,75,121.8z"/>
								<path class="st4" d="M79.8,123.5c-0.1,0.1-0.1,0.4,0.1,0.5c0.1,0.1,0.4,0.1,0.5-0.1c0.1-0.1,0.1-0.4-0.1-0.5
									C80.1,123.3,79.9,123.3,79.8,123.5z"/>
								<path class="st4" d="M74.6,124.4c-0.1,0.1-0.1,0.4,0.1,0.5s0.4,0.1,0.5-0.1c0.1-0.1,0.1-0.4-0.1-0.5
									C74.9,124.2,74.7,124.3,74.6,124.4z"/>
							</g>
							<g>
								<circle class="st4" cx="73.9" cy="125.5" r="0.3"/>
								<path class="st4" d="M73.7,127c-0.1-0.1-0.4-0.1-0.5,0.1c-0.1,0.1-0.1,0.4,0.1,0.5c0.1,0.1,0.4,0.1,0.5-0.1
									C73.8,127.3,73.8,127.1,73.7,127z"/>
								<path class="st4" d="M75.5,125.1c-0.1-0.1-0.4-0.1-0.5,0.1c-0.1,0.1-0.1,0.4,0.1,0.5c0.1,0.1,0.4,0.1,0.5-0.1
									C75.7,125.4,75.7,125.2,75.5,125.1z"/>
								<path class="st4" d="M80.2,121.7c-0.1-0.1-0.4-0.1-0.5,0.1c-0.1,0.1-0.1,0.4,0.1,0.5c0.1,0.1,0.4,0.1,0.5-0.1
									C80.4,122.1,80.4,121.9,80.2,121.7z"/>
								<circle class="st4" cx="77.4" cy="123.1" r="0.3"/>
								<path class="st4" d="M75.5,123c-0.1-0.1-0.4-0.1-0.5,0.1c-0.1,0.1-0.1,0.4,0.1,0.5c0.1,0.1,0.4,0.1,0.5-0.1
									C75.7,123.4,75.7,123.1,75.5,123z"/>
								<path class="st4" d="M78.1,124.7c-0.1-0.1-0.4-0.1-0.5,0.1c-0.1,0.1-0.1,0.4,0.1,0.5c0.1,0.1,0.4,0.1,0.5-0.1
									C78.2,125,78.2,124.8,78.1,124.7z"/>
								<path class="st4" d="M72.7,123.4c-0.1-0.1-0.4-0.1-0.5,0.1c-0.1,0.1-0.1,0.4,0.1,0.5c0.1,0.1,0.4,0.1,0.5-0.1
									C72.9,123.7,72.8,123.5,72.7,123.4z"/>
								<path class="st4" d="M77.3,128c-0.1-0.1-0.4-0.1-0.5,0.1c-0.1,0.1-0.1,0.4,0.1,0.5c0.1,0.1,0.4,0.1,0.5-0.1
									C77.5,128.3,77.5,128.1,77.3,128z"/>
								<path class="st4" d="M76.9,120.5c-0.1-0.1-0.4-0.1-0.5,0.1c-0.1,0.1-0.1,0.4,0.1,0.5c0.1,0.1,0.4,0.1,0.5-0.1
									C77,120.8,77,120.6,76.9,120.5z"/>
								<path class="st4" d="M80.5,126.2c-0.1-0.1-0.4-0.1-0.5,0.1c-0.1,0.1-0.1,0.4,0.1,0.5c0.1,0.1,0.4,0.1,0.5-0.1
									C80.6,126.5,80.6,126.3,80.5,126.2z"/>
								<path class="st4" d="M78.3,118.7c-0.1-0.1-0.4-0.1-0.5,0.1c-0.1,0.1-0.1,0.4,0.1,0.5c0.1,0.1,0.4,0.1,0.5-0.1
									C78.5,119,78.5,118.8,78.3,118.7z"/>
								<path class="st4" d="M75.9,126.5c-0.1-0.1-0.4-0.1-0.5,0.1c-0.1,0.1-0.1,0.4,0.1,0.5c0.1,0.1,0.4,0.1,0.5-0.1
									C76.1,126.8,76,126.6,75.9,126.5z"/>
								<path class="st4" d="M74.3,121.7c-0.1-0.1-0.4-0.1-0.5,0.1c-0.1,0.1-0.1,0.4,0.1,0.5c0.1,0.1,0.4,0.1,0.5-0.1
									C74.4,122,74.4,121.8,74.3,121.7z"/>
								<circle class="st4" cx="74.4" cy="120.5" r="0.3"/>
							</g>
						</g>
						<g>
							<g>
								<path class="st4" d="M74.4,126c-0.2,0.1-0.2,0.3-0.1,0.5c0.1,0.2,0.3,0.2,0.5,0.1c0.2-0.1,0.2-0.3,0.1-0.5
									C74.8,125.9,74.6,125.9,74.4,126z"/>
								<path class="st4" d="M74.9,124.6c-0.2,0.1-0.2,0.3-0.1,0.5c0.1,0.2,0.3,0.2,0.5,0.1c0.2-0.1,0.2-0.3,0.1-0.5
									C75.2,124.6,75,124.5,74.9,124.6z"/>
								<path class="st4" d="M73.6,121.9c-0.2,0.1-0.2,0.3-0.1,0.5c0.1,0.2,0.3,0.2,0.5,0.1s0.2-0.3,0.1-0.5
									C74,121.8,73.8,121.8,73.6,121.9z"/>
								<path class="st4" d="M73,123.8c-0.2,0.1-0.2,0.3-0.1,0.5c0.1,0.2,0.3,0.2,0.5,0.1c0.2-0.1,0.2-0.3,0.1-0.5
									C73.3,123.8,73.1,123.7,73,123.8z"/>
								<path class="st4" d="M75.5,122.2c-0.2,0.1-0.2,0.3-0.1,0.5c0.1,0.2,0.3,0.2,0.5,0.1c0.2-0.1,0.2-0.3,0.1-0.5
									C75.9,122.1,75.7,122.1,75.5,122.2z"/>
								<path class="st4" d="M72.2,126.6c-0.2,0.1-0.2,0.3-0.1,0.5c0.1,0.2,0.3,0.2,0.5,0.1c0.2-0.1,0.2-0.3,0.1-0.5
									C72.6,126.5,72.4,126.5,72.2,126.6z"/>
								<path class="st4" d="M72.6,121.4c-0.2,0.1-0.2,0.3-0.1,0.5c0.1,0.2,0.3,0.2,0.5,0.1c0.2-0.1,0.2-0.3,0.1-0.5
									C73,121.4,72.8,121.3,72.6,121.4z"/>
								<path class="st4" d="M76.3,124.9c-0.2,0.1-0.2,0.3-0.1,0.5c0.1,0.2,0.3,0.2,0.5,0.1c0.2-0.1,0.2-0.3,0.1-0.5
									C76.7,124.8,76.5,124.8,76.3,124.9z"/>
								<path class="st4" d="M71.2,123.7c-0.2,0.1-0.2,0.3-0.1,0.5c0.1,0.2,0.3,0.2,0.5,0.1c0.2-0.1,0.2-0.3,0.1-0.5
									C71.5,123.6,71.3,123.6,71.2,123.7z"/>
							</g>
							<g>
								<circle class="st4" cx="70.1" cy="124.3" r="0.3"/>
								<path class="st4" d="M69.3,125.7c-0.1-0.2-0.3-0.2-0.5-0.1c-0.2,0.1-0.2,0.3-0.1,0.5c0.1,0.2,0.3,0.2,0.5,0.1
									C69.3,126,69.4,125.8,69.3,125.7z"/>
								<path class="st4" d="M71.7,124.6c-0.1-0.2-0.3-0.2-0.5-0.1c-0.2,0.1-0.2,0.3-0.1,0.5c0.1,0.2,0.3,0.2,0.5,0.1
									C71.8,125,71.8,124.8,71.7,124.6z"/>
								<path class="st4" d="M77.4,123.4c-0.1-0.2-0.3-0.2-0.5-0.1c-0.2,0.1-0.2,0.3-0.1,0.5c0.1,0.2,0.3,0.2,0.5,0.1
									C77.4,123.8,77.5,123.6,77.4,123.4z"/>
								<circle class="st4" cx="74.2" cy="123.6" r="0.3"/>
								<path class="st4" d="M72.6,122.8c-0.1-0.2-0.3-0.2-0.5-0.1c-0.2,0.1-0.2,0.3-0.1,0.5c0.1,0.2,0.3,0.2,0.5,0.1
									C72.6,123.1,72.7,122.9,72.6,122.8z"/>
								<path class="st4" d="M74.2,125.3c-0.1-0.2-0.3-0.2-0.5-0.1c-0.2,0.1-0.2,0.3-0.1,0.5c0.1,0.2,0.3,0.2,0.5,0.1
									C74.3,125.6,74.3,125.4,74.2,125.3z"/>
								<path class="st4" d="M69.8,122c-0.1-0.2-0.3-0.2-0.5-0.1c-0.2,0.1-0.2,0.3-0.1,0.5c0.1,0.2,0.3,0.2,0.5,0.1
									C69.9,122.3,69.9,122.1,69.8,122z"/>
								<path class="st4" d="M72.2,128c-0.1-0.2-0.3-0.2-0.5-0.1c-0.2,0.1-0.2,0.3-0.1,0.5c0.1,0.2,0.3,0.2,0.5,0.1
									C72.3,128.4,72.3,128.2,72.2,128z"/>
								<path class="st4" d="M74.8,120.9c-0.1-0.2-0.3-0.2-0.5-0.1c-0.2,0.1-0.2,0.3-0.1,0.5c0.1,0.2,0.3,0.2,0.5,0.1
									C74.8,121.3,74.9,121.1,74.8,120.9z"/>
								<path class="st4" d="M75.9,127.6c-0.1-0.2-0.3-0.2-0.5-0.1c-0.2,0.1-0.2,0.3-0.1,0.5c0.1,0.2,0.3,0.2,0.5,0.1
									C75.9,127.9,75.9,127.7,75.9,127.6z"/>
								<path class="st4" d="M76.8,119.9c-0.1-0.2-0.3-0.2-0.5-0.1c-0.2,0.1-0.2,0.3-0.1,0.5c0.1,0.2,0.3,0.2,0.5,0.1
									C76.9,120.3,76.9,120.1,76.8,119.9z"/>
								<path class="st4" d="M71.5,126.1c-0.1-0.2-0.3-0.2-0.5-0.1s-0.2,0.3-0.1,0.5c0.1,0.2,0.3,0.2,0.5,0.1S71.6,126.3,71.5,126.1
									z"/>
								<path class="st4" d="M71.9,121c-0.1-0.2-0.3-0.2-0.5-0.1c-0.2,0.1-0.2,0.3-0.1,0.5c0.1,0.2,0.3,0.2,0.5,0.1
									C72,121.4,72,121.2,71.9,121z"/>
								<circle class="st4" cx="72.6" cy="120" r="0.3"/>
							</g>
						</g>
					</g>
				</g>
			</g>
			<path class="st9" d="M115.2,143.9l12.9-26c1-2.2,0-4.8-2.2-5.8c-4.9-2.2-10.6,0-12.9,4.8l-12.6,24.5L80.9,141
				c0,0,1.4-9.9-11.1-15.2"/>
			<path class="st9" d="M131.6,142.7l15.2-24.7c1.2-2.1,0.5-4.8-1.7-5.9c-4.7-2.6-8.8,0.5-11.6,5.1l-18.3,26.7"/>
		</g>
		<g>
			
				<ellipse transform="matrix(0.2298 -0.9732 0.9732 0.2298 -8.4713 175.7814)" class="st19" cx="106.8" cy="93.2" rx="7.6" ry="7.6"/>
			<path class="st19" d="M103.1,93.1c0,0,1.5,2.6,2.6,2.8c1.1,0.2,5-5.9,5-5.9"/>
		</g>
	</g>
</g>
</svg>
