<?xml version="1.0" encoding="utf-8"?>
<!-- Generator: Adobe Illustrator 27.8.1, SVG Export Plug-In . SVG Version: 6.00 Build 0)  -->
<svg version="1.1" id="Livello_1" xmlns="http://www.w3.org/2000/svg" xmlns:xlink="http://www.w3.org/1999/xlink" x="0px" y="0px"
	 viewBox="0 0 200 200" style="enable-background:new 0 0 200 200;" xml:space="preserve">
<style type="text/css">
	.st0{fill:#71BFEC;}
	.st1{fill:none;stroke:#000000;stroke-linecap:round;stroke-linejoin:round;stroke-miterlimit:10;}
	.st2{fill:#F4F4F4;}
	.st3{fill:#CDD5D7;}
	.st4{fill:#080717;}
	.st5{fill:#EFEFEF;stroke:#0F0F0F;}
	.st6{fill:none;stroke:#0F0F0F;}
	.st7{fill:none;stroke:#1D1D1B;stroke-width:2;}
	.st8{fill:#1D1D1B;}
	.st9{fill:#FFFFFF;stroke:#000000;stroke-linecap:round;stroke-linejoin:round;stroke-miterlimit:10;}
	.st10{fill:#0095D5;}
	.st11{fill:#FFFFFF;}
	.st12{fill:#F8B234;}
	.st13{clip-path:url(#SVGID_00000052812989572397931850000017965786458024061346_);}
	.st14{fill:none;stroke:#F4F4F4;stroke-miterlimit:10;}
	.st15{fill:none;stroke:#FFFFFF;}
	.st16{fill:none;stroke:#FFFFFF;stroke-width:0.5;}
	.st17{fill:none;stroke:#FFFFFF;stroke-linejoin:round;stroke-miterlimit:10;}
	.st18{clip-path:url(#SVGID_00000140734590391904354870000010625506776146746250_);}
	.st19{fill:none;stroke:#1D1D1B;stroke-miterlimit:10;}
	.st20{opacity:0.4;}
	.st21{fill:none;stroke:#080717;stroke-width:12;}
	.st22{fill:#0095D5;stroke:#000000;stroke-linecap:round;stroke-linejoin:round;stroke-miterlimit:10;}
	.st23{fill:none;stroke:#080717;stroke-linecap:round;stroke-linejoin:round;stroke-miterlimit:10;}
	.st24{fill:#21CFA9;}
	.st25{clip-path:url(#SVGID_00000072959837110759692350000006026451271500551305_);}
	.st26{fill:#0086DA;}
	.st27{clip-path:url(#SVGID_00000026131023690497940760000004630832368486067632_);}
	.st28{clip-path:url(#SVGID_00000148627097724543004610000000647012877917951643_);}
	.st29{opacity:0.4;clip-path:url(#SVGID_00000018937716018877852950000014357958070547289774_);}
	.st30{clip-path:url(#SVGID_00000018937716018877852950000014357958070547289774_);}
	.st31{clip-path:url(#SVGID_00000118366025494004129580000014235122999984815249_);}
</style>
<circle class="st0" cx="100" cy="100" r="99"/>
<g>
	<defs>
		<circle id="SVGID_00000144336076295915915940000017914620322150568611_" cx="100" cy="100" r="99"/>
	</defs>
	<clipPath id="SVGID_00000024682413703381614030000006529295416377286297_">
		<use xlink:href="#SVGID_00000144336076295915915940000017914620322150568611_"  style="overflow:visible;"/>
	</clipPath>
	<g style="clip-path:url(#SVGID_00000024682413703381614030000006529295416377286297_);">
		<g>
			<polyline class="st7" points="84.1,72.1 81.5,74.8 84.1,77.4 			"/>
		</g>
		<g>
			<polyline class="st7" points="89.2,72.1 91.8,74.8 89.2,77.4 			"/>
		</g>
		<g>
			<path class="st9" d="M78.3,71.8l24.3-30.1c0,0,5,0.8,4.4,3.5c-0.5,2.7-5.4,17-5.4,17S77.7,74.5,78.3,71.8z"/>
			<path class="st9" d="M136.3,70.9c0.4-3.2-30-11.7-30-11.7s-11.7,1.6-16.2,3.9c-4.5,2.3-8.6,4.6-11.9,8.7
				C75,75.9,66.5,85.4,66.5,85.4l41.2-9.5l13.4-0.9C121.1,75,135.7,76.9,136.3,70.9z"/>
			<path class="st9" d="M90.2,125.9c-8.1,3.3-41.9,8-60.2,11.8V94.9l30-2c0,0,3.6-6.8,12.1-13.1c2.8-2.1,6.2-4.2,10.1-6
				c8.3-3.7,15.2-6.2,19.8-7.8c3.9-1.3,8.3-0.6,11.6,2l22.2,16.9c0,0-0.8,7.8-7.1,5.9c-2.7-0.8-20.5-8.6-20.5-8.6s-12.9,4-14.6,11.7
				c-1.7,7.7,4.2,5.7,7.6,5.2"/>
		</g>
		<g>
				
			<g>





				<path class="st26" d="M146.4,114.5c0.3-0.1,0.6,0,0.7,0.3l0.1,0.3c0.1,0.3,0,0.6-0.3,0.7l-1.6,0.6c0,0,0,0,0,0l-16.6,6.2
					c-0.3,0.1-0.6,0-0.7-0.3l-0.1-0.3c-0.1-0.3,0-0.6,0.3-0.7l8.4-3.1c0,0,0,0,0,0L146.4,114.5L146.4,114.5z M126.2,117.5
					c-0.1-0.3,0-0.6,0.3-0.7l9.9-3.7c0.3-0.1,0.6,0,0.7,0.3l0.1,0.3c0.1,0.3,0,0.6-0.3,0.7l-9.9,3.7c-0.3,0.1-0.6,0-0.7-0.3
					L126.2,117.5L126.2,117.5z M134.7,105.4l-12.5,4.7c-0.3,0.1-0.4,0.4-0.3,0.7l6.3,16.9l23.4-8.7l-3-8.4c-0.1-0.3-0.4-0.3-0.5-0.3
					l-7.4,2.8c-1.1,0.4-2.3-0.1-2.7-1.2l-2.2-6C135.4,105.3,134.9,105.3,134.7,105.4"/>
				<path class="st26" d="M145.9,109.4c0.7-0.3,0.1-0.5,0.1-0.5l-8.3-3c0,0-0.5-0.2-0.4,0.3l1.9,5.2c0.1,0.3,0.4,0.4,0.7,0.3
					L145.9,109.4z"/>
				<path class="st26" d="M162.5,104c-1.7-4.6-6.3-7.2-11-6.6c-3.5-7.2-11.9-10.7-19.6-7.9c-5.5,2.1-9.2,6.9-10,12.4
					c-1.4-0.5-3-0.5-4.6,0c-3.5,1.3-5.3,5.2-4,8.7c0.1,0.3,0.3,0.7,0.4,1c-3.7,2.6-5.3,7.4-3.6,11.9c1.7,4.5,6.2,7.4,10.7,6.8l0,0
					l2.2-0.8c0,0,0.1,0,0.1,0s0.1,0,0.1,0l3.5-1.3l-6.3-16.9c-0.4-1.1,0.1-2.3,1.2-2.7l12.5-4.7c0.9-0.3,2.1-0.3,3,0l10.4,3.6
					c0.9,0.3,1.9,1.2,2.2,2.1l3.3,8.8l3.4-1.3c0,0,0.1,0,0.1,0c0,0,0.1,0,0.1,0l2.1-0.9l0,0C162.6,113.7,164.2,108.5,162.5,104"/>
			</g>
		</g>
		<path class="st9" d="M100.9,99.3c2.2-0.6,16-3.5,20.1-3.5c2,0,5.2,0.6,7.7,1.7c-0.9-0.5,3.2,1.3,0.9,0.4c2.1,1.1,3.5,2.6,2.6,4.3
			c-1.9,3.8-11.5,4.5-17.2,8.6c-5.7,4.2-14,12.9-29,16.4"/>
		<g>
			<path class="st11" d="M48.5,131.1c0,0,45.5-2.1,66.2-22.4"/>
			<g>
				<g>
					<g>
						<path d="M112.6,109.9c-0.2-0.1-0.4,0-0.4,0.2c-0.1,0.2,0,0.4,0.2,0.4c0.2,0.1,0.4,0,0.4-0.2
							C112.9,110.2,112.8,110,112.6,109.9z"/>
						<path d="M113.9,109.4c-0.2-0.1-0.4,0-0.4,0.2c-0.1,0.2,0,0.4,0.2,0.4c0.2,0.1,0.4,0,0.4-0.2
							C114.2,109.6,114.1,109.4,113.9,109.4z"/>
						<path d="M115.2,106.6c-0.2-0.1-0.4,0-0.4,0.2c-0.1,0.2,0,0.4,0.2,0.4c0.2,0.1,0.4,0,0.4-0.2
							C115.5,106.9,115.4,106.7,115.2,106.6z"/>
						<path d="M113.3,107.4c-0.2-0.1-0.4,0-0.4,0.2c-0.1,0.2,0,0.4,0.2,0.4c0.2,0.1,0.4,0,0.4-0.2
							C113.6,107.7,113.5,107.5,113.3,107.4z"/>
						<path d="M116.2,108.3c-0.2-0.1-0.4,0-0.4,0.2c-0.1,0.2,0,0.4,0.2,0.4c0.2,0.1,0.4,0,0.4-0.2
							C116.5,108.5,116.4,108.3,116.2,108.3z"/>
						<path d="M110.7,108.7c-0.2-0.1-0.4,0-0.4,0.2c-0.1,0.2,0,0.4,0.2,0.4c0.2,0.1,0.4,0,0.4-0.2
							C111,108.9,110.9,108.7,110.7,108.7z"/>
						<path d="M114.9,105.6c-0.2-0.1-0.4,0-0.4,0.2c-0.1,0.2,0,0.4,0.2,0.4c0.2,0.1,0.4,0,0.4-0.2
							C115.1,105.8,115,105.6,114.9,105.6z"/>
						<path d="M114.7,110.6c-0.2-0.1-0.4,0-0.4,0.2c-0.1,0.2,0,0.4,0.2,0.4c0.2,0.1,0.4,0,0.4-0.2
							C115,110.9,114.9,110.7,114.7,110.6z"/>
						<path d="M112.2,106c-0.2-0.1-0.4,0-0.4,0.2c-0.1,0.2,0,0.4,0.2,0.4c0.2,0.1,0.4,0,0.4-0.2C112.5,106.2,112.4,106,112.2,106z"
							/>
					</g>
					<g>
						<circle cx="111" cy="105.6" r="0.3"/>
						<path d="M109.5,105.9c0.1-0.2,0-0.4-0.2-0.4c-0.2-0.1-0.4,0-0.4,0.2c-0.1,0.2,0,0.4,0.2,0.4
							C109.2,106.1,109.4,106,109.5,105.9z"/>
						<path d="M111.9,107c0.1-0.2,0-0.4-0.2-0.4c-0.2-0.1-0.4,0-0.4,0.2c-0.1,0.2,0,0.4,0.2,0.4C111.6,107.3,111.8,107.2,111.9,107z
							"/>
						<path d="M116.5,110.5c0.1-0.2,0-0.4-0.2-0.4c-0.2-0.1-0.4,0-0.4,0.2c-0.1,0.2,0,0.4,0.2,0.4
							C116.3,110.8,116.4,110.7,116.5,110.5z"/>
						<circle cx="114.3" cy="108.2" r="0.3"/>
						<path d="M113.8,106.4c0.1-0.2,0-0.4-0.2-0.4c-0.2-0.1-0.4,0-0.4,0.2c-0.1,0.2,0,0.4,0.2,0.4
							C113.6,106.7,113.8,106.6,113.8,106.4z"/>
						<path d="M113,109.3c0.1-0.2,0-0.4-0.2-0.4c-0.2-0.1-0.4,0-0.4,0.2c-0.1,0.2,0,0.4,0.2,0.4C112.8,109.6,112.9,109.5,113,109.3z
							"/>
						<path d="M112.6,103.8c0.1-0.2,0-0.4-0.2-0.4c-0.2-0.1-0.4,0-0.4,0.2c-0.1,0.2,0,0.4,0.2,0.4
							C112.4,104.1,112.5,104,112.6,103.8z"/>
						<path d="M109.6,109.6c0.1-0.2,0-0.4-0.2-0.4c-0.2-0.1-0.4,0-0.4,0.2c-0.1,0.2,0,0.4,0.2,0.4
							C109.4,109.9,109.6,109.8,109.6,109.6z"/>
						<path d="M116.7,106.9c0.1-0.2,0-0.4-0.2-0.4c-0.2-0.1-0.4,0-0.4,0.2c-0.1,0.2,0,0.4,0.2,0.4
							C116.4,107.2,116.6,107.1,116.7,106.9z"/>
						<path d="M112.4,112.1c0.1-0.2,0-0.4-0.2-0.4c-0.2-0.1-0.4,0-0.4,0.2c-0.1,0.2,0,0.4,0.2,0.4
							C112.1,112.3,112.3,112.3,112.4,112.1z"/>
						<path d="M118.8,107.8c0.1-0.2,0-0.4-0.2-0.4c-0.2-0.1-0.4,0-0.4,0.2c-0.1,0.2,0,0.4,0.2,0.4
							C118.5,108,118.7,107.9,118.8,107.8z"/>
						<path d="M110.6,107.8c0.1-0.2,0-0.4-0.2-0.4c-0.2-0.1-0.4,0-0.4,0.2c-0.1,0.2,0,0.4,0.2,0.4
							C110.4,108.1,110.6,108,110.6,107.8z"/>
						<path d="M114.7,104.8c0.1-0.2,0-0.4-0.2-0.4c-0.2-0.1-0.4,0-0.4,0.2c-0.1,0.2,0,0.4,0.2,0.4
							C114.5,105.1,114.6,105,114.7,104.8z"/>
						<circle cx="115.9" cy="104.6" r="0.3"/>
					</g>
				</g>
				<g>
					<g>
						<path d="M112.6,110.3c0,0.2,0.1,0.4,0.3,0.4c0.2,0,0.4-0.1,0.4-0.3c0-0.2-0.1-0.4-0.3-0.4C112.8,110,112.7,110.1,112.6,110.3z
							"/>
						<path d="M111.9,109.1c0,0.2,0.1,0.4,0.3,0.4c0.2,0,0.4-0.1,0.4-0.3c0-0.2-0.1-0.4-0.3-0.4
							C112.1,108.8,111.9,108.9,111.9,109.1z"/>
						<path d="M109,108.2c0,0.2,0.1,0.4,0.3,0.4c0.2,0,0.4-0.1,0.4-0.3s-0.1-0.4-0.3-0.4C109.2,107.9,109,108,109,108.2z"/>
						<path d="M110,109.9c0,0.2,0.1,0.4,0.3,0.4c0.2,0,0.4-0.1,0.4-0.3c0-0.2-0.1-0.4-0.3-0.4C110.2,109.7,110.1,109.8,110,109.9z"
							/>
						<path d="M110.5,107c0,0.2,0.1,0.4,0.3,0.4c0.2,0,0.4-0.1,0.4-0.3c0-0.2-0.1-0.4-0.3-0.4C110.7,106.7,110.5,106.8,110.5,107z"
							/>
						<path d="M111.6,112.4c0,0.2,0.1,0.4,0.3,0.4c0.2,0,0.4-0.1,0.4-0.3c0-0.2-0.1-0.4-0.3-0.4
							C111.8,112.1,111.6,112.2,111.6,112.4z"/>
						<path d="M108,108.6c0,0.2,0.1,0.4,0.3,0.4c0.2,0,0.4-0.1,0.4-0.3c0-0.2-0.1-0.4-0.3-0.4C108.2,108.3,108,108.5,108,108.6z"/>
						<path d="M113,108.1c0,0.2,0.1,0.4,0.3,0.4c0.2,0,0.4-0.1,0.4-0.3c0-0.2-0.1-0.4-0.3-0.4C113.3,107.8,113.1,108,113,108.1z"/>
						<path d="M108.7,111.2c0,0.2,0.1,0.4,0.3,0.4c0.2,0,0.4-0.1,0.4-0.3c0-0.2-0.1-0.4-0.3-0.4S108.8,111,108.7,111.2z"/>
					</g>
					<g>
						<circle cx="108.5" cy="112.5" r="0.3"/>
						<path d="M109,114c-0.2,0-0.4,0.1-0.4,0.3c0,0.2,0.1,0.4,0.3,0.4c0.2,0,0.4-0.1,0.4-0.3C109.3,114.2,109.2,114,109,114z"/>
						<path d="M109.8,111.4c-0.2,0-0.4,0.1-0.4,0.3c0,0.2,0.1,0.4,0.3,0.4c0.2,0,0.4-0.1,0.4-0.3C110.1,111.6,110,111.5,109.8,111.4
							z"/>
						<path d="M112.7,106.4c-0.2,0-0.4,0.1-0.4,0.3c0,0.2,0.1,0.4,0.3,0.4c0.2,0,0.4-0.1,0.4-0.3C113,106.6,112.9,106.4,112.7,106.4
							z"/>
						<circle cx="110.7" cy="108.8" r="0.3"/>
						<path d="M109,109.6c-0.2,0-0.4,0.1-0.4,0.3c0,0.2,0.1,0.4,0.3,0.4c0.2,0,0.4-0.1,0.4-0.3C109.3,109.8,109.2,109.6,109,109.6z"
							/>
						<path d="M112,110c-0.2,0-0.4,0.1-0.4,0.3c0,0.2,0.1,0.4,0.3,0.4c0.2,0,0.4-0.1,0.4-0.3C112.3,110.2,112.1,110,112,110z"/>
						<path d="M106.6,111.1c-0.2,0-0.4,0.1-0.4,0.3c0,0.2,0.1,0.4,0.3,0.4c0.2,0,0.4-0.1,0.4-0.3
							C106.9,111.3,106.7,111.1,106.6,111.1z"/>
						<path d="M112.7,113.3c-0.2,0-0.4,0.1-0.4,0.3c0,0.2,0.1,0.4,0.3,0.4c0.2,0,0.4-0.1,0.4-0.3C113,113.5,112.9,113.3,112.7,113.3
							z"/>
						<path d="M109.1,106.7c-0.2,0-0.4,0.1-0.4,0.3c0,0.2,0.1,0.4,0.3,0.4c0.2,0,0.4-0.1,0.4-0.3
							C109.4,106.9,109.2,106.7,109.1,106.7z"/>
						<path d="M114.8,110.3c-0.2,0-0.4,0.1-0.4,0.3c0,0.2,0.1,0.4,0.3,0.4c0.2,0,0.4-0.1,0.4-0.3
							C115.1,110.5,114.9,110.3,114.8,110.3z"/>
						<path d="M109.7,104.5c-0.2,0-0.4,0.1-0.4,0.3c0,0.2,0.1,0.4,0.3,0.4c0.2,0,0.4-0.1,0.4-0.3
							C109.9,104.7,109.8,104.5,109.7,104.5z"/>
						<path d="M110.8,112.6c-0.2,0-0.4,0.1-0.4,0.3c0,0.2,0.1,0.4,0.3,0.4c0.2,0,0.4-0.1,0.4-0.3C111.1,112.8,111,112.6,110.8,112.6
							z"/>
						<path d="M107.2,108.9c-0.2,0-0.4,0.1-0.4,0.3c0,0.2,0.1,0.4,0.3,0.4c0.2,0,0.4-0.1,0.4-0.3
							C107.5,109.1,107.4,108.9,107.2,108.9z"/>
						<circle cx="106.9" cy="107.7" r="0.3"/>
					</g>
				</g>
				<g>
					<g>
						<path d="M108,114.2c-0.2,0-0.4,0.1-0.4,0.3c0,0.2,0.1,0.4,0.3,0.4c0.2,0,0.4-0.1,0.4-0.3C108.3,114.4,108.1,114.2,108,114.2z"
							/>
						<path d="M109.2,113.5c-0.2,0-0.4,0.1-0.4,0.3c0,0.2,0.1,0.4,0.3,0.4c0.2,0,0.4-0.1,0.4-0.3
							C109.5,113.7,109.4,113.5,109.2,113.5z"/>
						<path d="M110.1,110.6c-0.2,0-0.4,0.1-0.4,0.3c0,0.2,0.1,0.4,0.3,0.4c0.2,0,0.4-0.1,0.4-0.3
							C110.4,110.8,110.3,110.6,110.1,110.6z"/>
						<path d="M108.3,111.6c-0.2,0-0.4,0.1-0.4,0.3c0,0.2,0.1,0.4,0.3,0.4s0.4-0.1,0.4-0.3C108.6,111.8,108.5,111.7,108.3,111.6z"/>
						<path d="M111.3,112.1c-0.2,0-0.4,0.1-0.4,0.3c0,0.2,0.1,0.4,0.3,0.4c0.2,0,0.4-0.1,0.4-0.3
							C111.6,112.3,111.5,112.1,111.3,112.1z"/>
						<path d="M105.9,113.1c-0.2,0-0.4,0.1-0.4,0.3c0,0.2,0.1,0.4,0.3,0.4c0.2,0,0.4-0.1,0.4-0.3
							C106.2,113.4,106.1,113.2,105.9,113.1z"/>
						<path d="M109.6,109.6c-0.2,0-0.4,0.1-0.4,0.3c0,0.2,0.1,0.4,0.3,0.4c0.2,0,0.4-0.1,0.4-0.3
							C109.9,109.8,109.8,109.6,109.6,109.6z"/>
						<path d="M110.1,114.6c-0.2,0-0.4,0.1-0.4,0.3c0,0.2,0.1,0.4,0.3,0.4c0.2,0,0.4-0.1,0.4-0.3
							C110.4,114.8,110.3,114.7,110.1,114.6z"/>
						<path d="M107.1,110.3c-0.2,0-0.4,0.1-0.4,0.3c0,0.2,0.1,0.4,0.3,0.4c0.2,0,0.4-0.1,0.4-0.3
							C107.4,110.5,107.3,110.3,107.1,110.3z"/>
					</g>
					<g>
						<circle cx="105.8" cy="110.1" r="0.3"/>
						<path d="M104.3,110.5c0-0.2-0.1-0.4-0.3-0.4c-0.2,0-0.4,0.1-0.4,0.3c0,0.2,0.1,0.4,0.3,0.4
							C104.1,110.8,104.3,110.7,104.3,110.5z"/>
						<path d="M106.9,111.4c0-0.2-0.1-0.4-0.3-0.4c-0.2,0-0.4,0.1-0.4,0.3c0,0.2,0.1,0.4,0.3,0.4
							C106.6,111.7,106.8,111.6,106.9,111.4z"/>
						<path d="M111.9,114.3c0-0.2-0.1-0.4-0.3-0.4c-0.2,0-0.4,0.1-0.4,0.3c0,0.2,0.1,0.4,0.3,0.4
							C111.7,114.6,111.8,114.5,111.9,114.3z"/>
						<circle cx="109.4" cy="112.3" r="0.3"/>
						<path d="M108.7,110.6c0-0.2-0.1-0.4-0.3-0.4c-0.2,0-0.4,0.1-0.4,0.3c0,0.2,0.1,0.4,0.3,0.4
							C108.5,110.8,108.7,110.7,108.7,110.6z"/>
						<path d="M108.3,113.5c0-0.2-0.1-0.4-0.3-0.4c-0.2,0-0.4,0.1-0.4,0.3c0,0.2,0.1,0.4,0.3,0.4
							C108.1,113.8,108.2,113.7,108.3,113.5z"/>
						<path d="M107.2,108.1c0-0.2-0.1-0.4-0.3-0.4c-0.2,0-0.4,0.1-0.4,0.3c0,0.2,0.1,0.4,0.3,0.4C107,108.4,107.2,108.3,107.2,108.1
							z"/>
						<path d="M105,114.3c0-0.2-0.1-0.4-0.3-0.4c-0.2,0-0.4,0.1-0.4,0.3c0,0.2,0.1,0.4,0.3,0.4C104.8,114.6,104.9,114.4,105,114.3z"
							/>
						<path d="M111.6,110.7c0-0.2-0.1-0.4-0.3-0.4c-0.2,0-0.4,0.1-0.4,0.3c0,0.2,0.1,0.4,0.3,0.4C111.4,111,111.6,110.8,111.6,110.7
							z"/>
						<path d="M108,116.3c0-0.2-0.1-0.4-0.3-0.4c-0.2,0-0.4,0.1-0.4,0.3c0,0.2,0.1,0.4,0.3,0.4C107.8,116.6,107.9,116.5,108,116.3z"
							/>
						<path d="M113.8,111.3c0-0.2-0.1-0.4-0.3-0.4c-0.2,0-0.4,0.1-0.4,0.3c0,0.2,0.1,0.4,0.3,0.4
							C113.6,111.5,113.8,111.4,113.8,111.3z"/>
						<path d="M105.7,112.3c0-0.2-0.1-0.4-0.3-0.4c-0.2,0-0.4,0.1-0.4,0.3c0,0.2,0.1,0.4,0.3,0.4
							C105.5,112.6,105.7,112.5,105.7,112.3z"/>
						<path d="M109.4,108.8c0-0.2-0.1-0.4-0.3-0.4c-0.2,0-0.4,0.1-0.4,0.3c0,0.2,0.1,0.4,0.3,0.4C109.2,109.1,109.4,109,109.4,108.8
							z"/>
						<circle cx="110.5" cy="108.5" r="0.3"/>
					</g>
				</g>
				<g>
					<g>
						<path d="M105.5,116.2c-0.2,0-0.4,0.1-0.4,0.3c0,0.2,0.1,0.4,0.3,0.4c0.2,0,0.4-0.1,0.4-0.3
							C105.8,116.4,105.7,116.2,105.5,116.2z"/>
						<path d="M106.7,115.4c-0.2,0-0.4,0.1-0.4,0.3c0,0.2,0.1,0.4,0.3,0.4c0.2,0,0.4-0.1,0.4-0.3C107,115.6,106.9,115.5,106.7,115.4
							z"/>
						<path d="M107.5,112.5c-0.2,0-0.4,0.1-0.4,0.3c0,0.2,0.1,0.4,0.3,0.4s0.4-0.1,0.4-0.3C107.8,112.7,107.7,112.5,107.5,112.5z"/>
						<path d="M105.8,113.6c-0.2,0-0.4,0.1-0.4,0.3c0,0.2,0.1,0.4,0.3,0.4c0.2,0,0.4-0.1,0.4-0.3C106.1,113.8,106,113.6,105.8,113.6
							z"/>
						<path d="M108.8,113.9c-0.2,0-0.4,0.1-0.4,0.3c0,0.2,0.1,0.4,0.3,0.4c0.2,0,0.4-0.1,0.4-0.3C109.1,114.1,109,114,108.8,113.9z"
							/>
						<path d="M103.5,115.3c-0.2,0-0.4,0.1-0.4,0.3c0,0.2,0.1,0.4,0.3,0.4c0.2,0,0.4-0.1,0.4-0.3
							C103.8,115.5,103.6,115.3,103.5,115.3z"/>
						<path d="M107,111.5c-0.2,0-0.4,0.1-0.4,0.3c0,0.2,0.1,0.4,0.3,0.4c0.2,0,0.4-0.1,0.4-0.3C107.3,111.7,107.2,111.6,107,111.5z"
							/>
						<path d="M107.7,116.6c-0.2,0-0.4,0.1-0.4,0.3c0,0.2,0.1,0.4,0.3,0.4c0.2,0,0.4-0.1,0.4-0.3C108,116.7,107.9,116.6,107.7,116.6
							z"/>
						<path d="M104.5,112.4c-0.2,0-0.4,0.1-0.4,0.3s0.1,0.4,0.3,0.4c0.2,0,0.4-0.1,0.4-0.3C104.8,112.6,104.7,112.4,104.5,112.4z"/>
					</g>
					<g>
						<circle cx="103.2" cy="112.2" r="0.3"/>
						<path d="M101.7,112.7c0-0.2-0.1-0.4-0.3-0.4c-0.2,0-0.4,0.1-0.4,0.3c0,0.2,0.1,0.4,0.3,0.4C101.5,113,101.7,112.9,101.7,112.7
							z"/>
						<path d="M104.3,113.5c0-0.2-0.1-0.4-0.3-0.4c-0.2,0-0.4,0.1-0.4,0.3c0,0.2,0.1,0.4,0.3,0.4
							C104.1,113.8,104.3,113.7,104.3,113.5z"/>
						<path d="M109.5,116.1c0-0.2-0.1-0.4-0.3-0.4c-0.2,0-0.4,0.1-0.4,0.3c0,0.2,0.1,0.4,0.3,0.4
							C109.3,116.4,109.4,116.3,109.5,116.1z"/>
						<circle cx="106.9" cy="114.2" r="0.3"/>
						<path d="M106.1,112.5c0-0.2-0.1-0.4-0.3-0.4c-0.2,0-0.4,0.1-0.4,0.3c0,0.2,0.1,0.4,0.3,0.4
							C105.9,112.8,106.1,112.7,106.1,112.5z"/>
						<path d="M105.8,115.5c0-0.2-0.1-0.4-0.3-0.4c-0.2,0-0.4,0.1-0.4,0.3c0,0.2,0.1,0.4,0.3,0.4
							C105.6,115.9,105.8,115.7,105.8,115.5z"/>
						<path d="M104.5,110.2c0-0.2-0.1-0.4-0.3-0.4c-0.2,0-0.4,0.1-0.4,0.3c0,0.2,0.1,0.4,0.3,0.4
							C104.3,110.5,104.5,110.4,104.5,110.2z"/>
						<path d="M102.6,116.4c0-0.2-0.1-0.4-0.3-0.4c-0.2,0-0.4,0.1-0.4,0.3c0,0.2,0.1,0.4,0.3,0.4
							C102.4,116.7,102.5,116.6,102.6,116.4z"/>
						<path d="M109,112.5c0-0.2-0.1-0.4-0.3-0.4c-0.2,0-0.4,0.1-0.4,0.3c0,0.2,0.1,0.4,0.3,0.4C108.8,112.8,109,112.7,109,112.5z"/>
						<path d="M105.7,118.4c0-0.2-0.1-0.4-0.3-0.4c-0.2,0-0.4,0.1-0.4,0.3c0,0.2,0.1,0.4,0.3,0.4
							C105.5,118.7,105.6,118.5,105.7,118.4z"/>
						<path d="M111.2,113c0-0.2-0.1-0.4-0.3-0.4c-0.2,0-0.4,0.1-0.4,0.3c0,0.2,0.1,0.4,0.3,0.4C111,113.3,111.2,113.2,111.2,113z"/>
						<path d="M103.2,114.5c0-0.2-0.1-0.4-0.3-0.4c-0.2,0-0.4,0.1-0.4,0.3c0,0.2,0.1,0.4,0.3,0.4S103.2,114.7,103.2,114.5z"/>
						<path d="M106.7,110.8c0-0.2-0.1-0.4-0.3-0.4c-0.2,0-0.4,0.1-0.4,0.3c0,0.2,0.1,0.4,0.3,0.4C106.5,111.1,106.7,111,106.7,110.8
							z"/>
						<circle cx="107.9" cy="110.4" r="0.3"/>
					</g>
				</g>
				<g>
					<g>
						<path d="M104.5,116.4c-0.1,0.2,0,0.4,0.1,0.5c0.2,0.1,0.4,0,0.5-0.1c0.1-0.2,0-0.4-0.1-0.5
							C104.8,116.2,104.6,116.3,104.5,116.4z"/>
						<path d="M104.2,115c-0.1,0.2,0,0.4,0.1,0.5c0.2,0.1,0.4,0,0.5-0.1c0.1-0.2,0-0.4-0.1-0.5C104.5,114.8,104.3,114.9,104.2,115z"
							/>
						<path d="M101.8,113.2c-0.1,0.2,0,0.4,0.1,0.5c0.2,0.1,0.4,0,0.5-0.1c0.1-0.2,0-0.4-0.1-0.5C102.1,113,101.9,113.1,101.8,113.2
							z"/>
						<path d="M102.2,115.2c-0.1,0.2,0,0.4,0.1,0.5c0.2,0.1,0.4,0,0.5-0.1s0-0.4-0.1-0.5C102.5,115,102.3,115.1,102.2,115.2z"/>
						<path d="M103.6,112.5c-0.1,0.2,0,0.4,0.1,0.5c0.2,0.1,0.4,0,0.5-0.1c0.1-0.2,0-0.4-0.1-0.5
							C103.9,112.3,103.7,112.4,103.6,112.5z"/>
						<path d="M102.9,118c-0.1,0.2,0,0.4,0.1,0.5c0.2,0.1,0.4,0,0.5-0.1c0.1-0.2,0-0.4-0.1-0.5C103.2,117.8,102.9,117.9,102.9,118z"
							/>
						<path d="M100.7,113.3c-0.1,0.2,0,0.4,0.1,0.5c0.2,0.1,0.4,0,0.5-0.1c0.1-0.2,0-0.4-0.1-0.5C101,113.1,100.8,113.2,100.7,113.3
							z"/>
						<path d="M105.6,114.5c-0.1,0.2,0,0.4,0.1,0.5c0.2,0.1,0.4,0,0.5-0.1c0.1-0.2,0-0.4-0.1-0.5
							C105.9,114.3,105.7,114.3,105.6,114.5z"/>
						<path d="M100.5,116c-0.1,0.2,0,0.4,0.1,0.5c0.2,0.1,0.4,0,0.5-0.1c0.1-0.2,0-0.4-0.1-0.5C100.8,115.8,100.6,115.8,100.5,116z"
							/>
					</g>
					<g>
						<circle cx="99.9" cy="117.1" r="0.3"/>
						<path d="M99.9,118.7c-0.2-0.1-0.4,0-0.5,0.1c-0.1,0.2,0,0.4,0.1,0.5c0.2,0.1,0.4,0,0.5-0.1C100.1,119,100,118.8,99.9,118.7z"
							/>
						<path d="M101.5,116.6c-0.2-0.1-0.4,0-0.5,0.1c-0.1,0.2,0,0.4,0.1,0.5c0.2,0.1,0.4,0,0.5-0.1
							C101.7,116.9,101.7,116.7,101.5,116.6z"/>
						<path d="M105.8,112.7c-0.2-0.1-0.4,0-0.5,0.1c-0.1,0.2,0,0.4,0.1,0.5c0.2,0.1,0.4,0,0.5-0.1C106,113,106,112.8,105.8,112.7z"
							/>
						<circle cx="103.1" cy="114.4" r="0.3"/>
						<path d="M101.3,114.5c-0.2-0.1-0.4,0-0.5,0.1c-0.1,0.2,0,0.4,0.1,0.5c0.2,0.1,0.4,0,0.5-0.1
							C101.5,114.8,101.5,114.6,101.3,114.5z"/>
						<path d="M104,115.9c-0.2-0.1-0.4,0-0.5,0.1c-0.1,0.2,0,0.4,0.1,0.5c0.2,0.1,0.4,0,0.5-0.1C104.2,116.2,104.1,116,104,115.9z"
							/>
						<path d="M98.5,115.2c-0.2-0.1-0.4,0-0.5,0.1c-0.1,0.2,0,0.4,0.1,0.5c0.2,0.1,0.4,0,0.5-0.1C98.7,115.5,98.7,115.3,98.5,115.2z
							"/>
						<path d="M103.6,119.3c-0.2-0.1-0.4,0-0.5,0.1c-0.1,0.2,0,0.4,0.1,0.5c0.2,0.1,0.4,0,0.5-0.1
							C103.8,119.6,103.8,119.4,103.6,119.3z"/>
						<path d="M102.3,111.8c-0.2-0.1-0.4,0-0.5,0.1c-0.1,0.2,0,0.4,0.1,0.5c0.2,0.1,0.4,0,0.5-0.1
							C102.5,112.1,102.5,111.9,102.3,111.8z"/>
						<path d="M106.5,117.1c-0.2-0.1-0.4,0-0.5,0.1c-0.1,0.2,0,0.4,0.1,0.5c0.2,0.1,0.4,0,0.5-0.1
							C106.7,117.4,106.7,117.2,106.5,117.1z"/>
						<path d="M103.6,109.9c-0.2-0.1-0.4,0-0.5,0.1c-0.1,0.2,0,0.4,0.1,0.5c0.2,0.1,0.4,0,0.5-0.1
							C103.8,110.2,103.7,110,103.6,109.9z"/>
						<path d="M102,118c-0.2-0.1-0.4,0-0.5,0.1c-0.1,0.2,0,0.4,0.1,0.5c0.2,0.1,0.4,0,0.5-0.1C102.2,118.2,102.2,118,102,118z"/>
						<path d="M99.9,113.3c-0.2-0.1-0.4,0-0.5,0.1c-0.1,0.2,0,0.4,0.1,0.5c0.2,0.1,0.4,0,0.5-0.1C100.1,113.6,100,113.4,99.9,113.3z
							"/>
						<circle cx="99.9" cy="112.1" r="0.3"/>
					</g>
				</g>
				<g>
					<g>
						<path d="M102.4,117.3c0,0.2,0.2,0.3,0.4,0.3c0.2,0,0.3-0.2,0.3-0.4c0-0.2-0.2-0.3-0.4-0.3
							C102.5,116.9,102.3,117.1,102.4,117.3z"/>
						<path d="M101.3,116.3c0,0.2,0.2,0.3,0.4,0.3c0.2,0,0.3-0.2,0.3-0.4c0-0.2-0.2-0.3-0.4-0.3C101.4,116,101.3,116.2,101.3,116.3z
							"/>
						<path d="M98.3,116.3c0,0.2,0.2,0.3,0.4,0.3c0.2,0,0.3-0.2,0.3-0.4c0-0.2-0.2-0.3-0.4-0.3C98.4,116,98.2,116.2,98.3,116.3z"/>
						<path d="M99.8,117.7c0,0.2,0.2,0.3,0.4,0.3c0.2,0,0.3-0.2,0.3-0.4s-0.2-0.3-0.4-0.3C99.9,117.4,99.8,117.5,99.8,117.7z"/>
						<path d="M99.3,114.7c0,0.2,0.2,0.3,0.4,0.3c0.2,0,0.3-0.2,0.3-0.4c0-0.2-0.2-0.3-0.4-0.3C99.4,114.4,99.3,114.5,99.3,114.7z"
							/>
						<path d="M102,119.5c0,0.2,0.2,0.3,0.4,0.3c0.2,0,0.3-0.2,0.3-0.4c0-0.2-0.2-0.3-0.4-0.3C102.1,119.2,102,119.4,102,119.5z"/>
						<path d="M97.5,117.1c0,0.2,0.2,0.3,0.4,0.3c0.2,0,0.3-0.2,0.3-0.4c0-0.2-0.2-0.3-0.4-0.3C97.6,116.7,97.4,116.9,97.5,117.1z"
							/>
						<path d="M102.1,115.1c0,0.2,0.2,0.3,0.4,0.3c0.2,0,0.3-0.2,0.3-0.4c0-0.2-0.2-0.3-0.4-0.3
							C102.2,114.7,102.1,114.9,102.1,115.1z"/>
						<path d="M98.9,119.3c0,0.2,0.2,0.3,0.4,0.3s0.3-0.2,0.3-0.4c0-0.2-0.2-0.3-0.4-0.3C99,119,98.9,119.1,98.9,119.3z"/>
					</g>
					<g>
						<circle cx="99.1" cy="120.6" r="0.3"/>
						<path d="M100,121.9c-0.2,0-0.3,0.2-0.3,0.4c0,0.2,0.2,0.3,0.4,0.3c0.2,0,0.3-0.2,0.3-0.4C100.4,122,100.2,121.8,100,121.9z"/>
						<path d="M100,119.2c-0.2,0-0.3,0.2-0.3,0.4c0,0.2,0.2,0.3,0.4,0.3c0.2,0,0.3-0.2,0.3-0.4C100.4,119.3,100.2,119.2,100,119.2z"
							/>
						<path d="M101.2,113.5c-0.2,0-0.3,0.2-0.3,0.4c0,0.2,0.2,0.3,0.4,0.3c0.2,0,0.3-0.2,0.3-0.4
							C101.6,113.6,101.4,113.5,101.2,113.5z"/>
						<circle cx="100.1" cy="116.5" r="0.3"/>
						<path d="M98.7,117.7c-0.2,0-0.3,0.2-0.3,0.4c0,0.2,0.2,0.3,0.4,0.3c0.2,0,0.3-0.2,0.3-0.4C99,117.8,98.8,117.6,98.7,117.7z"/>
						<path d="M101.7,117.2c-0.2,0-0.3,0.2-0.3,0.4c0,0.2,0.2,0.3,0.4,0.3c0.2,0,0.3-0.2,0.3-0.4C102,117.3,101.8,117.2,101.7,117.2
							z"/>
						<path d="M96.8,119.9c-0.2,0-0.3,0.2-0.3,0.4c0,0.2,0.2,0.3,0.4,0.3c0.2,0,0.3-0.2,0.3-0.4C97.2,120,97,119.8,96.8,119.9z"/>
						<path d="M103.3,120.1c-0.2,0-0.3,0.2-0.3,0.4c0,0.2,0.2,0.3,0.4,0.3c0.2,0,0.3-0.2,0.3-0.4
							C103.7,120.2,103.5,120.1,103.3,120.1z"/>
						<path d="M97.9,114.9c-0.2,0-0.3,0.2-0.3,0.4c0,0.2,0.2,0.3,0.4,0.3c0.2,0,0.3-0.2,0.3-0.4C98.2,115,98.1,114.9,97.9,114.9z"/>
						<path d="M104.4,116.6c-0.2,0-0.3,0.2-0.3,0.4c0,0.2,0.2,0.3,0.4,0.3c0.2,0,0.3-0.2,0.3-0.4
							C104.8,116.7,104.6,116.6,104.4,116.6z"/>
						<path d="M97.8,112.6c-0.2,0-0.3,0.2-0.3,0.4c0,0.2,0.2,0.3,0.4,0.3c0.2,0,0.3-0.2,0.3-0.4C98.1,112.7,98,112.6,97.8,112.6z"/>
						<path d="M101.3,120c-0.2,0-0.3,0.2-0.3,0.4s0.2,0.3,0.4,0.3c0.2,0,0.3-0.2,0.3-0.4C101.6,120.1,101.5,120,101.3,120z"/>
						<path d="M96.8,117.6c-0.2,0-0.3,0.2-0.3,0.4c0,0.2,0.2,0.3,0.4,0.3c0.2,0,0.3-0.2,0.3-0.4C97.2,117.7,97,117.5,96.8,117.6z"/>
						<circle cx="96.1" cy="116.6" r="0.3"/>
					</g>
				</g>
				<g>
					<g>
						<path d="M96.6,120.1c-0.2-0.1-0.4,0-0.4,0.2c-0.1,0.2,0,0.4,0.2,0.4c0.2,0.1,0.4,0,0.4-0.2C96.9,120.3,96.8,120.1,96.6,120.1z
							"/>
						<path d="M98,119.6c-0.2-0.1-0.4,0-0.4,0.2c-0.1,0.2,0,0.4,0.2,0.4c0.2,0.1,0.4,0,0.4-0.2C98.2,119.9,98.2,119.7,98,119.6z"/>
						<path d="M99.5,117c-0.2-0.1-0.4,0-0.4,0.2c-0.1,0.2,0,0.4,0.2,0.4s0.4,0,0.4-0.2C99.8,117.3,99.7,117.1,99.5,117z"/>
						<path d="M97.6,117.6c-0.2-0.1-0.4,0-0.4,0.2c-0.1,0.2,0,0.4,0.2,0.4s0.4,0,0.4-0.2C97.8,117.9,97.7,117.7,97.6,117.6z"/>
						<path d="M100.4,118.7c-0.2-0.1-0.4,0-0.4,0.2c-0.1,0.2,0,0.4,0.2,0.4c0.2,0.1,0.4,0,0.4-0.2
							C100.6,119,100.6,118.8,100.4,118.7z"/>
						<path d="M94.9,118.6c-0.2-0.1-0.4,0-0.4,0.2c-0.1,0.2,0,0.4,0.2,0.4c0.2,0.1,0.4,0,0.4-0.2C95.1,118.9,95,118.7,94.9,118.6z"
							/>
						<path d="M99.3,115.9c-0.2-0.1-0.4,0-0.4,0.2c-0.1,0.2,0,0.4,0.2,0.4c0.2,0.1,0.4,0,0.4-0.2C99.5,116.2,99.4,116,99.3,115.9z"
							/>
						<path d="M98.7,121c-0.2-0.1-0.4,0-0.4,0.2c-0.1,0.2,0,0.4,0.2,0.4c0.2,0.1,0.4,0,0.4-0.2C98.9,121.2,98.8,121,98.7,121z"/>
						<path d="M96.6,116.1c-0.2-0.1-0.4,0-0.4,0.2s0,0.4,0.2,0.4c0.2,0.1,0.4,0,0.4-0.2S96.8,116.2,96.6,116.1z"/>
					</g>
					<g>
						<circle cx="95.4" cy="115.6" r="0.3"/>
						<path d="M93.9,115.7c0.1-0.2,0-0.4-0.2-0.4c-0.2-0.1-0.4,0-0.4,0.2c-0.1,0.2,0,0.4,0.2,0.4C93.6,116,93.8,115.9,93.9,115.7z"
							/>
						<path d="M96.2,117.1c0.1-0.2,0-0.4-0.2-0.4c-0.2-0.1-0.4,0-0.4,0.2c-0.1,0.2,0,0.4,0.2,0.4C95.9,117.4,96.1,117.3,96.2,117.1z
							"/>
						<path d="M100.5,121c0.1-0.2,0-0.4-0.2-0.4c-0.2-0.1-0.4,0-0.4,0.2c-0.1,0.2,0,0.4,0.2,0.4C100.2,121.2,100.4,121.1,100.5,121z
							"/>
						<circle cx="98.5" cy="118.5" r="0.3"/>
						<path d="M98.2,116.7c0.1-0.2,0-0.4-0.2-0.4c-0.2-0.1-0.4,0-0.4,0.2c-0.1,0.2,0,0.4,0.2,0.4C97.9,116.9,98.1,116.8,98.2,116.7z
							"/>
						<path d="M97.1,119.5c0.1-0.2,0-0.4-0.2-0.4c-0.2-0.1-0.4,0-0.4,0.2c-0.1,0.2,0,0.4,0.2,0.4C96.8,119.7,97,119.7,97.1,119.5z"
							/>
						<path d="M97.2,114c0.1-0.2,0-0.4-0.2-0.4c-0.2-0.1-0.4,0-0.4,0.2c-0.1,0.2,0,0.4,0.2,0.4C96.9,114.2,97.1,114.2,97.2,114z"/>
						<path d="M93.7,119.5c0.1-0.2,0-0.4-0.2-0.4c-0.2-0.1-0.4,0-0.4,0.2c-0.1,0.2,0,0.4,0.2,0.4C93.5,119.8,93.6,119.7,93.7,119.5z
							"/>
						<path d="M101,117.4c0.1-0.2,0-0.4-0.2-0.4c-0.2-0.1-0.4,0-0.4,0.2c-0.1,0.2,0,0.4,0.2,0.4C100.7,117.6,100.9,117.5,101,117.4z
							"/>
						<path d="M96.2,122.2c0.1-0.2,0-0.4-0.2-0.4c-0.2-0.1-0.4,0-0.4,0.2c-0.1,0.2,0,0.4,0.2,0.4C95.9,122.4,96.1,122.3,96.2,122.2z
							"/>
						<path d="M103,118.4c0.1-0.2,0-0.4-0.2-0.4c-0.2-0.1-0.4,0-0.4,0.2c-0.1,0.2,0,0.4,0.2,0.4C102.7,118.7,102.9,118.6,103,118.4z
							"/>
						<path d="M94.8,117.8c0.1-0.2,0-0.4-0.2-0.4c-0.2-0.1-0.4,0-0.4,0.2c-0.1,0.2,0,0.4,0.2,0.4C94.6,118,94.8,118,94.8,117.8z"/>
						<path d="M99.2,115.1c0.1-0.2,0-0.4-0.2-0.4c-0.2-0.1-0.4,0-0.4,0.2c-0.1,0.2,0,0.4,0.2,0.4C98.9,115.4,99.1,115.3,99.2,115.1z
							"/>
						<circle cx="100.4" cy="115" r="0.3"/>
					</g>
				</g>
				<g>
					<g>
						<path d="M93,120.7c-0.1-0.1-0.3-0.1-0.5,0c-0.1,0.1-0.1,0.3,0,0.5c0.1,0.1,0.3,0.1,0.5,0C93.1,121.1,93.1,120.9,93,120.7z"/>
						<path d="M94.4,120.9c-0.1-0.1-0.3-0.1-0.5,0c-0.1,0.1-0.1,0.3,0,0.5c0.1,0.1,0.3,0.1,0.5,0C94.5,121.2,94.5,121,94.4,120.9z"
							/>
						<path d="M96.9,119.1c-0.1-0.1-0.3-0.1-0.5,0c-0.1,0.1-0.1,0.3,0,0.5s0.3,0.1,0.5,0C97,119.5,97,119.3,96.9,119.1z"/>
						<path d="M94.9,118.9c-0.1-0.1-0.3-0.1-0.5,0c-0.1,0.1-0.1,0.3,0,0.5c0.1,0.1,0.3,0.1,0.5,0C95,119.2,95,119,94.9,118.9z"/>
						<path d="M97,121c-0.1-0.1-0.3-0.1-0.5,0c-0.1,0.1-0.1,0.3,0,0.5c0.1,0.1,0.3,0.1,0.5,0C97.1,121.4,97.1,121.2,97,121z"/>
						<path d="M92,118.7c-0.1-0.1-0.3-0.1-0.5,0c-0.1,0.1-0.1,0.3,0,0.5c0.1,0.1,0.3,0.1,0.5,0C92.1,119,92.1,118.8,92,118.7z"/>
						<path d="M97.1,118c-0.1-0.1-0.3-0.1-0.5,0c-0.1,0.1-0.1,0.3,0,0.5c0.1,0.1,0.3,0.1,0.5,0C97.2,118.4,97.2,118.2,97.1,118z"/>
						<path d="M94.5,122.4c-0.1-0.1-0.3-0.1-0.5,0c-0.1,0.1-0.1,0.3,0,0.5c0.1,0.1,0.3,0.1,0.5,0C94.6,122.7,94.6,122.5,94.5,122.4z
							"/>
						<path d="M94.6,117.1c-0.1-0.1-0.3-0.1-0.5,0c-0.1,0.1-0.1,0.3,0,0.5c0.1,0.1,0.3,0.1,0.5,0S94.8,117.2,94.6,117.1z"/>
					</g>
					<g>
						<circle cx="93.7" cy="116.2" r="0.3"/>
						<path d="M92.3,115.6c0.1-0.1,0.1-0.3,0-0.5c-0.1-0.1-0.3-0.1-0.5,0c-0.1,0.1-0.1,0.3,0,0.5C91.9,115.8,92.1,115.8,92.3,115.6z
							"/>
						<path d="M93.8,117.8c0.1-0.1,0.1-0.3,0-0.5c-0.1-0.1-0.3-0.1-0.5,0c-0.1,0.1-0.1,0.3,0,0.5C93.4,118,93.7,118,93.8,117.8z"/>
						<path d="M96.1,123.1c0.1-0.1,0.1-0.3,0-0.5c-0.1-0.1-0.3-0.1-0.5,0c-0.1,0.1-0.1,0.3,0,0.5C95.8,123.3,96,123.3,96.1,123.1z"
							/>
						<circle cx="95.3" cy="120.1" r="0.3"/>
						<path d="M95.8,118.3c0.1-0.1,0.1-0.3,0-0.5c-0.1-0.1-0.3-0.1-0.5,0c-0.1,0.1-0.1,0.3,0,0.5C95.5,118.4,95.7,118.4,95.8,118.3z
							"/>
						<path d="M93.7,120.4c0.1-0.1,0.1-0.3,0-0.5c-0.1-0.1-0.3-0.1-0.5,0c-0.1,0.1-0.1,0.3,0,0.5C93.3,120.5,93.5,120.5,93.7,120.4z
							"/>
						<path d="M96,115.4c0.1-0.1,0.1-0.3,0-0.5c-0.1-0.1-0.3-0.1-0.5,0c-0.1,0.1-0.1,0.3,0,0.5C95.7,115.5,95.9,115.5,96,115.4z"/>
						<path d="M90.6,119c0.1-0.1,0.1-0.3,0-0.5c-0.1-0.1-0.3-0.1-0.5,0c-0.1,0.1-0.1,0.3,0,0.5C90.2,119.1,90.4,119.1,90.6,119z"/>
						<path d="M98.1,120.1c0.1-0.1,0.1-0.3,0-0.5c-0.1-0.1-0.3-0.1-0.5,0c-0.1,0.1-0.1,0.3,0,0.5C97.7,120.2,97.9,120.2,98.1,120.1z
							"/>
						<path d="M91.7,122.5c0.1-0.1,0.1-0.3,0-0.5c-0.1-0.1-0.3-0.1-0.5,0c-0.1,0.1-0.1,0.3,0,0.5C91.4,122.6,91.6,122.6,91.7,122.5z
							"/>
						<path d="M99.5,121.9c0.1-0.1,0.1-0.3,0-0.5c-0.1-0.1-0.3-0.1-0.5,0c-0.1,0.1-0.1,0.3,0,0.5C99.1,122,99.3,122,99.5,121.9z"/>
						<path d="M92.3,117.9c0.1-0.1,0.1-0.3,0-0.5c-0.1-0.1-0.3-0.1-0.5,0c-0.1,0.1-0.1,0.3,0,0.5S92.2,118,92.3,117.9z"/>
						<path d="M97.4,117.3c0.1-0.1,0.1-0.3,0-0.5c-0.1-0.1-0.3-0.1-0.5,0c-0.1,0.1-0.1,0.3,0,0.5C97,117.4,97.2,117.4,97.4,117.3z"
							/>
						<circle cx="98.5" cy="117.7" r="0.3"/>
					</g>
				</g>
				<g>
					<g>
						<path d="M92.1,123.2c-0.2,0-0.3,0.2-0.3,0.4c0,0.2,0.2,0.3,0.4,0.3c0.2,0,0.3-0.2,0.3-0.4C92.5,123.3,92.3,123.1,92.1,123.2z"
							/>
						<path d="M93,122c-0.2,0-0.3,0.2-0.3,0.4c0,0.2,0.2,0.3,0.4,0.3c0.2,0,0.3-0.2,0.3-0.4C93.3,122.1,93.1,122,93,122z"/>
						<path d="M92.7,119c-0.2,0-0.3,0.2-0.3,0.4c0,0.2,0.2,0.3,0.4,0.3s0.3-0.2,0.3-0.4C93,119.1,92.9,119,92.7,119z"/>
						<path d="M91.5,120.7c-0.2,0-0.3,0.2-0.3,0.4c0,0.2,0.2,0.3,0.4,0.3c0.2,0,0.3-0.2,0.3-0.4C91.8,120.7,91.6,120.6,91.5,120.7z"
							/>
						<path d="M94.4,119.9c-0.2,0-0.3,0.2-0.3,0.4c0,0.2,0.2,0.3,0.4,0.3c0.2,0,0.3-0.2,0.3-0.4C94.7,120,94.6,119.9,94.4,119.9z"/>
						<path d="M89.8,123c-0.2,0-0.3,0.2-0.3,0.4c0,0.2,0.2,0.3,0.4,0.3c0.2,0,0.3-0.2,0.3-0.4C90.2,123.1,90,123,89.8,123z"/>
						<path d="M91.9,118.3c-0.2,0-0.3,0.2-0.3,0.4c0,0.2,0.2,0.3,0.4,0.3c0.2,0,0.3-0.2,0.3-0.4C92.2,118.4,92,118.2,91.9,118.3z"/>
						<path d="M94.3,122.7c-0.2,0-0.3,0.2-0.3,0.4c0,0.2,0.2,0.3,0.4,0.3c0.2,0,0.3-0.2,0.3-0.4C94.6,122.8,94.5,122.7,94.3,122.7z"
							/>
						<path d="M89.8,119.9c-0.2,0-0.3,0.2-0.3,0.4s0.2,0.3,0.4,0.3c0.2,0,0.3-0.2,0.3-0.4C90.1,120,90,119.9,89.8,119.9z"/>
					</g>
					<g>
						<circle cx="88.6" cy="120.3" r="0.3"/>
						<path d="M87.3,121.2c0-0.2-0.2-0.3-0.4-0.3c-0.2,0-0.3,0.2-0.3,0.4c0,0.2,0.2,0.3,0.4,0.3C87.3,121.6,87.4,121.4,87.3,121.2z"
							/>
						<path d="M90,121c0-0.2-0.2-0.3-0.4-0.3c-0.2,0-0.3,0.2-0.3,0.4c0,0.2,0.2,0.3,0.4,0.3C89.9,121.4,90.1,121.2,90,121z"/>
						<path d="M95.8,121.7c0-0.2-0.2-0.3-0.4-0.3c-0.2,0-0.3,0.2-0.3,0.4c0,0.2,0.2,0.3,0.4,0.3C95.7,122.1,95.8,121.9,95.8,121.7z"
							/>
						<circle cx="92.7" cy="120.8" r="0.3"/>
						<path d="M91.4,119.5c0-0.2-0.2-0.3-0.4-0.3c-0.2,0-0.3,0.2-0.3,0.4c0,0.2,0.2,0.3,0.4,0.3C91.3,119.9,91.4,119.7,91.4,119.5z"
							/>
						<path d="M92.2,122.5c0-0.2-0.2-0.3-0.4-0.3c-0.2,0-0.3,0.2-0.3,0.4c0,0.2,0.2,0.3,0.4,0.3C92.1,122.8,92.2,122.6,92.2,122.5z"
							/>
						<path d="M89,117.9c0-0.2-0.2-0.3-0.4-0.3c-0.2,0-0.3,0.2-0.3,0.4c0,0.2,0.2,0.3,0.4,0.3C89,118.3,89.1,118.1,89,117.9z"/>
						<path d="M89.4,124.4c0-0.2-0.2-0.3-0.4-0.3c-0.2,0-0.3,0.2-0.3,0.4c0,0.2,0.2,0.3,0.4,0.3C89.3,124.8,89.4,124.6,89.4,124.4z"
							/>
						<path d="M94.1,118.5c0-0.2-0.2-0.3-0.4-0.3c-0.2,0-0.3,0.2-0.3,0.4c0,0.2,0.2,0.3,0.4,0.3C94,118.9,94.1,118.7,94.1,118.5z"/>
						<path d="M93,125.2c0-0.2-0.2-0.3-0.4-0.3c-0.2,0-0.3,0.2-0.3,0.4c0,0.2,0.2,0.3,0.4,0.3C92.9,125.5,93,125.3,93,125.2z"/>
						<path d="M96.3,118.2c0-0.2-0.2-0.3-0.4-0.3c-0.2,0-0.3,0.2-0.3,0.4c0,0.2,0.2,0.3,0.4,0.3C96.3,118.5,96.4,118.4,96.3,118.2z"
							/>
						<path d="M89.3,122.4c0-0.2-0.2-0.3-0.4-0.3c-0.2,0-0.3,0.2-0.3,0.4c0,0.2,0.2,0.3,0.4,0.3C89.2,122.7,89.4,122.5,89.3,122.4z"
							/>
						<path d="M91.3,117.7c0-0.2-0.2-0.3-0.4-0.3c-0.2,0-0.3,0.2-0.3,0.4c0,0.2,0.2,0.3,0.4,0.3C91.3,118,91.4,117.9,91.3,117.7z"/>
						<circle cx="92.3" cy="116.9" r="0.3"/>
					</g>
				</g>
				<g>
					<g>
						<path d="M87.2,123.5c-0.1-0.1-0.3-0.2-0.5-0.1c-0.1,0.1-0.2,0.3-0.1,0.5c0.1,0.1,0.3,0.2,0.5,0.1
							C87.2,123.9,87.3,123.7,87.2,123.5z"/>
						<path d="M88.6,123.8c-0.1-0.1-0.3-0.2-0.5-0.1c-0.1,0.1-0.2,0.3-0.1,0.5c0.1,0.1,0.3,0.2,0.5,0.1
							C88.6,124.2,88.7,124,88.6,123.8z"/>
						<path d="M91.2,122.3c-0.1-0.1-0.3-0.2-0.5-0.1c-0.1,0.1-0.2,0.3-0.1,0.5c0.1,0.1,0.3,0.2,0.5,0.1
							C91.3,122.7,91.3,122.5,91.2,122.3z"/>
						<path d="M89.2,121.9c-0.1-0.1-0.3-0.2-0.5-0.1c-0.1,0.1-0.2,0.3-0.1,0.5c0.1,0.1,0.3,0.2,0.5,0.1
							C89.3,122.2,89.3,122,89.2,121.9z"/>
						<path d="M91.1,124.3c-0.1-0.1-0.3-0.2-0.5-0.1c-0.1,0.1-0.2,0.3-0.1,0.5c0.1,0.1,0.3,0.2,0.5,0.1
							C91.2,124.6,91.2,124.4,91.1,124.3z"/>
						<path d="M86.4,121.4c-0.1-0.1-0.3-0.2-0.5-0.1c-0.1,0.1-0.2,0.3-0.1,0.5c0.1,0.1,0.3,0.2,0.5,0.1
							C86.5,121.7,86.5,121.5,86.4,121.4z"/>
						<path d="M91.5,121.3c-0.1-0.1-0.3-0.2-0.5-0.1c-0.1,0.1-0.2,0.3-0.1,0.5c0.1,0.1,0.3,0.2,0.5,0.1
							C91.6,121.6,91.6,121.4,91.5,121.3z"/>
						<path d="M88.5,125.3c-0.1-0.1-0.3-0.2-0.5-0.1c-0.1,0.1-0.2,0.3-0.1,0.5c0.1,0.1,0.3,0.2,0.5,0.1
							C88.5,125.7,88.6,125.5,88.5,125.3z"/>
						<path d="M89.2,120.1c-0.1-0.1-0.3-0.2-0.5-0.1c-0.1,0.1-0.2,0.3-0.1,0.5c0.1,0.1,0.3,0.2,0.5,0.1
							C89.2,120.4,89.3,120.2,89.2,120.1z"/>
					</g>
					<g>
						<circle cx="88.4" cy="119.1" r="0.3"/>
						<path d="M87,118.4c0.1-0.1,0.2-0.3,0.1-0.5c-0.1-0.1-0.3-0.2-0.5-0.1c-0.1,0.1-0.2,0.3-0.1,0.5
							C86.6,118.4,86.8,118.5,87,118.4z"/>
						<path d="M88.3,120.7c0.1-0.1,0.2-0.3,0.1-0.5c-0.1-0.1-0.3-0.2-0.5-0.1c-0.1,0.1-0.2,0.3-0.1,0.5
							C87.9,120.8,88.1,120.8,88.3,120.7z"/>
						<path d="M90,126.3c0.1-0.1,0.2-0.3,0.1-0.5c-0.1-0.1-0.3-0.2-0.5-0.1c-0.1,0.1-0.2,0.3-0.1,0.5
							C89.6,126.3,89.8,126.4,90,126.3z"/>
						<circle cx="89.6" cy="123.1" r="0.3"/>
						<path d="M90.2,121.4c0.1-0.1,0.2-0.3,0.1-0.5c-0.1-0.1-0.3-0.2-0.5-0.1c-0.1,0.1-0.2,0.3-0.1,0.5
							C89.9,121.4,90.1,121.5,90.2,121.4z"/>
						<path d="M87.8,123.3c0.1-0.1,0.2-0.3,0.1-0.5c-0.1-0.1-0.3-0.2-0.5-0.1c-0.1,0.1-0.2,0.3-0.1,0.5
							C87.5,123.3,87.7,123.4,87.8,123.3z"/>
						<path d="M90.7,118.6c0.1-0.1,0.2-0.3,0.1-0.5c-0.1-0.1-0.3-0.2-0.5-0.1c-0.1,0.1-0.2,0.3-0.1,0.5
							C90.4,118.6,90.6,118.7,90.7,118.6z"/>
						<path d="M84.9,121.5c0.1-0.1,0.2-0.3,0.1-0.5c-0.1-0.1-0.3-0.2-0.5-0.1c-0.1,0.1-0.2,0.3-0.1,0.5
							C84.6,121.6,84.8,121.7,84.9,121.5z"/>
						<path d="M92.3,123.4c0.1-0.1,0.2-0.3,0.1-0.5c-0.1-0.1-0.3-0.2-0.5-0.1c-0.1,0.1-0.2,0.3-0.1,0.5
							C91.9,123.5,92.1,123.5,92.3,123.4z"/>
						<path d="M85.7,125.1c0.1-0.1,0.2-0.3,0.1-0.5c-0.1-0.1-0.3-0.2-0.5-0.1c-0.1,0.1-0.2,0.3-0.1,0.5
							C85.4,125.2,85.6,125.2,85.7,125.1z"/>
						<path d="M93.5,125.3c0.1-0.1,0.2-0.3,0.1-0.5c-0.1-0.1-0.3-0.2-0.5-0.1c-0.1,0.1-0.2,0.3-0.1,0.5
							C93.1,125.4,93.3,125.4,93.5,125.3z"/>
						<path d="M86.8,120.6c0.1-0.1,0.2-0.3,0.1-0.5c-0.1-0.1-0.3-0.2-0.5-0.1c-0.1,0.1-0.2,0.3-0.1,0.5
							C86.4,120.7,86.6,120.7,86.8,120.6z"/>
						<path d="M91.9,120.6c0.1-0.1,0.2-0.3,0.1-0.5c-0.1-0.1-0.3-0.2-0.5-0.1c-0.1,0.1-0.2,0.3-0.1,0.5
							C91.5,120.6,91.7,120.7,91.9,120.6z"/>
						<circle cx="93" cy="121.1" r="0.3"/>
					</g>
				</g>
				<g>
					<g>
						<path d="M84.3,124.6c-0.1-0.1-0.3-0.1-0.5,0c-0.1,0.1-0.1,0.3,0,0.5c0.1,0.1,0.3,0.1,0.5,0C84.4,125,84.4,124.8,84.3,124.6z"
							/>
						<path d="M85.7,124.7c-0.1-0.1-0.3-0.1-0.5,0c-0.1,0.1-0.1,0.3,0,0.5c0.1,0.1,0.3,0.1,0.5,0C85.8,125,85.8,124.8,85.7,124.7z"
							/>
						<path d="M88.1,122.8c-0.1-0.1-0.3-0.1-0.5,0c-0.1,0.1-0.1,0.3,0,0.5c0.1,0.1,0.3,0.1,0.5,0C88.2,123.1,88.2,122.9,88.1,122.8z
							"/>
						<path d="M86,122.7c-0.1-0.1-0.3-0.1-0.5,0c-0.1,0.1-0.1,0.3,0,0.5c0.1,0.1,0.3,0.1,0.5,0C86.1,123,86.1,122.8,86,122.7z"/>
						<path d="M88.3,124.7c-0.1-0.1-0.3-0.1-0.5,0c-0.1,0.1-0.1,0.3,0,0.5c0.1,0.1,0.3,0.1,0.5,0C88.4,125,88.4,124.8,88.3,124.7z"
							/>
						<path d="M83.1,122.6c-0.1-0.1-0.3-0.1-0.5,0c-0.1,0.1-0.1,0.3,0,0.5c0.1,0.1,0.3,0.1,0.5,0C83.3,123,83.3,122.8,83.1,122.6z"
							/>
						<path d="M88.2,121.7c-0.1-0.1-0.3-0.1-0.5,0c-0.1,0.1-0.1,0.3,0,0.5c0.1,0.1,0.3,0.1,0.5,0C88.3,122,88.3,121.8,88.2,121.7z"
							/>
						<path d="M85.9,126.2c-0.1-0.1-0.3-0.1-0.5,0c-0.1,0.1-0.1,0.3,0,0.5c0.1,0.1,0.3,0.1,0.5,0C86,126.5,86,126.3,85.9,126.2z"/>
						<path d="M85.7,120.9c-0.1-0.1-0.3-0.1-0.5,0c-0.1,0.1-0.1,0.3,0,0.5c0.1,0.1,0.3,0.1,0.5,0S85.8,121,85.7,120.9z"/>
					</g>
					<g>
						<circle cx="84.7" cy="120" r="0.3"/>
						<path d="M83.2,119.6c0.1-0.1,0.1-0.3,0-0.5c-0.1-0.1-0.3-0.1-0.5,0c-0.1,0.1-0.1,0.3,0,0.5C82.9,119.7,83.1,119.7,83.2,119.6z
							"/>
						<path d="M84.9,121.7c0.1-0.1,0.1-0.3,0-0.5c-0.1-0.1-0.3-0.1-0.5,0c-0.1,0.1-0.1,0.3,0,0.5C84.5,121.8,84.8,121.8,84.9,121.7z
							"/>
						<path d="M87.5,126.8c0.1-0.1,0.1-0.3,0-0.5c-0.1-0.1-0.3-0.1-0.5,0c-0.1,0.1-0.1,0.3,0,0.5C87.2,127,87.4,127,87.5,126.8z"/>
						<circle cx="86.6" cy="123.8" r="0.3"/>
						<path d="M86.9,122c0.1-0.1,0.1-0.3,0-0.5c-0.1-0.1-0.3-0.1-0.5,0c-0.1,0.1-0.1,0.3,0,0.5C86.6,122.1,86.8,122.1,86.9,122z"/>
						<path d="M84.9,124.3c0.1-0.1,0.1-0.3,0-0.5c-0.1-0.1-0.3-0.1-0.5,0c-0.1,0.1-0.1,0.3,0,0.5C84.6,124.4,84.8,124.4,84.9,124.3z
							"/>
						<path d="M86.9,119.1c0.1-0.1,0.1-0.3,0-0.5c-0.1-0.1-0.3-0.1-0.5,0c-0.1,0.1-0.1,0.3,0,0.5C86.6,119.3,86.8,119.3,86.9,119.1z
							"/>
						<path d="M81.7,123.1c0.1-0.1,0.1-0.3,0-0.5c-0.1-0.1-0.3-0.1-0.5,0c-0.1,0.1-0.1,0.3,0,0.5C81.4,123.2,81.6,123.2,81.7,123.1z
							"/>
						<path d="M89.3,123.7c0.1-0.1,0.1-0.3,0-0.5c-0.1-0.1-0.3-0.1-0.5,0c-0.1,0.1-0.1,0.3,0,0.5C88.9,123.8,89.1,123.8,89.3,123.7z
							"/>
						<path d="M83.1,126.4c0.1-0.1,0.1-0.3,0-0.5c-0.1-0.1-0.3-0.1-0.5,0c-0.1,0.1-0.1,0.3,0,0.5C82.8,126.6,83,126.6,83.1,126.4z"
							/>
						<path d="M90.8,125.4c0.1-0.1,0.1-0.3,0-0.5c-0.1-0.1-0.3-0.1-0.5,0c-0.1,0.1-0.1,0.3,0,0.5C90.4,125.5,90.7,125.5,90.8,125.4z
							"/>
						<path d="M83.4,121.8c0.1-0.1,0.1-0.3,0-0.5c-0.1-0.1-0.3-0.1-0.5,0c-0.1,0.1-0.1,0.3,0,0.5S83.3,122,83.4,121.8z"/>
						<path d="M88.4,120.9c0.1-0.1,0.1-0.3,0-0.5c-0.1-0.1-0.3-0.1-0.5,0c-0.1,0.1-0.1,0.3,0,0.5C88.1,121.1,88.3,121.1,88.4,120.9z
							"/>
						<circle cx="89.6" cy="121.3" r="0.3"/>
					</g>
				</g>
				<g>
					<g>
						<path d="M80.7,124.5c-0.1-0.2-0.3-0.2-0.4-0.2c-0.2,0.1-0.2,0.3-0.2,0.4c0.1,0.2,0.3,0.2,0.4,0.2
							C80.7,124.9,80.7,124.7,80.7,124.5z"/>
						<path d="M82,125.1c-0.1-0.2-0.3-0.2-0.4-0.2c-0.2,0.1-0.2,0.3-0.2,0.4c0.1,0.2,0.3,0.2,0.4,0.2C82,125.4,82,125.2,82,125.1z"
							/>
						<path d="M84.8,124.1c-0.1-0.2-0.3-0.2-0.4-0.2c-0.2,0.1-0.2,0.3-0.2,0.4c0.1,0.2,0.3,0.2,0.4,0.2
							C84.9,124.5,84.9,124.3,84.8,124.1z"/>
						<path d="M83,123.3c-0.1-0.2-0.3-0.2-0.4-0.2c-0.2,0.1-0.2,0.3-0.2,0.4s0.3,0.2,0.4,0.2C83,123.6,83,123.4,83,123.3z"/>
						<path d="M84.4,125.9c-0.1-0.2-0.3-0.2-0.4-0.2c-0.2,0.1-0.2,0.3-0.2,0.4c0.1,0.2,0.3,0.2,0.4,0.2S84.4,126.1,84.4,125.9z"/>
						<path d="M80.3,122.2c-0.1-0.2-0.3-0.2-0.4-0.2c-0.2,0.1-0.2,0.3-0.2,0.4c0.1,0.2,0.3,0.2,0.4,0.2
							C80.3,122.6,80.4,122.4,80.3,122.2z"/>
						<path d="M85.4,123.1c-0.1-0.2-0.3-0.2-0.4-0.2c-0.2,0.1-0.2,0.3-0.2,0.4c0.1,0.2,0.3,0.2,0.4,0.2
							C85.4,123.5,85.4,123.3,85.4,123.1z"/>
						<path d="M81.6,126.5c-0.1-0.2-0.3-0.2-0.4-0.2c-0.2,0.1-0.2,0.3-0.2,0.4c0.1,0.2,0.3,0.2,0.4,0.2
							C81.6,126.9,81.7,126.7,81.6,126.5z"/>
						<path d="M83.3,121.5c-0.1-0.2-0.3-0.2-0.4-0.2c-0.2,0.1-0.2,0.3-0.2,0.4c0.1,0.2,0.3,0.2,0.4,0.2S83.4,121.7,83.3,121.5z"/>
					</g>
					<g>
						<circle cx="82.7" cy="120.4" r="0.3"/>
						<path d="M81.4,119.4c0.2-0.1,0.2-0.3,0.2-0.4c-0.1-0.2-0.3-0.2-0.4-0.2c-0.2,0.1-0.2,0.3-0.2,0.4
							C81.1,119.4,81.3,119.5,81.4,119.4z"/>
						<path d="M82.3,122c0.2-0.1,0.2-0.3,0.2-0.4c-0.1-0.2-0.3-0.2-0.4-0.2c-0.2,0.1-0.2,0.3-0.2,0.4C81.9,122,82.1,122,82.3,122z"
							/>
						<path d="M82.9,127.7c0.2-0.1,0.2-0.3,0.2-0.4c-0.1-0.2-0.3-0.2-0.4-0.2c-0.2,0.1-0.2,0.3-0.2,0.4
							C82.6,127.7,82.8,127.8,82.9,127.7z"/>
						<circle cx="83.1" cy="124.5" r="0.3"/>
						<path d="M84,123c0.2-0.1,0.2-0.3,0.2-0.4c-0.1-0.2-0.3-0.2-0.4-0.2c-0.2,0.1-0.2,0.3-0.2,0.4C83.7,123,83.9,123,84,123z"/>
						<path d="M81.4,124.4c0.2-0.1,0.2-0.3,0.2-0.4c-0.1-0.2-0.3-0.2-0.4-0.2c-0.2,0.1-0.2,0.3-0.2,0.4
							C81,124.4,81.2,124.4,81.4,124.4z"/>
						<path d="M85.1,120.3c0.2-0.1,0.2-0.3,0.2-0.4c-0.1-0.2-0.3-0.2-0.4-0.2c-0.2,0.1-0.2,0.3-0.2,0.4
							C84.7,120.3,84.9,120.4,85.1,120.3z"/>
						<path d="M78.8,122.1c0.2-0.1,0.2-0.3,0.2-0.4c-0.1-0.2-0.3-0.2-0.4-0.2c-0.2,0.1-0.2,0.3-0.2,0.4
							C78.5,122.1,78.7,122.2,78.8,122.1z"/>
						<path d="M85.7,125.3c0.2-0.1,0.2-0.3,0.2-0.4c-0.1-0.2-0.3-0.2-0.4-0.2c-0.2,0.1-0.2,0.3-0.2,0.4
							C85.3,125.4,85.5,125.4,85.7,125.3z"/>
						<path d="M78.9,125.8c0.2-0.1,0.2-0.3,0.2-0.4c-0.1-0.2-0.3-0.2-0.4-0.2c-0.2,0.1-0.2,0.3-0.2,0.4
							C78.6,125.8,78.8,125.9,78.9,125.8z"/>
						<path d="M86.5,127.5c0.2-0.1,0.2-0.3,0.2-0.4c-0.1-0.2-0.3-0.2-0.4-0.2c-0.2,0.1-0.2,0.3-0.2,0.4
							C86.1,127.5,86.3,127.5,86.5,127.5z"/>
						<path d="M80.8,121.6c0.2-0.1,0.2-0.3,0.2-0.4s-0.3-0.2-0.4-0.2c-0.2,0.1-0.2,0.3-0.2,0.4S80.7,121.7,80.8,121.6z"/>
						<path d="M85.8,122.5c0.2-0.1,0.2-0.3,0.2-0.4c-0.1-0.2-0.3-0.2-0.4-0.2c-0.2,0.1-0.2,0.3-0.2,0.4
							C85.5,122.5,85.7,122.5,85.8,122.5z"/>
						<circle cx="86.8" cy="123.2" r="0.3"/>
					</g>
				</g>
				<g>
					<g>
						<path d="M77.9,125.8c-0.1-0.2-0.3-0.3-0.4-0.2s-0.3,0.3-0.2,0.4s0.3,0.3,0.4,0.2C77.9,126.2,78,126,77.9,125.8z"/>
						<path d="M79.1,126.5c-0.1-0.2-0.3-0.3-0.4-0.2c-0.2,0.1-0.3,0.3-0.2,0.4c0.1,0.2,0.3,0.3,0.4,0.2
							C79.1,126.9,79.2,126.7,79.1,126.5z"/>
						<path d="M82.1,125.7c-0.1-0.2-0.3-0.3-0.4-0.2c-0.2,0.1-0.3,0.3-0.2,0.4c0.1,0.2,0.3,0.3,0.4,0.2
							C82.1,126.1,82.2,125.9,82.1,125.7z"/>
						<path d="M80.3,124.8c-0.1-0.2-0.3-0.3-0.4-0.2c-0.2,0.1-0.3,0.3-0.2,0.4s0.3,0.3,0.4,0.2C80.2,125.1,80.3,124.9,80.3,124.8z"
							/>
						<path d="M81.5,127.5c-0.1-0.2-0.3-0.3-0.4-0.2c-0.2,0.1-0.3,0.3-0.2,0.4c0.1,0.2,0.3,0.3,0.4,0.2
							C81.5,127.9,81.6,127.7,81.5,127.5z"/>
						<path d="M77.7,123.6c-0.1-0.2-0.3-0.3-0.4-0.2c-0.2,0.1-0.3,0.3-0.2,0.4c0.1,0.2,0.3,0.3,0.4,0.2
							C77.6,123.9,77.7,123.7,77.7,123.6z"/>
						<path d="M82.7,124.8c-0.1-0.2-0.3-0.3-0.4-0.2c-0.2,0.1-0.3,0.3-0.2,0.4c0.1,0.2,0.3,0.3,0.4,0.2
							C82.7,125.1,82.7,124.9,82.7,124.8z"/>
						<path d="M78.7,127.9c-0.1-0.2-0.3-0.3-0.4-0.2c-0.2,0.1-0.3,0.3-0.2,0.4c0.1,0.2,0.3,0.3,0.4,0.2
							C78.7,128.3,78.7,128.1,78.7,127.9z"/>
						<path d="M80.7,123c-0.1-0.2-0.3-0.3-0.4-0.2c-0.2,0.1-0.3,0.3-0.2,0.4c0.1,0.2,0.3,0.3,0.4,0.2S80.8,123.2,80.7,123z"/>
					</g>
					<g>
						<circle cx="80.2" cy="121.8" r="0.3"/>
						<path d="M79,120.8c0.2-0.1,0.3-0.3,0.2-0.4c-0.1-0.2-0.3-0.3-0.4-0.2c-0.2,0.1-0.3,0.3-0.2,0.4
							C78.6,120.8,78.8,120.9,79,120.8z"/>
						<path d="M79.6,123.4c0.2-0.1,0.3-0.3,0.2-0.4c-0.1-0.2-0.3-0.3-0.4-0.2c-0.2,0.1-0.3,0.3-0.2,0.4
							C79.3,123.4,79.5,123.5,79.6,123.4z"/>
						<path d="M79.9,129.2c0.2-0.1,0.3-0.3,0.2-0.4c-0.1-0.2-0.3-0.3-0.4-0.2c-0.2,0.1-0.3,0.3-0.2,0.4
							C79.6,129.2,79.8,129.3,79.9,129.2z"/>
						<circle cx="80.3" cy="126" r="0.3"/>
						<path d="M81.4,124.5c0.2-0.1,0.3-0.3,0.2-0.4c-0.1-0.2-0.3-0.3-0.4-0.2c-0.2,0.1-0.3,0.3-0.2,0.4
							C81,124.5,81.2,124.6,81.4,124.5z"/>
						<path d="M78.6,125.8c0.2-0.1,0.3-0.3,0.2-0.4c-0.1-0.2-0.3-0.3-0.4-0.2c-0.2,0.1-0.3,0.3-0.2,0.4
							C78.2,125.7,78.4,125.8,78.6,125.8z"/>
						<path d="M82.6,121.9c0.2-0.1,0.3-0.3,0.2-0.4c-0.1-0.2-0.3-0.3-0.4-0.2c-0.2,0.1-0.3,0.3-0.2,0.4
							C82.2,121.9,82.4,122,82.6,121.9z"/>
						<path d="M76.2,123.4c0.2-0.1,0.3-0.3,0.2-0.4c-0.1-0.2-0.3-0.3-0.4-0.2c-0.2,0.1-0.3,0.3-0.2,0.4
							C75.9,123.3,76.1,123.4,76.2,123.4z"/>
						<path d="M82.8,127c0.2-0.1,0.3-0.3,0.2-0.4c-0.1-0.2-0.3-0.3-0.4-0.2c-0.2,0.1-0.3,0.3-0.2,0.4C82.5,127,82.7,127.1,82.8,127z
							"/>
						<path d="M76.1,127c0.2-0.1,0.3-0.3,0.2-0.4c-0.1-0.2-0.3-0.3-0.4-0.2c-0.2,0.1-0.3,0.3-0.2,0.4C75.7,127,75.9,127.1,76.1,127z
							"/>
						<path d="M83.5,129.2c0.2-0.1,0.3-0.3,0.2-0.4c-0.1-0.2-0.3-0.3-0.4-0.2s-0.3,0.3-0.2,0.4C83.1,129.2,83.3,129.2,83.5,129.2z"
							/>
						<path d="M78.2,122.9c0.2-0.1,0.3-0.3,0.2-0.4c-0.1-0.2-0.3-0.3-0.4-0.2c-0.2,0.1-0.3,0.3-0.2,0.4
							C77.9,122.9,78.1,123,78.2,122.9z"/>
						<path d="M83.2,124.2c0.2-0.1,0.3-0.3,0.2-0.4c-0.1-0.2-0.3-0.3-0.4-0.2c-0.2,0.1-0.3,0.3-0.2,0.4
							C82.8,124.1,83,124.2,83.2,124.2z"/>
						<circle cx="84.1" cy="124.9" r="0.3"/>
					</g>
				</g>
				<g>
					<g>
						<path d="M76.8,127.6c-0.2,0-0.3,0.2-0.3,0.4c0,0.2,0.2,0.3,0.4,0.3c0.2,0,0.3-0.2,0.3-0.4C77.1,127.8,76.9,127.6,76.8,127.6z"
							/>
						<path d="M77.7,126.6c-0.2,0-0.3,0.2-0.3,0.4c0,0.2,0.2,0.3,0.4,0.3c0.2,0,0.3-0.2,0.3-0.4C78,126.7,77.9,126.6,77.7,126.6z"/>
						<path d="M77.7,123.5c-0.2,0-0.3,0.2-0.3,0.4c0,0.2,0.2,0.3,0.4,0.3c0.2,0,0.3-0.2,0.3-0.4C78,123.6,77.9,123.5,77.7,123.5z"/>
						<path d="M76.3,125.1c-0.2,0-0.3,0.2-0.3,0.4c0,0.2,0.2,0.3,0.4,0.3c0.2,0,0.3-0.2,0.3-0.4C76.7,125.2,76.5,125.1,76.3,125.1z"
							/>
						<path d="M79.3,124.6c-0.2,0-0.3,0.2-0.3,0.4c0,0.2,0.2,0.3,0.4,0.3c0.2,0,0.3-0.2,0.3-0.4C79.6,124.7,79.5,124.5,79.3,124.6z"
							/>
						<path d="M74.5,127.3c-0.2,0-0.3,0.2-0.3,0.4c0,0.2,0.2,0.3,0.4,0.3c0.2,0,0.3-0.2,0.3-0.4C74.8,127.4,74.7,127.3,74.5,127.3z"
							/>
						<path d="M76.9,122.7c-0.2,0-0.3,0.2-0.3,0.4c0,0.2,0.2,0.3,0.4,0.3c0.2,0,0.3-0.2,0.3-0.4C77.3,122.8,77.1,122.7,76.9,122.7z"
							/>
						<path d="M79,127.4c-0.2,0-0.3,0.2-0.3,0.4c0,0.2,0.2,0.3,0.4,0.3c0.2,0,0.3-0.2,0.3-0.4C79.3,127.5,79.1,127.4,79,127.4z"/>
						<path d="M74.7,124.2c-0.2,0-0.3,0.2-0.3,0.4c0,0.2,0.2,0.3,0.4,0.3c0.2,0,0.3-0.2,0.3-0.4C75.1,124.3,74.9,124.2,74.7,124.2z"
							/>
					</g>
					<g>
						<circle cx="73.5" cy="124.4" r="0.3"/>
						<path d="M72.2,125.3c0-0.2-0.2-0.3-0.4-0.3c-0.2,0-0.3,0.2-0.3,0.4c0,0.2,0.2,0.3,0.4,0.3C72.1,125.7,72.2,125.5,72.2,125.3z"
							/>
						<path d="M74.8,125.3c0-0.2-0.2-0.3-0.4-0.3c-0.2,0-0.3,0.2-0.3,0.4c0,0.2,0.2,0.3,0.4,0.3C74.7,125.7,74.9,125.5,74.8,125.3z"
							/>
						<path d="M80.5,126.5c0-0.2-0.2-0.3-0.4-0.3c-0.2,0-0.3,0.2-0.3,0.4c0,0.2,0.2,0.3,0.4,0.3C80.4,126.8,80.5,126.7,80.5,126.5z"
							/>
						<circle cx="77.6" cy="125.4" r="0.3"/>
						<path d="M76.3,123.9c0-0.2-0.2-0.3-0.4-0.3c-0.2,0-0.3,0.2-0.3,0.4c0,0.2,0.2,0.3,0.4,0.3C76.2,124.3,76.4,124.1,76.3,123.9z"
							/>
						<path d="M76.9,126.9c0-0.2-0.2-0.3-0.4-0.3c-0.2,0-0.3,0.2-0.3,0.4c0,0.2,0.2,0.3,0.4,0.3C76.7,127.3,76.9,127.1,76.9,126.9z"
							/>
						<path d="M74.1,122.1c0-0.2-0.2-0.3-0.4-0.3c-0.2,0-0.3,0.2-0.3,0.4c0,0.2,0.2,0.3,0.4,0.3C74,122.5,74.1,122.3,74.1,122.1z"/>
						<path d="M73.9,128.6c0-0.2-0.2-0.3-0.4-0.3c-0.2,0-0.3,0.2-0.3,0.4s0.2,0.3,0.4,0.3C73.8,129,74,128.8,73.9,128.6z"/>
						<path d="M79.1,123.1c0-0.2-0.2-0.3-0.4-0.3c-0.2,0-0.3,0.2-0.3,0.4c0,0.2,0.2,0.3,0.4,0.3C79,123.5,79.1,123.3,79.1,123.1z"/>
						<path d="M77.4,129.7c0-0.2-0.2-0.3-0.4-0.3c-0.2,0-0.3,0.2-0.3,0.4c0,0.2,0.2,0.3,0.4,0.3C77.3,130,77.5,129.9,77.4,129.7z"/>
						<path d="M81.4,123c0-0.2-0.2-0.3-0.4-0.3c-0.2,0-0.3,0.2-0.3,0.4c0,0.2,0.2,0.3,0.4,0.3C81.3,123.4,81.4,123.2,81.4,123z"/>
						<path d="M74,126.6c0-0.2-0.2-0.3-0.4-0.3c-0.2,0-0.3,0.2-0.3,0.4c0,0.2,0.2,0.3,0.4,0.3C73.9,126.9,74.1,126.8,74,126.6z"/>
						<path d="M76.4,122.1c0-0.2-0.2-0.3-0.4-0.3c-0.2,0-0.3,0.2-0.3,0.4c0,0.2,0.2,0.3,0.4,0.3C76.3,122.5,76.5,122.3,76.4,122.1z"
							/>
						<circle cx="77.4" cy="121.4" r="0.3"/>
					</g>
				</g>
				<g>
					<g>
						<path d="M75.6,126.7c0,0.2,0.1,0.3,0.3,0.3c0.2,0,0.3-0.1,0.3-0.3c0-0.2-0.1-0.3-0.3-0.3C75.7,126.4,75.6,126.5,75.6,126.7z"
							/>
						<path d="M74.6,125.7c0,0.2,0.1,0.3,0.3,0.3c0.2,0,0.3-0.1,0.3-0.3c0-0.2-0.1-0.3-0.3-0.3C74.8,125.3,74.6,125.5,74.6,125.7z"
							/>
						<path d="M71.6,125.3c0,0.2,0.1,0.3,0.3,0.3c0.2,0,0.3-0.1,0.3-0.3s-0.1-0.3-0.3-0.3C71.7,125,71.6,125.2,71.6,125.3z"/>
						<path d="M73,126.9c0,0.2,0.1,0.3,0.3,0.3c0.2,0,0.3-0.1,0.3-0.3c0-0.2-0.1-0.3-0.3-0.3C73.1,126.5,73,126.7,73,126.9z"/>
						<path d="M72.8,123.9c0,0.2,0.1,0.3,0.3,0.3c0.2,0,0.3-0.1,0.3-0.3c0-0.2-0.1-0.3-0.3-0.3C72.9,123.5,72.8,123.7,72.8,123.9z"
							/>
						<path d="M75,128.9c0,0.2,0.1,0.3,0.3,0.3c0.2,0,0.3-0.1,0.3-0.3c0-0.2-0.1-0.3-0.3-0.3C75.1,128.6,75,128.7,75,128.9z"/>
						<path d="M70.7,126c0,0.2,0.1,0.3,0.3,0.3c0.2,0,0.3-0.1,0.3-0.3c0-0.2-0.1-0.3-0.3-0.3C70.9,125.7,70.7,125.8,70.7,126z"/>
						<path d="M75.6,124.5c0,0.2,0.1,0.3,0.3,0.3c0.2,0,0.3-0.1,0.3-0.3c0-0.2-0.1-0.3-0.3-0.3C75.7,124.2,75.6,124.3,75.6,124.5z"
							/>
						<path d="M71.9,128.4c0,0.2,0.1,0.3,0.3,0.3c0.2,0,0.3-0.1,0.3-0.3c0-0.2-0.1-0.3-0.3-0.3C72.1,128,71.9,128.2,71.9,128.4z"/>
					</g>
					<g>
						<circle cx="72" cy="129.6" r="0.3"/>
						<path d="M72.7,131c-0.2,0-0.3,0.1-0.3,0.3c0,0.2,0.1,0.3,0.3,0.3c0.2,0,0.3-0.1,0.3-0.3C73.1,131.2,72.9,131,72.7,131z"/>
						<path d="M73.1,128.4c-0.2,0-0.3,0.1-0.3,0.3c0,0.2,0.1,0.3,0.3,0.3c0.2,0,0.3-0.1,0.3-0.3C73.4,128.5,73.2,128.4,73.1,128.4z"
							/>
						<path d="M74.9,122.9c-0.2,0-0.3,0.1-0.3,0.3c0,0.2,0.1,0.3,0.3,0.3c0.2,0,0.3-0.1,0.3-0.3C75.2,123,75,122.9,74.9,122.9z"/>
						<circle cx="73.4" cy="125.7" r="0.3"/>
						<path d="M71.8,126.7c-0.2,0-0.3,0.1-0.3,0.3c0,0.2,0.1,0.3,0.3,0.3c0.2,0,0.3-0.1,0.3-0.3C72.2,126.9,72,126.7,71.8,126.7z"/>
						<path d="M74.9,126.5c-0.2,0-0.3,0.1-0.3,0.3c0,0.2,0.1,0.3,0.3,0.3c0.2,0,0.3-0.1,0.3-0.3C75.2,126.7,75,126.5,74.9,126.5z"/>
						<path d="M69.8,128.7c-0.2,0-0.3,0.1-0.3,0.3c0,0.2,0.1,0.3,0.3,0.3c0.2,0,0.3-0.1,0.3-0.3C70.1,128.8,70,128.7,69.8,128.7z"/>
						<path d="M76.2,129.6c-0.2,0-0.3,0.1-0.3,0.3c0,0.2,0.1,0.3,0.3,0.3c0.2,0,0.3-0.1,0.3-0.3C76.6,129.8,76.4,129.6,76.2,129.6z"
							/>
						<path d="M71.4,123.9c-0.2,0-0.3,0.1-0.3,0.3c0,0.2,0.1,0.3,0.3,0.3c0.2,0,0.3-0.1,0.3-0.3C71.7,124,71.5,123.9,71.4,123.9z"/>
						<path d="M77.7,126.3c-0.2,0-0.3,0.1-0.3,0.3c0,0.2,0.1,0.3,0.3,0.3c0.2,0,0.3-0.1,0.3-0.3C78,126.4,77.8,126.3,77.7,126.3z"/>
						<path d="M71.5,121.6c-0.2,0-0.3,0.1-0.3,0.3c0,0.2,0.1,0.3,0.3,0.3c0.2,0,0.3-0.1,0.3-0.3C71.8,121.7,71.7,121.6,71.5,121.6z"
							/>
						<path d="M74.2,129.3c-0.2,0-0.3,0.1-0.3,0.3c0,0.2,0.1,0.3,0.3,0.3c0.2,0,0.3-0.1,0.3-0.3C74.5,129.4,74.4,129.3,74.2,129.3z"
							/>
						<path d="M70,126.4c-0.2,0-0.3,0.1-0.3,0.3c0,0.2,0.1,0.3,0.3,0.3c0.2,0,0.3-0.1,0.3-0.3C70.4,126.6,70.2,126.4,70,126.4z"/>
						<circle cx="69.4" cy="125.3" r="0.3"/>
					</g>
				</g>
				<g>
					<g>
						<path d="M70.7,128.7c-0.2,0-0.3,0.2-0.2,0.4c0,0.2,0.2,0.3,0.4,0.2c0.2,0,0.3-0.2,0.2-0.4S70.9,128.7,70.7,128.7z"/>
						<path d="M71.5,127.5c-0.2,0-0.3,0.2-0.2,0.4c0,0.2,0.2,0.3,0.4,0.2c0.2,0,0.3-0.2,0.2-0.4C71.9,127.6,71.7,127.5,71.5,127.5z"
							/>
						<path d="M71.1,124.5c-0.2,0-0.3,0.2-0.2,0.4c0,0.2,0.2,0.3,0.4,0.2c0.2,0,0.3-0.2,0.2-0.4C71.4,124.6,71.3,124.5,71.1,124.5z"
							/>
						<path d="M69.9,126.2c-0.2,0-0.3,0.2-0.2,0.4c0,0.2,0.2,0.3,0.4,0.2c0.2,0,0.3-0.2,0.2-0.4C70.3,126.3,70.1,126.2,69.9,126.2z"
							/>
						<path d="M72.8,125.3c-0.2,0-0.3,0.2-0.2,0.4c0,0.2,0.2,0.3,0.4,0.2c0.2,0,0.3-0.2,0.2-0.4C73.2,125.4,73,125.3,72.8,125.3z"/>
						<path d="M68.4,128.6c-0.2,0-0.3,0.2-0.2,0.4c0,0.2,0.2,0.3,0.4,0.2c0.2,0,0.3-0.2,0.2-0.4C68.8,128.7,68.6,128.6,68.4,128.6z"
							/>
						<path d="M70.2,123.8c-0.2,0-0.3,0.2-0.2,0.4c0,0.2,0.2,0.3,0.4,0.2c0.2,0,0.3-0.2,0.2-0.4C70.6,123.9,70.4,123.8,70.2,123.8z"
							/>
						<path d="M72.8,128.2c-0.2,0-0.3,0.2-0.2,0.4c0,0.2,0.2,0.3,0.4,0.2c0.2,0,0.3-0.2,0.2-0.4C73.2,128.2,73,128.1,72.8,128.2z"/>
						<path d="M68.2,125.6c-0.2,0-0.3,0.2-0.2,0.4c0,0.2,0.2,0.3,0.4,0.2c0.2,0,0.3-0.2,0.2-0.4S68.4,125.5,68.2,125.6z"/>
					</g>
					<g>
						<circle cx="67" cy="125.9" r="0.3"/>
						<path d="M65.8,127c0-0.2-0.2-0.3-0.4-0.2c-0.2,0-0.3,0.2-0.2,0.4c0,0.2,0.2,0.3,0.4,0.2C65.8,127.4,65.9,127.2,65.8,127z"/>
						<path d="M68.5,126.7c0-0.2-0.2-0.3-0.4-0.2c-0.2,0-0.3,0.2-0.2,0.4c0,0.2,0.2,0.3,0.4,0.2C68.4,127,68.6,126.8,68.5,126.7z"/>
						<path d="M74.3,127.1c0-0.2-0.2-0.3-0.4-0.2c-0.2,0-0.3,0.2-0.2,0.4c0,0.2,0.2,0.3,0.4,0.2C74.2,127.4,74.3,127.2,74.3,127.1z"
							/>
						<circle cx="71.2" cy="126.3" r="0.3"/>
						<path d="M69.8,125.1c0-0.2-0.2-0.3-0.4-0.2c-0.2,0-0.3,0.2-0.2,0.4c0,0.2,0.2,0.3,0.4,0.2C69.8,125.4,69.9,125.3,69.8,125.1z"
							/>
						<path d="M70.7,128c0-0.2-0.2-0.3-0.4-0.2c-0.2,0-0.3,0.2-0.2,0.4s0.2,0.3,0.4,0.2C70.6,128.3,70.8,128.2,70.7,128z"/>
						<path d="M67.4,123.6c0-0.2-0.2-0.3-0.4-0.2c-0.2,0-0.3,0.2-0.2,0.4c0,0.2,0.2,0.3,0.4,0.2C67.3,123.9,67.4,123.8,67.4,123.6z"
							/>
						<path d="M68.1,130.1c0-0.2-0.2-0.3-0.4-0.2c-0.2,0-0.3,0.2-0.2,0.4c0,0.2,0.2,0.3,0.4,0.2C68,130.4,68.1,130.2,68.1,130.1z"/>
						<path d="M72.5,123.9c0-0.2-0.2-0.3-0.4-0.2c-0.2,0-0.3,0.2-0.2,0.4c0,0.2,0.2,0.3,0.4,0.2C72.4,124.3,72.5,124.1,72.5,123.9z"
							/>
						<path d="M71.7,130.6c0-0.2-0.2-0.3-0.4-0.2c-0.2,0-0.3,0.2-0.2,0.4s0.2,0.3,0.4,0.2C71.6,131,71.7,130.8,71.7,130.6z"/>
						<path d="M74.7,123.5c0-0.2-0.2-0.3-0.4-0.2c-0.2,0-0.3,0.2-0.2,0.4c0,0.2,0.2,0.3,0.4,0.2C74.6,123.9,74.7,123.7,74.7,123.5z"
							/>
						<path d="M67.9,128c0-0.2-0.2-0.3-0.4-0.2c-0.2,0-0.3,0.2-0.2,0.4c0,0.2,0.2,0.3,0.4,0.2C67.8,128.4,67.9,128.2,67.9,128z"/>
						<path d="M69.7,123.2c0-0.2-0.2-0.3-0.4-0.2c-0.2,0-0.3,0.2-0.2,0.4c0,0.2,0.2,0.3,0.4,0.2C69.6,123.6,69.7,123.4,69.7,123.2z"
							/>
						<circle cx="70.6" cy="122.4" r="0.3"/>
					</g>
				</g>
				<g>
					<g>
						<path d="M67.2,129.7c-0.2,0-0.3,0.2-0.3,0.3c0,0.2,0.2,0.3,0.3,0.3c0.2,0,0.3-0.2,0.3-0.3C67.5,129.8,67.4,129.7,67.2,129.7z"
							/>
						<path d="M68.2,128.7c-0.2,0-0.3,0.2-0.3,0.3c0,0.2,0.2,0.3,0.3,0.3c0.2,0,0.3-0.2,0.3-0.3S68.4,128.7,68.2,128.7z"/>
						<path d="M68.5,125.7c-0.2,0-0.3,0.2-0.3,0.3c0,0.2,0.2,0.3,0.3,0.3c0.2,0,0.3-0.2,0.3-0.3C68.8,125.8,68.7,125.7,68.5,125.7z"
							/>
						<path d="M67,127.1c-0.2,0-0.3,0.2-0.3,0.3c0,0.2,0.2,0.3,0.3,0.3s0.3-0.2,0.3-0.3C67.3,127.2,67.2,127.1,67,127.1z"/>
						<path d="M70,126.9c-0.2,0-0.3,0.2-0.3,0.3c0,0.2,0.2,0.3,0.3,0.3c0.2,0,0.3-0.2,0.3-0.3C70.3,127,70.2,126.9,70,126.9z"/>
						<path d="M65,129.1c-0.2,0-0.3,0.2-0.3,0.3c0,0.2,0.2,0.3,0.3,0.3c0.2,0,0.3-0.2,0.3-0.3C65.3,129.2,65.1,129.1,65,129.1z"/>
						<path d="M67.8,124.8c-0.2,0-0.3,0.2-0.3,0.3c0,0.2,0.2,0.3,0.3,0.3c0.2,0,0.3-0.2,0.3-0.3C68.2,125,68,124.8,67.8,124.8z"/>
						<path d="M69.4,129.7c-0.2,0-0.3,0.2-0.3,0.3c0,0.2,0.2,0.3,0.3,0.3c0.2,0,0.3-0.2,0.3-0.3C69.7,129.8,69.6,129.7,69.4,129.7z"
							/>
						<path d="M65.5,126.1c-0.2,0-0.3,0.2-0.3,0.3c0,0.2,0.2,0.3,0.3,0.3c0.2,0,0.3-0.2,0.3-0.3C65.8,126.2,65.7,126.1,65.5,126.1z"
							/>
					</g>
					<g>
						<circle cx="64.2" cy="126.2" r="0.3"/>
						<path d="M62.8,126.9c0-0.2-0.2-0.3-0.3-0.3c-0.2,0-0.3,0.2-0.3,0.3c0,0.2,0.2,0.3,0.3,0.3C62.7,127.2,62.8,127.1,62.8,126.9z"
							/>
						<path d="M65.5,127.2c0-0.2-0.2-0.3-0.3-0.3c-0.2,0-0.3,0.2-0.3,0.3c0,0.2,0.2,0.3,0.3,0.3C65.4,127.5,65.5,127.4,65.5,127.2z"
							/>
						<path d="M71,128.9c0-0.2-0.2-0.3-0.3-0.3c-0.2,0-0.3,0.2-0.3,0.3c0,0.2,0.2,0.3,0.3,0.3C70.9,129.3,71,129.1,71,128.9z"/>
						<circle cx="68.2" cy="127.5" r="0.3"/>
						<path d="M67.2,126c0-0.2-0.2-0.3-0.3-0.3c-0.2,0-0.3,0.2-0.3,0.3c0,0.2,0.2,0.3,0.3,0.3C67,126.3,67.2,126.1,67.2,126z"/>
						<path d="M67.3,129c0-0.2-0.2-0.3-0.3-0.3c-0.2,0-0.3,0.2-0.3,0.3c0,0.2,0.2,0.3,0.3,0.3C67.2,129.3,67.4,129.2,67.3,129z"/>
						<path d="M65.1,123.9c0-0.2-0.2-0.3-0.3-0.3c-0.2,0-0.3,0.2-0.3,0.3c0,0.2,0.2,0.3,0.3,0.3C65,124.3,65.1,124.1,65.1,123.9z"/>
						<path d="M64.3,130.4c0-0.2-0.2-0.3-0.3-0.3c-0.2,0-0.3,0.2-0.3,0.3c0,0.2,0.2,0.3,0.3,0.3C64.1,130.7,64.3,130.6,64.3,130.4z"
							/>
						<path d="M70,125.5c0-0.2-0.2-0.3-0.3-0.3c-0.2,0-0.3,0.2-0.3,0.3c0,0.2,0.2,0.3,0.3,0.3C69.8,125.8,70,125.6,70,125.5z"/>
						<path d="M67.6,131.8c0-0.2-0.2-0.3-0.3-0.3c-0.2,0-0.3,0.2-0.3,0.3s0.2,0.3,0.3,0.3C67.5,132.1,67.7,132,67.6,131.8z"/>
						<path d="M72.3,125.6c0-0.2-0.2-0.3-0.3-0.3c-0.2,0-0.3,0.2-0.3,0.3c0,0.2,0.2,0.3,0.3,0.3C72.1,125.9,72.3,125.7,72.3,125.6z"
							/>
						<path d="M64.6,128.4c0-0.2-0.2-0.3-0.3-0.3c-0.2,0-0.3,0.2-0.3,0.3c0,0.2,0.2,0.3,0.3,0.3S64.6,128.5,64.6,128.4z"/>
						<path d="M67.4,124.1c0-0.2-0.2-0.3-0.3-0.3c-0.2,0-0.3,0.2-0.3,0.3c0,0.2,0.2,0.3,0.3,0.3C67.3,124.5,67.4,124.3,67.4,124.1z"
							/>
						<circle cx="68.5" cy="123.6" r="0.3"/>
					</g>
				</g>
				<g>
					<g>
						<path d="M62.8,130.2c-0.1-0.1-0.3-0.1-0.5,0c-0.1,0.1-0.1,0.3,0,0.5c0.1,0.1,0.3,0.1,0.5,0C63,130.5,63,130.3,62.8,130.2z"/>
						<path d="M64.2,130.2c-0.1-0.1-0.3-0.1-0.5,0c-0.1,0.1-0.1,0.3,0,0.5c0.1,0.1,0.3,0.1,0.5,0C64.4,130.5,64.4,130.3,64.2,130.2z
							"/>
						<path d="M66.6,128.2c-0.1-0.1-0.3-0.1-0.5,0c-0.1,0.1-0.1,0.3,0,0.5c0.1,0.1,0.3,0.1,0.5,0C66.7,128.6,66.7,128.3,66.6,128.2z
							"/>
						<path d="M64.5,128.2c-0.1-0.1-0.3-0.1-0.5,0c-0.1,0.1-0.1,0.3,0,0.5c0.1,0.1,0.3,0.1,0.5,0C64.6,128.5,64.6,128.3,64.5,128.2z
							"/>
						<path d="M66.8,130.1c-0.1-0.1-0.3-0.1-0.5,0c-0.1,0.1-0.1,0.3,0,0.5c0.1,0.1,0.3,0.1,0.5,0C66.9,130.5,66.9,130.2,66.8,130.1z
							"/>
						<path d="M61.6,128.2c-0.1-0.1-0.3-0.1-0.5,0c-0.1,0.1-0.1,0.3,0,0.5c0.1,0.1,0.3,0.1,0.5,0C61.8,128.5,61.8,128.3,61.6,128.2z
							"/>
						<path d="M66.7,127.1c-0.1-0.1-0.3-0.1-0.5,0c-0.1,0.1-0.1,0.3,0,0.5c0.1,0.1,0.3,0.1,0.5,0C66.8,127.5,66.8,127.2,66.7,127.1z
							"/>
						<path d="M64.4,131.7c-0.1-0.1-0.3-0.1-0.5,0c-0.1,0.1-0.1,0.3,0,0.5c0.1,0.1,0.3,0.1,0.5,0S64.6,131.8,64.4,131.7z"/>
						<path d="M64.1,126.4c-0.1-0.1-0.3-0.1-0.5,0c-0.1,0.1-0.1,0.3,0,0.5c0.1,0.1,0.3,0.1,0.5,0S64.3,126.5,64.1,126.4z"/>
					</g>
					<g>
						<circle cx="63.2" cy="125.6" r="0.3"/>
						<path d="M61.6,125.1c0.1-0.1,0.1-0.3,0-0.5c-0.1-0.1-0.3-0.1-0.5,0c-0.1,0.1-0.1,0.3,0,0.5C61.3,125.3,61.5,125.3,61.6,125.1z
							"/>
						<path d="M63.4,127.2c0.1-0.1,0.1-0.3,0-0.5c-0.1-0.1-0.3-0.1-0.5,0c-0.1,0.1-0.1,0.3,0,0.5C63,127.3,63.2,127.3,63.4,127.2z"
							/>
						<path d="M66.1,132.3c0.1-0.1,0.1-0.3,0-0.5c-0.1-0.1-0.3-0.1-0.5,0c-0.1,0.1-0.1,0.3,0,0.5C65.8,132.4,66,132.4,66.1,132.3z"
							/>
						<circle cx="65.1" cy="129.3" r="0.3"/>
						<path d="M65.4,127.5c0.1-0.1,0.1-0.3,0-0.5c-0.1-0.1-0.3-0.1-0.5,0c-0.1,0.1-0.1,0.3,0,0.5C65.1,127.6,65.3,127.6,65.4,127.5z
							"/>
						<path d="M63.4,129.8c0.1-0.1,0.1-0.3,0-0.5c-0.1-0.1-0.3-0.1-0.5,0c-0.1,0.1-0.1,0.3,0,0.5C63.1,129.9,63.3,129.9,63.4,129.8z
							"/>
						<path d="M65.4,124.6c0.1-0.1,0.1-0.3,0-0.5c-0.1-0.1-0.3-0.1-0.5,0c-0.1,0.1-0.1,0.3,0,0.5C65,124.7,65.2,124.7,65.4,124.6z"
							/>
						<path d="M60.2,128.6c0.1-0.1,0.1-0.3,0-0.5c-0.1-0.1-0.3-0.1-0.5,0c-0.1,0.1-0.1,0.3,0,0.5C59.9,128.8,60.1,128.8,60.2,128.6z
							"/>
						<path d="M67.8,129.1c0.1-0.1,0.1-0.3,0-0.5c-0.1-0.1-0.3-0.1-0.5,0c-0.1,0.1-0.1,0.3,0,0.5C67.4,129.2,67.7,129.2,67.8,129.1z
							"/>
						<path d="M61.7,132c0.1-0.1,0.1-0.3,0-0.5c-0.1-0.1-0.3-0.1-0.5,0c-0.1,0.1-0.1,0.3,0,0.5C61.4,132.1,61.6,132.1,61.7,132z"/>
						<path d="M69.3,130.7c0.1-0.1,0.1-0.3,0-0.5c-0.1-0.1-0.3-0.1-0.5,0c-0.1,0.1-0.1,0.3,0,0.5C69,130.9,69.2,130.9,69.3,130.7z"
							/>
						<path d="M61.9,127.4c0.1-0.1,0.1-0.3,0-0.5c-0.1-0.1-0.3-0.1-0.5,0c-0.1,0.1-0.1,0.3,0,0.5C61.5,127.5,61.8,127.5,61.9,127.4z
							"/>
						<path d="M66.9,126.4c0.1-0.1,0.1-0.3,0-0.5c-0.1-0.1-0.3-0.1-0.5,0c-0.1,0.1-0.1,0.3,0,0.5C66.5,126.5,66.7,126.5,66.9,126.4z
							"/>
						<circle cx="68" cy="126.7" r="0.3"/>
					</g>
				</g>
				<g>
					<g>
						<path d="M61.9,130.3c-0.2,0.1-0.2,0.3-0.1,0.4c0.1,0.2,0.3,0.2,0.4,0.1c0.2-0.1,0.2-0.3,0.1-0.4
							C62.2,130.3,62,130.3,61.9,130.3z"/>
						<path d="M62.4,129c-0.2,0.1-0.2,0.3-0.1,0.4c0.1,0.2,0.3,0.2,0.4,0.1c0.2-0.1,0.2-0.3,0.1-0.4C62.7,129,62.5,128.9,62.4,129z"
							/>
						<path d="M61.2,126.2c-0.2,0.1-0.2,0.3-0.1,0.4c0.1,0.2,0.3,0.2,0.4,0.1c0.2-0.1,0.2-0.3,0.1-0.4
							C61.6,126.2,61.4,126.1,61.2,126.2z"/>
						<path d="M60.5,128.1c-0.2,0.1-0.2,0.3-0.1,0.4c0.1,0.2,0.3,0.2,0.4,0.1c0.2-0.1,0.2-0.3,0.1-0.4
							C60.9,128.1,60.7,128,60.5,128.1z"/>
						<path d="M63.1,126.6c-0.2,0.1-0.2,0.3-0.1,0.4c0.1,0.2,0.3,0.2,0.4,0.1c0.2-0.1,0.2-0.3,0.1-0.4
							C63.5,126.5,63.3,126.5,63.1,126.6z"/>
						<path d="M59.6,130.8c-0.2,0.1-0.2,0.3-0.1,0.4c0.1,0.2,0.3,0.2,0.4,0.1c0.2-0.1,0.2-0.3,0.1-0.4
							C60,130.8,59.8,130.7,59.6,130.8z"/>
						<path d="M60.2,125.7c-0.2,0.1-0.2,0.3-0.1,0.4c0.1,0.2,0.3,0.2,0.4,0.1c0.2-0.1,0.2-0.3,0.1-0.4
							C60.6,125.7,60.4,125.6,60.2,125.7z"/>
						<path d="M63.8,129.3c-0.2,0.1-0.2,0.3-0.1,0.4c0.1,0.2,0.3,0.2,0.4,0.1c0.2-0.1,0.2-0.3,0.1-0.4
							C64.2,129.3,64,129.2,63.8,129.3z"/>
						<path d="M58.7,127.9c-0.2,0.1-0.2,0.3-0.1,0.4c0.1,0.2,0.3,0.2,0.4,0.1c0.2-0.1,0.2-0.3,0.1-0.4
							C59.1,127.9,58.9,127.8,58.7,127.9z"/>
					</g>
					<g>
						<circle cx="57.6" cy="128.5" r="0.3"/>
						<path d="M56.7,129.8c-0.1-0.2-0.3-0.2-0.4-0.1c-0.2,0.1-0.2,0.3-0.1,0.4c0.1,0.2,0.3,0.2,0.4,0.1
							C56.8,130.2,56.8,130,56.7,129.8z"/>
						<path d="M59.2,128.9c-0.1-0.2-0.3-0.2-0.4-0.1c-0.2,0.1-0.2,0.3-0.1,0.4c0.1,0.2,0.3,0.2,0.4,0.1
							C59.3,129.2,59.3,129,59.2,128.9z"/>
						<path d="M64.9,127.9c-0.1-0.2-0.3-0.2-0.4-0.1c-0.2,0.1-0.2,0.3-0.1,0.4c0.1,0.2,0.3,0.2,0.4,0.1
							C65,128.3,65,128.1,64.9,127.9z"/>
						<circle cx="61.8" cy="127.9" r="0.3"/>
						<path d="M60.1,127c-0.1-0.2-0.3-0.2-0.4-0.1c-0.2,0.1-0.2,0.3-0.1,0.4c0.1,0.2,0.3,0.2,0.4,0.1
							C60.2,127.4,60.2,127.2,60.1,127z"/>
						<path d="M61.7,129.6c-0.1-0.2-0.3-0.2-0.4-0.1c-0.2,0.1-0.2,0.3-0.1,0.4c0.1,0.2,0.3,0.2,0.4,0.1
							C61.7,130,61.8,129.8,61.7,129.6z"/>
						<path d="M57.4,126.2c-0.1-0.2-0.3-0.2-0.4-0.1c-0.2,0.1-0.2,0.3-0.1,0.4c0.1,0.2,0.3,0.2,0.4,0.1
							C57.4,126.5,57.5,126.3,57.4,126.2z"/>
						<path d="M59.6,132.3c-0.1-0.2-0.3-0.2-0.4-0.1c-0.2,0.1-0.2,0.3-0.1,0.4c0.1,0.2,0.3,0.2,0.4,0.1
							C59.6,132.6,59.7,132.4,59.6,132.3z"/>
						<path d="M62.4,125.3c-0.1-0.2-0.3-0.2-0.4-0.1c-0.2,0.1-0.2,0.3-0.1,0.4c0.1,0.2,0.3,0.2,0.4,0.1
							C62.5,125.7,62.5,125.5,62.4,125.3z"/>
						<path d="M63.2,132c-0.1-0.2-0.3-0.2-0.4-0.1c-0.2,0.1-0.2,0.3-0.1,0.4c0.1,0.2,0.3,0.2,0.4,0.1
							C63.3,132.3,63.3,132.1,63.2,132z"/>
						<path d="M64.5,124.3c-0.1-0.2-0.3-0.2-0.4-0.1c-0.2,0.1-0.2,0.3-0.1,0.4c0.1,0.2,0.3,0.2,0.4,0.1
							C64.5,124.7,64.6,124.5,64.5,124.3z"/>
						<path d="M59,130.3c-0.1-0.2-0.3-0.2-0.4-0.1c-0.2,0.1-0.2,0.3-0.1,0.4c0.1,0.2,0.3,0.2,0.4,0.1C59,130.7,59,130.5,59,130.3z"
							/>
						<path d="M59.6,125.3c-0.1-0.2-0.3-0.2-0.4-0.1c-0.2,0.1-0.2,0.3-0.1,0.4c0.1,0.2,0.3,0.2,0.4,0.1
							C59.6,125.7,59.6,125.5,59.6,125.3z"/>
						<circle cx="60.2" cy="124.3" r="0.3"/>
					</g>
				</g>
				<g>
					<g>
						<path d="M56.3,130.1c-0.1-0.1-0.3-0.1-0.5,0c-0.1,0.1-0.1,0.3,0,0.5c0.1,0.1,0.3,0.1,0.5,0C56.4,130.4,56.4,130.2,56.3,130.1z
							"/>
						<path d="M57.7,130.2c-0.1-0.1-0.3-0.1-0.5,0c-0.1,0.1-0.1,0.3,0,0.5c0.1,0.1,0.3,0.1,0.5,0C57.8,130.6,57.8,130.4,57.7,130.2z
							"/>
						<path d="M60.1,128.5c-0.1-0.1-0.3-0.1-0.5,0c-0.1,0.1-0.1,0.3,0,0.5c0.1,0.1,0.3,0.1,0.5,0C60.3,128.8,60.3,128.6,60.1,128.5z
							"/>
						<path d="M58.1,128.2c-0.1-0.1-0.3-0.1-0.5,0c-0.1,0.1-0.1,0.3,0,0.5c0.1,0.1,0.3,0.1,0.5,0C58.2,128.6,58.2,128.4,58.1,128.2z
							"/>
						<path d="M60.2,130.4c-0.1-0.1-0.3-0.1-0.5,0c-0.1,0.1-0.1,0.3,0,0.5c0.1,0.1,0.3,0.1,0.5,0C60.3,130.7,60.4,130.5,60.2,130.4z
							"/>
						<path d="M55.2,128c-0.1-0.1-0.3-0.1-0.5,0c-0.1,0.1-0.1,0.3,0,0.5c0.1,0.1,0.3,0.1,0.5,0C55.4,128.4,55.4,128.2,55.2,128z"/>
						<path d="M60.4,127.4c-0.1-0.1-0.3-0.1-0.5,0c-0.1,0.1-0.1,0.3,0,0.5c0.1,0.1,0.3,0.1,0.5,0C60.5,127.7,60.5,127.5,60.4,127.4z
							"/>
						<path d="M57.7,131.7c-0.1-0.1-0.3-0.1-0.5,0c-0.1,0.1-0.1,0.3,0,0.5c0.1,0.1,0.3,0.1,0.5,0C57.8,132.1,57.9,131.9,57.7,131.7z
							"/>
						<path d="M57.9,126.4c-0.1-0.1-0.3-0.1-0.5,0c-0.1,0.1-0.1,0.3,0,0.5c0.1,0.1,0.3,0.1,0.5,0C58,126.8,58,126.6,57.9,126.4z"/>
					</g>
					<g>
						<circle cx="57" cy="125.5" r="0.3"/>
						<path d="M55.5,125c0.1-0.1,0.1-0.3,0-0.5c-0.1-0.1-0.3-0.1-0.5,0c-0.1,0.1-0.1,0.3,0,0.5C55.2,125.1,55.4,125.1,55.5,125z"/>
						<path d="M57,127.2c0.1-0.1,0.1-0.3,0-0.5c-0.1-0.1-0.3-0.1-0.5,0c-0.1,0.1-0.1,0.3,0,0.5C56.7,127.3,56.9,127.3,57,127.2z"/>
						<path d="M59.4,132.5c0.1-0.1,0.1-0.3,0-0.5c-0.1-0.1-0.3-0.1-0.5,0c-0.1,0.1-0.1,0.3,0,0.5C59,132.6,59.2,132.6,59.4,132.5z"
							/>
						<circle cx="58.6" cy="129.4" r="0.3"/>
						<path d="M59.1,127.6c0.1-0.1,0.1-0.3,0-0.5c-0.1-0.1-0.3-0.1-0.5,0c-0.1,0.1-0.1,0.3,0,0.5C58.7,127.7,58.9,127.7,59.1,127.6z
							"/>
						<path d="M56.9,129.7c0.1-0.1,0.1-0.3,0-0.5c-0.1-0.1-0.3-0.1-0.5,0c-0.1,0.1-0.1,0.3,0,0.5C56.6,129.9,56.8,129.9,56.9,129.7z
							"/>
						<path d="M59.3,124.8c0.1-0.1,0.1-0.3,0-0.5c-0.1-0.1-0.3-0.1-0.5,0c-0.1,0.1-0.1,0.3,0,0.5C58.9,124.9,59.1,124.9,59.3,124.8z
							"/>
						<path d="M53.8,128.4c0.1-0.1,0.1-0.3,0-0.5c-0.1-0.1-0.3-0.1-0.5,0c-0.1,0.1-0.1,0.3,0,0.5C53.5,128.5,53.7,128.5,53.8,128.4z
							"/>
						<path d="M61.3,129.4c0.1-0.1,0.1-0.3,0-0.5c-0.1-0.1-0.3-0.1-0.5,0c-0.1,0.1-0.1,0.3,0,0.5C61,129.5,61.2,129.6,61.3,129.4z"
							/>
						<path d="M55,131.8c0.1-0.1,0.1-0.3,0-0.5c-0.1-0.1-0.3-0.1-0.5,0c-0.1,0.1-0.1,0.3,0,0.5C54.6,131.9,54.8,131.9,55,131.8z"/>
						<path d="M62.7,131.2c0.1-0.1,0.1-0.3,0-0.5c-0.1-0.1-0.3-0.1-0.5,0c-0.1,0.1-0.1,0.3,0,0.5C62.4,131.3,62.6,131.3,62.7,131.2z
							"/>
						<path d="M55.6,127.3c0.1-0.1,0.1-0.3,0-0.5c-0.1-0.1-0.3-0.1-0.5,0c-0.1,0.1-0.1,0.3,0,0.5S55.4,127.4,55.6,127.3z"/>
						<path d="M60.6,126.6c0.1-0.1,0.1-0.3,0-0.5c-0.1-0.1-0.3-0.1-0.5,0c-0.1,0.1-0.1,0.3,0,0.5C60.3,126.7,60.5,126.8,60.6,126.6z
							"/>
						<circle cx="61.7" cy="127" r="0.3"/>
					</g>
				</g>
				<g>
					<g>
						<path d="M54.6,132.1c-0.2,0-0.3,0.1-0.3,0.3c0,0.2,0.1,0.3,0.3,0.3c0.2,0,0.3-0.1,0.3-0.3S54.8,132.1,54.6,132.1z"/>
						<path d="M55.7,131.2c-0.2,0-0.3,0.1-0.3,0.3s0.1,0.3,0.3,0.3c0.2,0,0.3-0.1,0.3-0.3S55.9,131.2,55.7,131.2z"/>
						<path d="M56.2,128.2c-0.2,0-0.3,0.1-0.3,0.3c0,0.2,0.1,0.3,0.3,0.3c0.2,0,0.3-0.1,0.3-0.3S56.3,128.2,56.2,128.2z"/>
						<path d="M54.6,129.5c-0.2,0-0.3,0.1-0.3,0.3s0.1,0.3,0.3,0.3c0.2,0,0.3-0.1,0.3-0.3C54.9,129.6,54.7,129.5,54.6,129.5z"/>
						<path d="M57.6,129.5c-0.2,0-0.3,0.1-0.3,0.3c0,0.2,0.1,0.3,0.3,0.3c0.2,0,0.3-0.1,0.3-0.3S57.8,129.5,57.6,129.5z"/>
						<path d="M52.4,131.4c-0.2,0-0.3,0.1-0.3,0.3c0,0.2,0.1,0.3,0.3,0.3c0.2,0,0.3-0.1,0.3-0.3C52.7,131.5,52.6,131.4,52.4,131.4z"
							/>
						<path d="M55.5,127.3c-0.2,0-0.3,0.1-0.3,0.3c0,0.2,0.1,0.3,0.3,0.3c0.2,0,0.3-0.1,0.3-0.3C55.9,127.4,55.7,127.3,55.5,127.3z"
							/>
						<path d="M56.8,132.2c-0.2,0-0.3,0.1-0.3,0.3c0,0.2,0.1,0.3,0.3,0.3c0.2,0,0.3-0.1,0.3-0.3C57.1,132.4,57,132.2,56.8,132.2z"/>
						<path d="M53.1,128.4c-0.2,0-0.3,0.1-0.3,0.3c0,0.2,0.1,0.3,0.3,0.3c0.2,0,0.3-0.1,0.3-0.3C53.4,128.5,53.3,128.4,53.1,128.4z"
							/>
					</g>
					<g>
						<circle cx="51.8" cy="128.4" r="0.3"/>
						<path d="M50.4,129c0-0.2-0.1-0.3-0.3-0.3c-0.2,0-0.3,0.1-0.3,0.3s0.1,0.3,0.3,0.3C50.3,129.4,50.4,129.2,50.4,129z"/>
						<path d="M53.1,129.5c0-0.2-0.1-0.3-0.3-0.3c-0.2,0-0.3,0.1-0.3,0.3c0,0.2,0.1,0.3,0.3,0.3C52.9,129.8,53.1,129.7,53.1,129.5z"
							/>
						<path d="M58.5,131.6c0-0.2-0.1-0.3-0.3-0.3c-0.2,0-0.3,0.1-0.3,0.3s0.1,0.3,0.3,0.3C58.3,131.9,58.5,131.8,58.5,131.6z"/>
						<circle cx="55.7" cy="130" r="0.3"/>
						<path d="M54.8,128.4c0-0.2-0.1-0.3-0.3-0.3c-0.2,0-0.3,0.1-0.3,0.3s0.1,0.3,0.3,0.3C54.6,128.7,54.8,128.6,54.8,128.4z"/>
						<path d="M54.8,131.4c0-0.2-0.1-0.3-0.3-0.3c-0.2,0-0.3,0.1-0.3,0.3c0,0.2,0.1,0.3,0.3,0.3C54.6,131.7,54.8,131.6,54.8,131.4z"
							/>
						<path d="M52.9,126.2c0-0.2-0.1-0.3-0.3-0.3c-0.2,0-0.3,0.1-0.3,0.3c0,0.2,0.1,0.3,0.3,0.3C52.7,126.5,52.9,126.4,52.9,126.2z"
							/>
						<path d="M51.6,132.6c0-0.2-0.1-0.3-0.3-0.3c-0.2,0-0.3,0.1-0.3,0.3c0,0.2,0.1,0.3,0.3,0.3C51.5,132.9,51.6,132.8,51.6,132.6z"
							/>
						<path d="M57.6,128c0-0.2-0.1-0.3-0.3-0.3c-0.2,0-0.3,0.1-0.3,0.3c0,0.2,0.1,0.3,0.3,0.3C57.5,128.4,57.6,128.2,57.6,128z"/>
						<path d="M54.9,134.2c0-0.2-0.1-0.3-0.3-0.3c-0.2,0-0.3,0.1-0.3,0.3c0,0.2,0.1,0.3,0.3,0.3C54.7,134.5,54.9,134.4,54.9,134.2z"
							/>
						<path d="M59.9,128.3c0-0.2-0.1-0.3-0.3-0.3c-0.2,0-0.3,0.1-0.3,0.3s0.1,0.3,0.3,0.3C59.7,128.6,59.9,128.5,59.9,128.3z"/>
						<path d="M52.1,130.6c0-0.2-0.1-0.3-0.3-0.3c-0.2,0-0.3,0.1-0.3,0.3c0,0.2,0.1,0.3,0.3,0.3S52.1,130.8,52.1,130.6z"/>
						<path d="M55.2,126.6c0-0.2-0.1-0.3-0.3-0.3c-0.2,0-0.3,0.1-0.3,0.3c0,0.2,0.1,0.3,0.3,0.3C55,126.9,55.2,126.7,55.2,126.6z"/>
						<circle cx="56.3" cy="126" r="0.3"/>
					</g>
				</g>
				<g>
					<g>
						<path d="M53.6,129.9c0,0.2,0.2,0.3,0.4,0.3c0.2,0,0.3-0.2,0.3-0.4c0-0.2-0.2-0.3-0.4-0.3C53.7,129.6,53.6,129.8,53.6,129.9z"
							/>
						<path d="M52.6,128.9c0,0.2,0.2,0.3,0.4,0.3c0.2,0,0.3-0.2,0.3-0.4c0-0.2-0.2-0.3-0.4-0.3C52.7,128.6,52.6,128.8,52.6,128.9z"
							/>
						<path d="M49.5,128.8c0,0.2,0.2,0.3,0.4,0.3c0.2,0,0.3-0.2,0.3-0.4c0-0.2-0.2-0.3-0.4-0.3C49.7,128.5,49.5,128.6,49.5,128.8z"
							/>
						<path d="M51,130.3c0,0.2,0.2,0.3,0.4,0.3c0.2,0,0.3-0.2,0.3-0.4c0-0.2-0.2-0.3-0.4-0.3C51.1,129.9,51,130.1,51,130.3z"/>
						<path d="M50.6,127.3c0,0.2,0.2,0.3,0.4,0.3c0.2,0,0.3-0.2,0.3-0.4c0-0.2-0.2-0.3-0.4-0.3C50.8,126.9,50.6,127.1,50.6,127.3z"
							/>
						<path d="M53.1,132.2c0,0.2,0.2,0.3,0.4,0.3c0.2,0,0.3-0.2,0.3-0.4c0-0.2-0.2-0.3-0.4-0.3C53.2,131.8,53.1,132,53.1,132.2z"/>
						<path d="M48.7,129.5c0,0.2,0.2,0.3,0.4,0.3c0.2,0,0.3-0.2,0.3-0.4c0-0.2-0.2-0.3-0.4-0.3C48.8,129.2,48.7,129.3,48.7,129.5z"
							/>
						<path d="M53.4,127.7c0,0.2,0.2,0.3,0.4,0.3c0.2,0,0.3-0.2,0.3-0.4c0-0.2-0.2-0.3-0.4-0.3C53.6,127.4,53.4,127.6,53.4,127.7z"
							/>
						<path d="M50.1,131.8c0,0.2,0.2,0.3,0.4,0.3c0.2,0,0.3-0.2,0.3-0.4c0-0.2-0.2-0.3-0.4-0.3C50.2,131.5,50,131.6,50.1,131.8z"/>
					</g>
					<g>
						<circle cx="50.2" cy="133.1" r="0.3"/>
						<path d="M51,134.4c-0.2,0-0.3,0.2-0.3,0.4c0,0.2,0.2,0.3,0.4,0.3c0.2,0,0.3-0.2,0.3-0.4C51.4,134.5,51.2,134.4,51,134.4z"/>
						<path d="M51.2,131.7c-0.2,0-0.3,0.2-0.3,0.4s0.2,0.3,0.4,0.3c0.2,0,0.3-0.2,0.3-0.4C51.5,131.9,51.4,131.7,51.2,131.7z"/>
						<path d="M52.6,126.1c-0.2,0-0.3,0.2-0.3,0.4c0,0.2,0.2,0.3,0.4,0.3c0.2,0,0.3-0.2,0.3-0.4C53,126.3,52.8,126.1,52.6,126.1z"/>
						<circle cx="51.3" cy="129" r="0.3"/>
						<path d="M49.9,130.2c-0.2,0-0.3,0.2-0.3,0.4c0,0.2,0.2,0.3,0.4,0.3c0.2,0,0.3-0.2,0.3-0.4C50.2,130.3,50,130.1,49.9,130.2z"/>
						<path d="M52.9,129.8c-0.2,0-0.3,0.2-0.3,0.4c0,0.2,0.2,0.3,0.4,0.3c0.2,0,0.3-0.2,0.3-0.4C53.2,129.9,53.1,129.8,52.9,129.8z"
							/>
						<path d="M47.9,132.3c-0.2,0-0.3,0.2-0.3,0.4c0,0.2,0.2,0.3,0.4,0.3c0.2,0,0.3-0.2,0.3-0.4C48.3,132.4,48.1,132.3,47.9,132.3z"
							/>
						<path d="M54.4,132.8c-0.2,0-0.3,0.2-0.3,0.4s0.2,0.3,0.4,0.3c0.2,0,0.3-0.2,0.3-0.4C54.8,132.9,54.6,132.8,54.4,132.8z"/>
						<path d="M49.2,127.3c-0.2,0-0.3,0.2-0.3,0.4c0,0.2,0.2,0.3,0.4,0.3c0.2,0,0.3-0.2,0.3-0.4C49.6,127.5,49.4,127.3,49.2,127.3z"
							/>
						<path d="M55.7,129.4c-0.2,0-0.3,0.2-0.3,0.4c0,0.2,0.2,0.3,0.4,0.3c0.2,0,0.3-0.2,0.3-0.4C56,129.5,55.8,129.4,55.7,129.4z"/>
						<path d="M49.2,125.1c-0.2,0-0.3,0.2-0.3,0.4c0,0.2,0.2,0.3,0.4,0.3c0.2,0,0.3-0.2,0.3-0.4C49.5,125.2,49.4,125.1,49.2,125.1z"
							/>
						<path d="M52.4,132.6c-0.2,0-0.3,0.2-0.3,0.4c0,0.2,0.2,0.3,0.4,0.3c0.2,0,0.3-0.2,0.3-0.4C52.7,132.7,52.6,132.6,52.4,132.6z"
							/>
						<path d="M48,130c-0.2,0-0.3,0.2-0.3,0.4c0,0.2,0.2,0.3,0.4,0.3c0.2,0,0.3-0.2,0.3-0.4S48.2,130,48,130z"/>
						<circle cx="47.4" cy="128.9" r="0.3"/>
					</g>
				</g>
				<g>
					<g>
						<path d="M50.1,131.6c-0.1,0.2,0,0.4,0.1,0.4c0.2,0.1,0.4,0,0.4-0.1c0.1-0.2,0-0.4-0.1-0.4C50.4,131.3,50.2,131.4,50.1,131.6z"
							/>
						<path d="M49.8,130.2c-0.1,0.2,0,0.4,0.1,0.4c0.2,0.1,0.4,0,0.4-0.1c0.1-0.2,0-0.4-0.1-0.4C50.1,130,49.9,130,49.8,130.2z"/>
						<path d="M47.3,128.5c-0.1,0.2,0,0.4,0.1,0.4c0.2,0.1,0.4,0,0.4-0.1c0.1-0.2,0-0.4-0.1-0.4C47.6,128.2,47.4,128.3,47.3,128.5z"
							/>
						<path d="M47.8,130.5c-0.1,0.2,0,0.4,0.1,0.4c0.2,0.1,0.4,0,0.4-0.1c0.1-0.2,0-0.4-0.1-0.4C48.1,130.2,47.9,130.3,47.8,130.5z"
							/>
						<path d="M49.1,127.7c-0.1,0.2,0,0.4,0.1,0.4c0.2,0.1,0.4,0,0.4-0.1c0.1-0.2,0-0.4-0.1-0.4C49.4,127.5,49.2,127.6,49.1,127.7z"
							/>
						<path d="M48.5,133.2c-0.1,0.2,0,0.4,0.1,0.4c0.2,0.1,0.4,0,0.4-0.1c0.1-0.2,0-0.4-0.1-0.4C48.8,133,48.6,133.1,48.5,133.2z"/>
						<path d="M46.2,128.6c-0.1,0.2,0,0.4,0.1,0.4c0.2,0.1,0.4,0,0.4-0.1c0.1-0.2,0-0.4-0.1-0.4C46.5,128.4,46.3,128.5,46.2,128.6z"
							/>
						<path d="M51.2,129.6c-0.1,0.2,0,0.4,0.1,0.4c0.2,0.1,0.4,0,0.4-0.1c0.1-0.2,0-0.4-0.1-0.4C51.5,129.4,51.3,129.5,51.2,129.6z"
							/>
						<path d="M46.2,131.3c-0.1,0.2,0,0.4,0.1,0.4c0.2,0.1,0.4,0,0.4-0.1c0.1-0.2,0-0.4-0.1-0.4C46.4,131.1,46.2,131.1,46.2,131.3z"
							/>
					</g>
					<g>
						<circle cx="45.6" cy="132.4" r="0.3"/>
						<path d="M45.6,134c-0.2-0.1-0.4,0-0.4,0.1c-0.1,0.2,0,0.4,0.1,0.4c0.2,0.1,0.4,0,0.4-0.1C45.8,134.3,45.8,134.1,45.6,134z"/>
						<path d="M47.1,131.8c-0.2-0.1-0.4,0-0.4,0.1c-0.1,0.2,0,0.4,0.1,0.4c0.2,0.1,0.4,0,0.4-0.1C47.4,132.1,47.3,131.9,47.1,131.8z
							"/>
						<path d="M51.4,127.8c-0.2-0.1-0.4,0-0.4,0.1c-0.1,0.2,0,0.4,0.1,0.4c0.2,0.1,0.4,0,0.4-0.1C51.6,128.1,51.5,127.9,51.4,127.8z
							"/>
						<circle cx="48.7" cy="129.6" r="0.3"/>
						<path d="M46.9,129.8c-0.2-0.1-0.4,0-0.4,0.1c-0.1,0.2,0,0.4,0.1,0.4c0.2,0.1,0.4,0,0.4-0.1C47.1,130.1,47,129.9,46.9,129.8z"
							/>
						<path d="M49.6,131.1c-0.2-0.1-0.4,0-0.4,0.1c-0.1,0.2,0,0.4,0.1,0.4c0.2,0.1,0.4,0,0.4-0.1C49.8,131.4,49.8,131.2,49.6,131.1z
							"/>
						<path d="M44.1,130.6c-0.2-0.1-0.4,0-0.4,0.1c-0.1,0.2,0,0.4,0.1,0.4c0.2,0.1,0.4,0,0.4-0.1C44.3,130.8,44.3,130.6,44.1,130.6z
							"/>
						<path d="M49.3,134.4c-0.2-0.1-0.4,0-0.4,0.1c-0.1,0.2,0,0.4,0.1,0.4c0.2,0.1,0.4,0,0.4-0.1C49.6,134.7,49.5,134.5,49.3,134.4z
							"/>
						<path d="M47.8,127.1c-0.2-0.1-0.4,0-0.4,0.1c-0.1,0.2,0,0.4,0.1,0.4c0.2,0.1,0.4,0,0.4-0.1C48,127.3,48,127.1,47.8,127.1z"/>
						<path d="M52.2,132.2c-0.2-0.1-0.4,0-0.4,0.1c-0.1,0.2,0,0.4,0.1,0.4c0.2,0.1,0.4,0,0.4-0.1C52.4,132.5,52.4,132.3,52.2,132.2z
							"/>
						<path d="M49,125.1c-0.2-0.1-0.4,0-0.4,0.1c-0.1,0.2,0,0.4,0.1,0.4c0.2,0.1,0.4,0,0.4-0.1C49.2,125.4,49.2,125.2,49,125.1z"/>
						<path d="M47.7,133.2c-0.2-0.1-0.4,0-0.4,0.1c-0.1,0.2,0,0.4,0.1,0.4c0.2,0.1,0.4,0,0.4-0.1S47.9,133.3,47.7,133.2z"/>
						<path d="M45.4,128.6c-0.2-0.1-0.4,0-0.4,0.1c-0.1,0.2,0,0.4,0.1,0.4c0.2,0.1,0.4,0,0.4-0.1C45.6,128.9,45.6,128.7,45.4,128.6z
							"/>
						<circle cx="45.4" cy="127.4" r="0.3"/>
					</g>
				</g>
			</g>
		</g>
		<polygon class="st12" points="46.5,91.6 47.8,153.5 21.1,156.7 19.2,92.7 		"/>
		<polygon class="st4" points="-50.8,92.2 26.8,90.7 25.9,163.4 -50.8,170.2 		"/>
		<g>
			<defs>
				<polygon id="SVGID_00000181059741971475727590000000263716092643709875_" points="-50.8,92.2 26.8,90.7 25.9,163.4 -50.8,170.2 
									"/>
			</defs>
			<clipPath id="SVGID_00000155828770933994752370000007956275664243123857_">
				<use xlink:href="#SVGID_00000181059741971475727590000000263716092643709875_"  style="overflow:visible;"/>
			</clipPath>
			<g style="clip-path:url(#SVGID_00000155828770933994752370000007956275664243123857_);">
				<line class="st14" x1="26.7" y1="96.3" x2="-50.3" y2="96.3"/>
				<line class="st14" x1="26.7" y1="104.2" x2="-50.3" y2="104.2"/>
				<line class="st14" x1="26.7" y1="112" x2="-50.3" y2="112"/>
				<line class="st14" x1="26.7" y1="119.8" x2="-50.3" y2="119.8"/>
				<line class="st14" x1="26.7" y1="127.6" x2="-50.3" y2="127.6"/>
				<line class="st14" x1="26.7" y1="135.5" x2="-50.3" y2="135.5"/>
				<line class="st14" x1="26.7" y1="143.3" x2="-50.3" y2="143.3"/>
				<line class="st14" x1="26.7" y1="151.1" x2="-50.3" y2="151.1"/>
				<line class="st14" x1="26.7" y1="159" x2="-50.3" y2="159"/>
				<line class="st14" x1="26.7" y1="166.8" x2="-50.3" y2="166.8"/>
			</g>
			
				<use xlink:href="#SVGID_00000181059741971475727590000000263716092643709875_"  style="overflow:visible;fill:none;stroke:#F4F4F4;stroke-miterlimit:10;"/>
		</g>
	</g>
</g>
</svg>
