<?xml version="1.0" encoding="utf-8"?>
<!-- Generator: Adobe Illustrator 27.8.1, SVG Export Plug-In . SVG Version: 6.00 Build 0)  -->
<svg version="1.1" id="Livello_1" xmlns="http://www.w3.org/2000/svg" xmlns:xlink="http://www.w3.org/1999/xlink" x="0px" y="0px"
	 viewBox="0 0 200 200" style="enable-background:new 0 0 200 200;" xml:space="preserve">
<style type="text/css">
	.st0{fill:#71BFEC;}
	.st1{fill:none;stroke:#000000;stroke-linecap:round;stroke-linejoin:round;stroke-miterlimit:10;}
	.st2{fill:#F4F4F4;}
	.st3{fill:#CDD5D7;}
	.st4{fill:#080717;}
	.st5{fill:#EFEFEF;stroke:#0F0F0F;}
	.st6{fill:none;stroke:#0F0F0F;}
	.st7{fill:none;stroke:#1D1D1B;stroke-width:2;}
	.st8{fill:#1D1D1B;}
	.st9{fill:#FFFFFF;stroke:#000000;stroke-linecap:round;stroke-linejoin:round;stroke-miterlimit:10;}
	.st10{fill:#0095D5;}
	.st11{fill:#FFFFFF;}
	.st12{fill:#F8B234;}
	.st13{clip-path:url(#SVGID_00000116224195702687872250000000380615788822309309_);}
	.st14{fill:none;stroke:#F4F4F4;stroke-miterlimit:10;}
	.st15{fill:none;stroke:#FFFFFF;}
	.st16{fill:none;stroke:#FFFFFF;stroke-width:0.5;}
	.st17{fill:none;stroke:#FFFFFF;stroke-linejoin:round;stroke-miterlimit:10;}
	.st18{clip-path:url(#SVGID_00000090995484386533768800000007870992267081722275_);}
	.st19{fill:none;stroke:#1D1D1B;stroke-miterlimit:10;}
	.st20{opacity:0.4;}
	.st21{fill:none;stroke:#080717;stroke-width:12;}
	.st22{fill:#0095D5;stroke:#000000;stroke-linecap:round;stroke-linejoin:round;stroke-miterlimit:10;}
	.st23{fill:none;stroke:#080717;stroke-linecap:round;stroke-linejoin:round;stroke-miterlimit:10;}
	.st24{fill:#21CFA9;}
	.st25{clip-path:url(#SVGID_00000054956630370756673580000004064079229687095708_);}
	.st26{fill:#0086DA;}
	.st27{clip-path:url(#SVGID_00000178181676644091556360000000868165789644950450_);}
	.st28{clip-path:url(#SVGID_00000050648395927285909710000003735064382109424552_);}
	.st29{opacity:0.4;clip-path:url(#SVGID_00000041977076986969453580000001062121984360864700_);}
	.st30{clip-path:url(#SVGID_00000041977076986969453580000001062121984360864700_);}
	.st31{clip-path:url(#SVGID_00000073708552690739985340000013375678775911508877_);}
</style>
<circle class="st0" cx="100" cy="100" r="99"/>
<g>
	<defs>
		<circle id="SVGID_00000127018136811368544550000000222144260325412017_" cx="100" cy="100" r="99"/>
	</defs>
	<clipPath id="SVGID_00000055673554011295670160000005941580980400379029_">
		<use xlink:href="#SVGID_00000127018136811368544550000000222144260325412017_"  style="overflow:visible;"/>
	</clipPath>
	<g style="clip-path:url(#SVGID_00000055673554011295670160000005941580980400379029_);">
		<g class="st20">
			<polygon class="st10" points="161.5,65.3 141.7,88.3 120,67.3 16.1,161.9 16.1,174.9 119.7,80.5 142.3,102.4 168.8,71.6 			"/>
			<polygon class="st10" points="172.8,79.4 172.8,62 155.3,62 			"/>
		</g>
		<path class="st9" d="M68.9,204.6l15.8-27.4l34.1-7.2c0,0-2.8,11.7-4.1,15.8c-1.5,4.5-7.2,18.8-7.2,18.8H68.9z"/>
		<path class="st9" d="M79.3,186.5c-6.5-4.2-17-15.1-19.9-22.2l-1.5-3.7c-1.1-2.7-0.3-5.9,2-7.7l28.5-22.2c0.4-0.3,0.9-0.5,1.4-0.5
			c0.3,0,0.5,0,0.8,0.1c0.8,0.3,1.3,0.9,1.5,1.7c0.4,1.9-0.2,3.9-0.2,4.7l0.9,0.7l11.1,8.8c0.1,0.1,0.2,0.1,0.3,0
			c0.1-0.1,0.2-0.2,0.1-0.3l-3.1-28.9c-0.1-1.1,0.3-2.3,1-3.1c0.8-0.8,1.9-1.3,3.1-1.2c1.6,0.1,3,1.1,3.5,2.6l6.8,19.3
			c5.6,15.7,5.4,32.9-0.5,48.5"/>
		<path class="st12" d="M50.3,73.8c-5.5-16.3,3.3-33.9,19.6-39.4s33.9,3.3,39.4,19.6c3.7,10.9,0.9,22.4-6.2,30.5l3.8,11.4l-29.5,9.9
			l-3.8-11.4C63.1,92.2,53.9,84.7,50.3,73.8z"/>
		<path class="st15" d="M97.5,98.9c0,0-9.3-27.1-9.4-35.8C88,60,91,50.3,95.6,53.2c4.6,2.9-4.6,21.3-14.5,15.2
			c-6-3.7-13.9-19.6-7.6-20.3c3.8-0.4,13.7,18,7.7,22.7c-8,6.3-15.7-0.8-17-3.6c-1.3-2.8,10.6-0.7,14.8,9.2
			c4.2,9.9,8.8,26.3,8.8,26.3"/>
		<path class="st4" d="M99.4,122.2L99.4,122.2c8.1-2.7,12.5-11.5,9.8-19.6l-2.2-6.7l-29.4,9.8l2.2,6.7
			C82.5,120.5,91.3,124.9,99.4,122.2z"/>
		<line class="st21" x1="110.2" y1="102.9" x2="78.3" y2="113.6"/>
		<line class="st21" x1="108.3" y1="96.7" x2="76.5" y2="107.4"/>
		<path class="st9" d="M58,155.3l-2.9-5.8c-1.7-3.4-0.7-7.5,2.5-9.8l34-23.9c0.6-0.4,1.4-0.6,2.1-0.3c0.7,0.2,1.3,0.7,1.5,1.4
			c0.8,2.5,0.3,5.2-1.4,7.2l-4.9,5.9L58,155.3z"/>
		<path class="st9" d="M67.5,86.8c0.2-0.8,0.8-1.2,1.3-1.3c0.5-0.1,1.3,0.1,1.7,0.8l0.2-0.2l-0.2,0.2c1.3,2.1,1.9,4.6,1.8,7.2
			l-1.6,29.4c0,0.1,0,0.1,0,0.2l-12.1,7.1c-0.4,0.3-0.8,0.5-1.2,0.8L67.5,86.8z"/>
		<path class="st9" d="M94,116.2c-0.9-0.3-1.8-0.1-2.6,0.4l-34,23.9c-1.3,0.9-2.3,2.1-2.9,3.5l-0.2-0.6c-1.9-5,0.1-10.7,4.7-13.4
			l32.5-19.1c0.6-0.4,1.4-0.4,2.1-0.2c0.7,0.3,1.2,0.8,1.4,1.5c0.5,1.5,0.6,3,0.4,4.5l-0.1,0.5C95.1,116.7,94.6,116.4,94,116.2z"/>
		<path class="st9" d="M95,168.6l-0.6-5.9c-0.8-7.1,3.3-13.9,10-16.5h0"/>
		<g>
			<path class="st11" d="M103.6,121.9c0,0,5.7,2.1,4.7-4.9"/>
			<g>
				<g>
					<g>
						<path d="M109.1,117.7c0.1,0.1,0.3,0.1,0.5,0c0.1-0.1,0.1-0.3,0-0.5c-0.1-0.1-0.3-0.1-0.5,0
							C108.9,117.3,108.9,117.5,109.1,117.7z"/>
						<path d="M107.6,117.6c0.1,0.1,0.3,0.1,0.5,0c0.1-0.1,0.1-0.3,0-0.5c-0.1-0.1-0.3-0.1-0.5,0
							C107.5,117.3,107.5,117.5,107.6,117.6z"/>
						<path d="M105.3,119.5c0.1,0.1,0.3,0.1,0.5,0c0.1-0.1,0.1-0.3,0-0.5c-0.1-0.1-0.3-0.1-0.5,0
							C105.2,119.2,105.2,119.4,105.3,119.5z"/>
						<path d="M107.3,119.6c0.1,0.1,0.3,0.1,0.5,0c0.1-0.1,0.1-0.3,0-0.5s-0.3-0.1-0.5,0C107.2,119.3,107.2,119.5,107.3,119.6z"/>
						<path d="M105.1,117.6c0.1,0.1,0.3,0.1,0.5,0c0.1-0.1,0.1-0.3,0-0.5c-0.1-0.1-0.3-0.1-0.5,0C105,117.3,105,117.5,105.1,117.6z"
							/>
						<path d="M110.2,119.7c0.1,0.1,0.3,0.1,0.5,0c0.1-0.1,0.1-0.3,0-0.5c-0.1-0.1-0.3-0.1-0.5,0
							C110.1,119.3,110.1,119.5,110.2,119.7z"/>
						<path d="M105.1,120.6c0.1,0.1,0.3,0.1,0.5,0c0.1-0.1,0.1-0.3,0-0.5c-0.1-0.1-0.3-0.1-0.5,0C105,120.3,105,120.5,105.1,120.6z"
							/>
						<path d="M107.5,116.1c0.1,0.1,0.3,0.1,0.5,0c0.1-0.1,0.1-0.3,0-0.5c-0.1-0.1-0.3-0.1-0.5,0C107.4,115.8,107.4,116,107.5,116.1
							z"/>
						<path d="M107.7,121.4c0.1,0.1,0.3,0.1,0.5,0c0.1-0.1,0.1-0.3,0-0.5c-0.1-0.1-0.3-0.1-0.5,0
							C107.5,121.1,107.5,121.3,107.7,121.4z"/>
					</g>
					<g>
						<circle cx="108.6" cy="122.3" r="0.3"/>
						<path d="M110.1,122.7c-0.1,0.1-0.1,0.3,0,0.5c0.1,0.1,0.3,0.1,0.5,0c0.1-0.1,0.1-0.3,0-0.5
							C110.5,122.6,110.2,122.6,110.1,122.7z"/>
						<path d="M108.5,120.6c-0.1,0.1-0.1,0.3,0,0.5c0.1,0.1,0.3,0.1,0.5,0c0.1-0.1,0.1-0.3,0-0.5
							C108.8,120.5,108.6,120.5,108.5,120.6z"/>
						<path d="M105.8,115.4c-0.1,0.1-0.1,0.3,0,0.5c0.1,0.1,0.3,0.1,0.5,0c0.1-0.1,0.1-0.3,0-0.5C106.2,115.3,106,115.3,105.8,115.4
							z"/>
						<circle cx="106.8" cy="118.5" r="0.3"/>
						<path d="M106.4,120.3c-0.1,0.1-0.1,0.3,0,0.5c0.1,0.1,0.3,0.1,0.5,0c0.1-0.1,0.1-0.3,0-0.5
							C106.8,120.2,106.6,120.2,106.4,120.3z"/>
						<path d="M108.4,118c-0.1,0.1-0.1,0.3,0,0.5c0.1,0.1,0.3,0.1,0.5,0c0.1-0.1,0.1-0.3,0-0.5C108.8,117.9,108.6,117.9,108.4,118z"
							/>
						<path d="M106.4,123.2c-0.1,0.1-0.1,0.3,0,0.5c0.1,0.1,0.3,0.1,0.5,0c0.1-0.1,0.1-0.3,0-0.5C106.7,123,106.5,123,106.4,123.2z"
							/>
						<path d="M111.6,119.2c-0.1,0.1-0.1,0.3,0,0.5c0.1,0.1,0.3,0.1,0.5,0c0.1-0.1,0.1-0.3,0-0.5
							C111.9,119.1,111.7,119.1,111.6,119.2z"/>
						<path d="M104.1,118.6c-0.1,0.1-0.1,0.3,0,0.5c0.1,0.1,0.3,0.1,0.5,0c0.1-0.1,0.1-0.3,0-0.5
							C104.4,118.5,104.2,118.5,104.1,118.6z"/>
						<path d="M110.2,115.9c-0.1,0.1-0.1,0.3,0,0.5c0.1,0.1,0.3,0.1,0.5,0c0.1-0.1,0.1-0.3,0-0.5
							C110.6,115.7,110.4,115.7,110.2,115.9z"/>
						<path d="M102.6,116.9c-0.1,0.1-0.1,0.3,0,0.5c0.1,0.1,0.3,0.1,0.5,0c0.1-0.1,0.1-0.3,0-0.5
							C102.9,116.8,102.7,116.8,102.6,116.9z"/>
						<path d="M109.9,120.4c-0.1,0.1-0.1,0.3,0,0.5s0.3,0.1,0.5,0c0.1-0.1,0.1-0.3,0-0.5S110.1,120.3,109.9,120.4z"/>
						<path d="M104.9,121.4c-0.1,0.1-0.1,0.3,0,0.5c0.1,0.1,0.3,0.1,0.5,0c0.1-0.1,0.1-0.3,0-0.5
							C105.3,121.2,105.1,121.2,104.9,121.4z"/>
						<circle cx="103.8" cy="121" r="0.3"/>
					</g>
				</g>
				<g>
					<g>
						<path d="M104.9,122.4c-0.1-0.1-0.3-0.2-0.5-0.1c-0.1,0.1-0.2,0.3-0.1,0.5c0.1,0.1,0.3,0.2,0.5,0.1
							C105,122.7,105,122.5,104.9,122.4z"/>
						<path d="M106.3,122.6c-0.1-0.1-0.3-0.2-0.5-0.1c-0.1,0.1-0.2,0.3-0.1,0.5c0.1,0.1,0.3,0.2,0.5,0.1
							C106.4,123,106.4,122.8,106.3,122.6z"/>
						<path d="M108.9,121c-0.1-0.1-0.3-0.2-0.5-0.1c-0.1,0.1-0.2,0.3-0.1,0.5s0.3,0.2,0.5,0.1C109,121.4,109,121.2,108.9,121z"/>
						<path d="M106.9,120.7c-0.1-0.1-0.3-0.2-0.5-0.1c-0.1,0.1-0.2,0.3-0.1,0.5c0.1,0.1,0.3,0.2,0.5,0.1
							C106.9,121,107,120.8,106.9,120.7z"/>
						<path d="M108.8,122.9c-0.1-0.1-0.3-0.2-0.5-0.1c-0.1,0.1-0.2,0.3-0.1,0.5c0.1,0.1,0.3,0.2,0.5,0.1
							C108.9,123.3,108.9,123.1,108.8,122.9z"/>
						<path d="M104,120.3c-0.1-0.1-0.3-0.2-0.5-0.1c-0.1,0.1-0.2,0.3-0.1,0.5c0.1,0.1,0.3,0.2,0.5,0.1
							C104.1,120.6,104.1,120.4,104,120.3z"/>
						<path d="M109.2,120c-0.1-0.1-0.3-0.2-0.5-0.1c-0.1,0.1-0.2,0.3-0.1,0.5c0.1,0.1,0.3,0.2,0.5,0.1
							C109.3,120.3,109.3,120.1,109.2,120z"/>
						<path d="M106.3,124.1c-0.1-0.1-0.3-0.2-0.5-0.1c-0.1,0.1-0.2,0.3-0.1,0.5c0.1,0.1,0.3,0.2,0.5,0.1
							C106.3,124.5,106.4,124.3,106.3,124.1z"/>
						<path d="M106.8,118.8c-0.1-0.1-0.3-0.2-0.5-0.1c-0.1,0.1-0.2,0.3-0.1,0.5c0.1,0.1,0.3,0.2,0.5,0.1
							C106.8,119.2,106.9,119,106.8,118.8z"/>
					</g>
					<g>
						<circle cx="105.9" cy="117.9" r="0.3"/>
						<path d="M104.5,117.2c0.1-0.1,0.2-0.3,0.1-0.5c-0.1-0.1-0.3-0.2-0.5-0.1c-0.1,0.1-0.2,0.3-0.1,0.5
							C104.1,117.3,104.3,117.4,104.5,117.2z"/>
						<path d="M105.9,119.5c0.1-0.1,0.2-0.3,0.1-0.5c-0.1-0.1-0.3-0.2-0.5-0.1c-0.1,0.1-0.2,0.3-0.1,0.5
							C105.5,119.6,105.7,119.6,105.9,119.5z"/>
						<path d="M107.8,125c0.1-0.1,0.2-0.3,0.1-0.5c-0.1-0.1-0.3-0.2-0.5-0.1c-0.1,0.1-0.2,0.3-0.1,0.5
							C107.5,125.1,107.7,125.1,107.8,125z"/>
						<circle cx="107.3" cy="121.9" r="0.3"/>
						<path d="M107.8,120.1c0.1-0.1,0.2-0.3,0.1-0.5c-0.1-0.1-0.3-0.2-0.5-0.1c-0.1,0.1-0.2,0.3-0.1,0.5
							C107.5,120.2,107.7,120.2,107.8,120.1z"/>
						<path d="M105.6,122.1c0.1-0.1,0.2-0.3,0.1-0.5c-0.1-0.1-0.3-0.2-0.5-0.1c-0.1,0.1-0.2,0.3-0.1,0.5
							C105.2,122.2,105.4,122.2,105.6,122.1z"/>
						<path d="M108.2,117.3c0.1-0.1,0.2-0.3,0.1-0.5c-0.1-0.1-0.3-0.2-0.5-0.1c-0.1,0.1-0.2,0.3-0.1,0.5
							C107.9,117.3,108.1,117.4,108.2,117.3z"/>
						<path d="M102.6,120.5c0.1-0.1,0.2-0.3,0.1-0.5c-0.1-0.1-0.3-0.2-0.5-0.1c-0.1,0.1-0.2,0.3-0.1,0.5
							C102.2,120.6,102.4,120.6,102.6,120.5z"/>
						<path d="M110,122c0.1-0.1,0.2-0.3,0.1-0.5c-0.1-0.1-0.3-0.2-0.5-0.1c-0.1,0.1-0.2,0.3-0.1,0.5
							C109.6,122.1,109.8,122.2,110,122z"/>
						<path d="M103.5,124c0.1-0.1,0.2-0.3,0.1-0.5c-0.1-0.1-0.3-0.2-0.5-0.1c-0.1,0.1-0.2,0.3-0.1,0.5
							C103.2,124.1,103.4,124.1,103.5,124z"/>
						<path d="M111.3,123.9c0.1-0.1,0.2-0.3,0.1-0.5c-0.1-0.1-0.3-0.2-0.5-0.1c-0.1,0.1-0.2,0.3-0.1,0.5
							C110.9,124,111.1,124,111.3,123.9z"/>
						<path d="M104.4,119.5c0.1-0.1,0.2-0.3,0.1-0.5s-0.3-0.2-0.5-0.1c-0.1,0.1-0.2,0.3-0.1,0.5S104.2,119.6,104.4,119.5z"/>
						<path d="M109.5,119.2c0.1-0.1,0.2-0.3,0.1-0.5c-0.1-0.1-0.3-0.2-0.5-0.1c-0.1,0.1-0.2,0.3-0.1,0.5
							C109.1,119.3,109.3,119.3,109.5,119.2z"/>
						<circle cx="110.6" cy="119.7" r="0.3"/>
					</g>
				</g>
				<g>
					<g>
						<path d="M101.8,120.6c0-0.2-0.2-0.3-0.3-0.3c-0.2,0-0.3,0.2-0.3,0.3c0,0.2,0.2,0.3,0.3,0.3
							C101.7,120.9,101.8,120.8,101.8,120.6z"/>
						<path d="M102.8,121.6c0-0.2-0.2-0.3-0.3-0.3c-0.2,0-0.3,0.2-0.3,0.3c0,0.2,0.2,0.3,0.3,0.3C102.7,122,102.8,121.8,102.8,121.6
							z"/>
						<path d="M105.9,121.9c0-0.2-0.2-0.3-0.3-0.3c-0.2,0-0.3,0.2-0.3,0.3c0,0.2,0.2,0.3,0.3,0.3
							C105.7,122.2,105.9,122.1,105.9,121.9z"/>
						<path d="M104.4,120.4c0-0.2-0.2-0.3-0.3-0.3c-0.2,0-0.3,0.2-0.3,0.3c0,0.2,0.2,0.3,0.3,0.3
							C104.3,120.7,104.4,120.6,104.4,120.4z"/>
						<path d="M104.7,123.4c0-0.2-0.2-0.3-0.3-0.3c-0.2,0-0.3,0.2-0.3,0.3c0,0.2,0.2,0.3,0.3,0.3
							C104.6,123.7,104.7,123.6,104.7,123.4z"/>
						<path d="M102.4,118.4c0-0.2-0.2-0.3-0.3-0.3c-0.2,0-0.3,0.2-0.3,0.3c0,0.2,0.2,0.3,0.3,0.3
							C102.2,118.7,102.4,118.6,102.4,118.4z"/>
						<path d="M106.7,121.2c0-0.2-0.2-0.3-0.3-0.3c-0.2,0-0.3,0.2-0.3,0.3c0,0.2,0.2,0.3,0.3,0.3
							C106.6,121.5,106.7,121.4,106.7,121.2z"/>
						<path d="M101.9,122.8c0-0.2-0.2-0.3-0.3-0.3c-0.2,0-0.3,0.2-0.3,0.3c0,0.2,0.2,0.3,0.3,0.3C101.8,123.2,101.9,123,101.9,122.8
							z"/>
						<path d="M105.4,118.9c0-0.2-0.2-0.3-0.3-0.3c-0.2,0-0.3,0.2-0.3,0.3c0,0.2,0.2,0.3,0.3,0.3C105.3,119.2,105.4,119,105.4,118.9
							z"/>
					</g>
					<g>
						<circle cx="105.3" cy="117.6" r="0.3"/>
						<path d="M104.5,116.2c0.2,0,0.3-0.2,0.3-0.3c0-0.2-0.2-0.3-0.3-0.3c-0.2,0-0.3,0.2-0.3,0.3
							C104.2,116.1,104.4,116.2,104.5,116.2z"/>
						<path d="M104.3,118.9c0.2,0,0.3-0.2,0.3-0.3c0-0.2-0.2-0.3-0.3-0.3c-0.2,0-0.3,0.2-0.3,0.3C104,118.8,104.1,118.9,104.3,118.9
							z"/>
						<path d="M102.7,124.5c0.2,0,0.3-0.2,0.3-0.3c0-0.2-0.2-0.3-0.3-0.3c-0.2,0-0.3,0.2-0.3,0.3
							C102.3,124.3,102.5,124.5,102.7,124.5z"/>
						<circle cx="104.1" cy="121.6" r="0.3"/>
						<path d="M105.6,120.5c0.2,0,0.3-0.2,0.3-0.3c0-0.2-0.2-0.3-0.3-0.3c-0.2,0-0.3,0.2-0.3,0.3
							C105.2,120.4,105.4,120.5,105.6,120.5z"/>
						<path d="M102.5,120.8c0.2,0,0.3-0.2,0.3-0.3c0-0.2-0.2-0.3-0.3-0.3c-0.2,0-0.3,0.2-0.3,0.3
							C102.2,120.6,102.4,120.8,102.5,120.8z"/>
						<path d="M107.6,118.5c0.2,0,0.3-0.2,0.3-0.3c0-0.2-0.2-0.3-0.3-0.3c-0.2,0-0.3,0.2-0.3,0.3
							C107.2,118.3,107.4,118.5,107.6,118.5z"/>
						<path d="M101.1,117.7c0.2,0,0.3-0.2,0.3-0.3c0-0.2-0.2-0.3-0.3-0.3c-0.2,0-0.3,0.2-0.3,0.3
							C100.7,117.6,100.9,117.7,101.1,117.7z"/>
						<path d="M106.1,123.3c0.2,0,0.3-0.2,0.3-0.3c0-0.2-0.2-0.3-0.3-0.3c-0.2,0-0.3,0.2-0.3,0.3
							C105.8,123.2,105.9,123.3,106.1,123.3z"/>
						<path d="M99.8,121.1c0.2,0,0.3-0.2,0.3-0.3c0-0.2-0.2-0.3-0.3-0.3c-0.2,0-0.3,0.2-0.3,0.3C99.4,121,99.6,121.1,99.8,121.1z"/>
						<path d="M106.1,125.6c0.2,0,0.3-0.2,0.3-0.3c0-0.2-0.2-0.3-0.3-0.3c-0.2,0-0.3,0.2-0.3,0.3
							C105.7,125.5,105.9,125.6,106.1,125.6z"/>
						<path d="M103.1,118c0.2,0,0.3-0.2,0.3-0.3c0-0.2-0.2-0.3-0.3-0.3c-0.2,0-0.3,0.2-0.3,0.3C102.8,117.9,102.9,118,103.1,118z"/>
						<path d="M107.4,120.8c0.2,0,0.3-0.2,0.3-0.3c0-0.2-0.2-0.3-0.3-0.3c-0.2,0-0.3,0.2-0.3,0.3
							C107.1,120.6,107.2,120.8,107.4,120.8z"/>
						<circle cx="108" cy="121.8" r="0.3"/>
					</g>
				</g>
			</g>
		</g>
		<g>
			<line class="st11" x1="90.5" y1="139.2" x2="66.4" y2="165.9"/>
			<g>
				<g>
					<g>
						<path d="M66.3,165.4c0.1-0.2,0-0.4-0.2-0.4c-0.2-0.1-0.4,0-0.4,0.2c-0.1,0.2,0,0.4,0.2,0.4C66,165.6,66.2,165.6,66.3,165.4z"
							/>
						<path d="M66.7,166.7c0.1-0.2,0-0.4-0.2-0.4c-0.2-0.1-0.4,0-0.4,0.2c-0.1,0.2,0,0.4,0.2,0.4C66.5,167,66.6,166.9,66.7,166.7z"
							/>
						<path d="M69.3,168.3c0.1-0.2,0-0.4-0.2-0.4c-0.2-0.1-0.4,0-0.4,0.2c-0.1,0.2,0,0.4,0.2,0.4C69.1,168.5,69.3,168.5,69.3,168.3z
							"/>
						<path d="M68.7,166.3c0.1-0.2,0-0.4-0.2-0.4c-0.2-0.1-0.4,0-0.4,0.2s0,0.4,0.2,0.4C68.5,166.6,68.7,166.5,68.7,166.3z"/>
						<path d="M67.6,169.1c0.1-0.2,0-0.4-0.2-0.4c-0.2-0.1-0.4,0-0.4,0.2c-0.1,0.2,0,0.4,0.2,0.4C67.4,169.4,67.6,169.3,67.6,169.1z
							"/>
						<path d="M67.8,163.6c0.1-0.2,0-0.4-0.2-0.4c-0.2-0.1-0.4,0-0.4,0.2c-0.1,0.2,0,0.4,0.2,0.4C67.5,163.9,67.7,163.8,67.8,163.6z
							"/>
						<path d="M70.4,168.1c0.1-0.2,0-0.4-0.2-0.4c-0.2-0.1-0.4,0-0.4,0.2c-0.1,0.2,0,0.4,0.2,0.4C70.2,168.3,70.3,168.2,70.4,168.1z
							"/>
						<path d="M65.4,167.4c0.1-0.2,0-0.4-0.2-0.4c-0.2-0.1-0.4,0-0.4,0.2c-0.1,0.2,0,0.4,0.2,0.4C65.1,167.7,65.3,167.6,65.4,167.4z
							"/>
						<path d="M70.3,165.4c0.1-0.2,0-0.4-0.2-0.4s-0.4,0-0.4,0.2c-0.1,0.2,0,0.4,0.2,0.4S70.2,165.6,70.3,165.4z"/>
					</g>
					<g>
						<circle cx="70.7" cy="164.2" r="0.3"/>
						<path d="M70.7,162.6c0.2,0.1,0.4,0,0.4-0.2c0.1-0.2,0-0.4-0.2-0.4c-0.2-0.1-0.4,0-0.4,0.2C70.4,162.4,70.5,162.6,70.7,162.6z"
							/>
						<path d="M69.3,164.9c0.2,0.1,0.4,0,0.4-0.2c0.1-0.2,0-0.4-0.2-0.4c-0.2-0.1-0.4,0-0.4,0.2C69,164.7,69.1,164.9,69.3,164.9z"/>
						<path d="M65.3,169.2c0.2,0.1,0.4,0,0.4-0.2s0-0.4-0.2-0.4c-0.2-0.1-0.4,0-0.4,0.2C65.1,168.9,65.2,169.1,65.3,169.2z"/>
						<circle cx="67.8" cy="167.3" r="0.3"/>
						<path d="M69.7,166.9c0.2,0.1,0.4,0,0.4-0.2c0.1-0.2,0-0.4-0.2-0.4c-0.2-0.1-0.4,0-0.4,0.2C69.4,166.7,69.5,166.9,69.7,166.9z"
							/>
						<path d="M66.9,165.8c0.2,0.1,0.4,0,0.4-0.2c0.1-0.2,0-0.4-0.2-0.4c-0.2-0.1-0.4,0-0.4,0.2C66.6,165.6,66.7,165.8,66.9,165.8z"
							/>
						<path d="M72.4,166c0.2,0.1,0.4,0,0.4-0.2c0.1-0.2,0-0.4-0.2-0.4c-0.2-0.1-0.4,0-0.4,0.2C72.1,165.7,72.2,165.9,72.4,166z"/>
						<path d="M66.9,162.5c0.2,0.1,0.4,0,0.4-0.2c0.1-0.2,0-0.4-0.2-0.4c-0.2-0.1-0.4,0-0.4,0.2C66.6,162.2,66.7,162.4,66.9,162.5z"
							/>
						<path d="M68.9,169.7c0.2,0.1,0.4,0,0.4-0.2c0.1-0.2,0-0.4-0.2-0.4c-0.2-0.1-0.4,0-0.4,0.2C68.7,169.5,68.8,169.7,68.9,169.7z"
							/>
						<path d="M64.2,164.9c0.2,0.1,0.4,0,0.4-0.2c0.1-0.2,0-0.4-0.2-0.4c-0.2-0.1-0.4,0-0.4,0.2C64,164.7,64,164.9,64.2,164.9z"/>
						<path d="M67.9,171.7c0.2,0.1,0.4,0,0.4-0.2c0.1-0.2,0-0.4-0.2-0.4c-0.2-0.1-0.4,0-0.4,0.2C67.6,171.5,67.7,171.7,67.9,171.7z"
							/>
						<path d="M68.6,163.6c0.2,0.1,0.4,0,0.4-0.2c0.1-0.2,0-0.4-0.2-0.4c-0.2-0.1-0.4,0-0.4,0.2C68.4,163.3,68.4,163.5,68.6,163.6z"
							/>
						<path d="M71.2,168c0.2,0.1,0.4,0,0.4-0.2c0.1-0.2,0-0.4-0.2-0.4c-0.2-0.1-0.4,0-0.4,0.2C71,167.7,71,167.9,71.2,168z"/>
						<circle cx="71.3" cy="169.2" r="0.3"/>
					</g>
				</g>
				<g>
					<g>
						<path d="M68.2,162.8c0.1-0.2,0-0.4-0.2-0.4c-0.2-0.1-0.4,0-0.4,0.2c-0.1,0.2,0,0.4,0.2,0.4C67.9,163.1,68.1,163,68.2,162.8z"
							/>
						<path d="M68.6,164.2c0.1-0.2,0-0.4-0.2-0.4c-0.2-0.1-0.4,0-0.4,0.2c-0.1,0.2,0,0.4,0.2,0.4C68.3,164.4,68.5,164.3,68.6,164.2z
							"/>
						<path d="M71.3,165.7c0.1-0.2,0-0.4-0.2-0.4c-0.2-0.1-0.4,0-0.4,0.2s0,0.4,0.2,0.4C71,165.9,71.2,165.9,71.3,165.7z"/>
						<path d="M70.6,163.7c0.1-0.2,0-0.4-0.2-0.4c-0.2-0.1-0.4,0-0.4,0.2c-0.1,0.2,0,0.4,0.2,0.4C70.4,164,70.5,163.9,70.6,163.7z"
							/>
						<path d="M69.5,166.6c0.1-0.2,0-0.4-0.2-0.4c-0.2-0.1-0.4,0-0.4,0.2c-0.1,0.2,0,0.4,0.2,0.4C69.3,166.8,69.5,166.7,69.5,166.6z
							"/>
						<path d="M69.6,161c0.1-0.2,0-0.4-0.2-0.4c-0.2-0.1-0.4,0-0.4,0.2c-0.1,0.2,0,0.4,0.2,0.4C69.4,161.3,69.6,161.2,69.6,161z"/>
						<path d="M72.3,165.4c0.1-0.2,0-0.4-0.2-0.4c-0.2-0.1-0.4,0-0.4,0.2c-0.1,0.2,0,0.4,0.2,0.4C72.1,165.7,72.3,165.6,72.3,165.4z
							"/>
						<path d="M67.3,164.8c0.1-0.2,0-0.4-0.2-0.4c-0.2-0.1-0.4,0-0.4,0.2c-0.1,0.2,0,0.4,0.2,0.4C67,165.1,67.2,165,67.3,164.8z"/>
						<path d="M72.2,162.8c0.1-0.2,0-0.4-0.2-0.4c-0.2-0.1-0.4,0-0.4,0.2c-0.1,0.2,0,0.4,0.2,0.4S72.1,163,72.2,162.8z"/>
					</g>
					<g>
						<circle cx="72.6" cy="161.6" r="0.3"/>
						<path d="M72.5,160c0.2,0.1,0.4,0,0.4-0.2c0.1-0.2,0-0.4-0.2-0.4c-0.2-0.1-0.4,0-0.4,0.2C72.3,159.8,72.4,160,72.5,160z"/>
						<path d="M71.1,162.3c0.2,0.1,0.4,0,0.4-0.2c0.1-0.2,0-0.4-0.2-0.4c-0.2-0.1-0.4,0-0.4,0.2C70.9,162.1,71,162.3,71.1,162.3z"/>
						<path d="M67.3,166.6c0.2,0.1,0.4,0,0.4-0.2c0.1-0.2,0-0.4-0.2-0.4c-0.2-0.1-0.4,0-0.4,0.2C67,166.4,67.1,166.6,67.3,166.6z"/>
						<circle cx="69.7" cy="164.7" r="0.3"/>
						<path d="M71.6,164.3c0.2,0.1,0.4,0,0.4-0.2c0.1-0.2,0-0.4-0.2-0.4c-0.2-0.1-0.4,0-0.4,0.2C71.3,164.1,71.4,164.3,71.6,164.3z"
							/>
						<path d="M68.8,163.3c0.2,0.1,0.4,0,0.4-0.2c0.1-0.2,0-0.4-0.2-0.4c-0.2-0.1-0.4,0-0.4,0.2C68.5,163,68.6,163.2,68.8,163.3z"/>
						<path d="M74.3,163.4c0.2,0.1,0.4,0,0.4-0.2c0.1-0.2,0-0.4-0.2-0.4c-0.2-0.1-0.4,0-0.4,0.2C74,163.1,74.1,163.3,74.3,163.4z"/>
						<path d="M68.8,159.9c0.2,0.1,0.4,0,0.4-0.2c0.1-0.2,0-0.4-0.2-0.4c-0.2-0.1-0.4,0-0.4,0.2C68.5,159.6,68.6,159.8,68.8,159.9z"
							/>
						<path d="M70.9,167.1c0.2,0.1,0.4,0,0.4-0.2c0.1-0.2,0-0.4-0.2-0.4c-0.2-0.1-0.4,0-0.4,0.2C70.6,166.9,70.7,167.1,70.9,167.1z"
							/>
						<path d="M66.1,162.4c0.2,0.1,0.4,0,0.4-0.2c0.1-0.2,0-0.4-0.2-0.4c-0.2-0.1-0.4,0-0.4,0.2C65.8,162.1,65.9,162.3,66.1,162.4z"
							/>
						<path d="M69.8,169.1c0.2,0.1,0.4,0,0.4-0.2c0.1-0.2,0-0.4-0.2-0.4c-0.2-0.1-0.4,0-0.4,0.2C69.6,168.9,69.6,169.1,69.8,169.1z"
							/>
						<path d="M70.5,161c0.2,0.1,0.4,0,0.4-0.2c0.1-0.2,0-0.4-0.2-0.4c-0.2-0.1-0.4,0-0.4,0.2C70.2,160.7,70.3,160.9,70.5,161z"/>
						<path d="M73.1,165.4c0.2,0.1,0.4,0,0.4-0.2c0.1-0.2,0-0.4-0.2-0.4c-0.2-0.1-0.4,0-0.4,0.2C72.9,165.1,72.9,165.3,73.1,165.4z"
							/>
						<circle cx="73.2" cy="166.6" r="0.3"/>
					</g>
				</g>
				<g>
					<g>
						<path d="M72.6,159.2c0.2,0.1,0.4,0,0.4-0.2c0.1-0.2,0-0.4-0.2-0.4c-0.2-0.1-0.4,0-0.4,0.2C72.3,158.9,72.4,159.1,72.6,159.2z"
							/>
						<path d="M71.2,159.7c0.2,0.1,0.4,0,0.4-0.2c0.1-0.2,0-0.4-0.2-0.4c-0.2-0.1-0.4,0-0.4,0.2C71,159.5,71.1,159.7,71.2,159.7z"/>
						<path d="M69.9,162.5c0.2,0.1,0.4,0,0.4-0.2c0.1-0.2,0-0.4-0.2-0.4c-0.2-0.1-0.4,0-0.4,0.2C69.7,162.2,69.8,162.4,69.9,162.5z"
							/>
						<path d="M71.8,161.7c0.2,0.1,0.4,0,0.4-0.2c0.1-0.2,0-0.4-0.2-0.4c-0.2-0.1-0.4,0-0.4,0.2C71.6,161.4,71.7,161.6,71.8,161.7z"
							/>
						<path d="M68.9,160.9c0.2,0.1,0.4,0,0.4-0.2c0.1-0.2,0-0.4-0.2-0.4c-0.2-0.1-0.4,0-0.4,0.2C68.7,160.6,68.8,160.8,68.9,160.9z"
							/>
						<path d="M74.4,160.5c0.2,0.1,0.4,0,0.4-0.2s0-0.4-0.2-0.4c-0.2-0.1-0.4,0-0.4,0.2S74.3,160.4,74.4,160.5z"/>
						<path d="M70.3,163.5c0.2,0.1,0.4,0,0.4-0.2c0.1-0.2,0-0.4-0.2-0.4c-0.2-0.1-0.4,0-0.4,0.2C70,163.3,70.1,163.5,70.3,163.5z"/>
						<path d="M70.5,158.5c0.2,0.1,0.4,0,0.4-0.2c0.1-0.2,0-0.4-0.2-0.4c-0.2-0.1-0.4,0-0.4,0.2C70.2,158.2,70.3,158.4,70.5,158.5z"
							/>
						<path d="M72.9,163.2c0.2,0.1,0.4,0,0.4-0.2c0.1-0.2,0-0.4-0.2-0.4c-0.2-0.1-0.4,0-0.4,0.2C72.6,162.9,72.7,163.1,72.9,163.2z"
							/>
					</g>
					<g>
						<circle cx="74.1" cy="163.5" r="0.3"/>
						<path d="M75.7,163.3c-0.1,0.2,0,0.4,0.2,0.4c0.2,0.1,0.4,0,0.4-0.2c0.1-0.2,0-0.4-0.2-0.4C75.9,163,75.7,163.1,75.7,163.3z"/>
						<path d="M73.3,162.1c-0.1,0.2,0,0.4,0.2,0.4c0.2,0.1,0.4,0,0.4-0.2c0.1-0.2,0-0.4-0.2-0.4C73.5,161.8,73.3,161.9,73.3,162.1z"
							/>
						<path d="M68.7,158.6c-0.1,0.2,0,0.4,0.2,0.4c0.2,0.1,0.4,0,0.4-0.2c0.1-0.2,0-0.4-0.2-0.4C68.9,158.3,68.7,158.4,68.7,158.6z"
							/>
						<circle cx="70.8" cy="160.9" r="0.3"/>
						<path d="M71.3,162.7c-0.1,0.2,0,0.4,0.2,0.4c0.2,0.1,0.4,0,0.4-0.2c0.1-0.2,0-0.4-0.2-0.4C71.6,162.4,71.4,162.5,71.3,162.7z"
							/>
						<path d="M72.2,159.8c-0.1,0.2,0,0.4,0.2,0.4c0.2,0.1,0.4,0,0.4-0.2c0.1-0.2,0-0.4-0.2-0.4C72.4,159.5,72.2,159.6,72.2,159.8z"
							/>
						<path d="M72.5,165.3c-0.1,0.2,0,0.4,0.2,0.4c0.2,0.1,0.4,0,0.4-0.2c0.1-0.2,0-0.4-0.2-0.4C72.8,165,72.6,165.1,72.5,165.3z"/>
						<path d="M75.5,159.5c-0.1,0.2,0,0.4,0.2,0.4c0.2,0.1,0.4,0,0.4-0.2c0.1-0.2,0-0.4-0.2-0.4C75.8,159.2,75.6,159.3,75.5,159.5z"
							/>
						<path d="M68.5,162.2c-0.1,0.2,0,0.4,0.2,0.4c0.2,0.1,0.4,0,0.4-0.2c0.1-0.2,0-0.4-0.2-0.4C68.7,162,68.5,162,68.5,162.2z"/>
						<path d="M72.8,157.1c-0.1,0.2,0,0.4,0.2,0.4c0.2,0.1,0.4,0,0.4-0.2c0.1-0.2,0-0.4-0.2-0.4C73.1,156.8,72.9,156.9,72.8,157.1z"
							/>
						<path d="M66.4,161.3c-0.1,0.2,0,0.4,0.2,0.4c0.2,0.1,0.4,0,0.4-0.2c0.1-0.2,0-0.4-0.2-0.4C66.6,161.1,66.4,161.2,66.4,161.3z"
							/>
						<path d="M74.5,161.3c-0.1,0.2,0,0.4,0.2,0.4c0.2,0.1,0.4,0,0.4-0.2c0.1-0.2,0-0.4-0.2-0.4C74.8,161.1,74.6,161.1,74.5,161.3z"
							/>
						<path d="M70.4,164.3c-0.1,0.2,0,0.4,0.2,0.4c0.2,0.1,0.4,0,0.4-0.2c0.1-0.2,0-0.4-0.2-0.4C70.7,164.1,70.5,164.1,70.4,164.3z"
							/>
						<circle cx="69.2" cy="164.5" r="0.3"/>
					</g>
				</g>
				<g>
					<g>
						<path d="M74.7,156.7c0.2,0.1,0.4,0,0.4-0.1c0.1-0.2,0-0.4-0.1-0.4c-0.2-0.1-0.4,0-0.4,0.1C74.4,156.4,74.5,156.6,74.7,156.7z"
							/>
						<path d="M73.3,157c0.2,0.1,0.4,0,0.4-0.1s0-0.4-0.1-0.4c-0.2-0.1-0.4,0-0.4,0.1C73.1,156.7,73.1,156.9,73.3,157z"/>
						<path d="M71.6,159.6c0.2,0.1,0.4,0,0.4-0.1c0.1-0.2,0-0.4-0.1-0.4c-0.2-0.1-0.4,0-0.4,0.1C71.4,159.3,71.4,159.5,71.6,159.6z"
							/>
						<path d="M73.6,159c0.2,0.1,0.4,0,0.4-0.1c0.1-0.2,0-0.4-0.1-0.4c-0.2-0.1-0.4,0-0.4,0.1C73.4,158.8,73.4,159,73.6,159z"/>
						<path d="M70.8,157.8c0.2,0.1,0.4,0,0.4-0.1s0-0.4-0.1-0.4c-0.2-0.1-0.4,0-0.4,0.1C70.6,157.5,70.7,157.7,70.8,157.8z"/>
						<path d="M76.3,158.2c0.2,0.1,0.4,0,0.4-0.1c0.1-0.2,0-0.4-0.1-0.4c-0.2-0.1-0.4,0-0.4,0.1C76.1,157.9,76.2,158.1,76.3,158.2z"
							/>
						<path d="M71.8,160.6c0.2,0.1,0.4,0,0.4-0.1c0.1-0.2,0-0.4-0.1-0.4c-0.2-0.1-0.4,0-0.4,0.1C71.5,160.4,71.6,160.6,71.8,160.6z"
							/>
						<path d="M72.7,155.7c0.2,0.1,0.4,0,0.4-0.1c0.1-0.2,0-0.4-0.1-0.4c-0.2-0.1-0.4,0-0.4,0.1C72.5,155.4,72.5,155.6,72.7,155.7z"
							/>
						<path d="M74.4,160.7c0.2,0.1,0.4,0,0.4-0.1c0.1-0.2,0-0.4-0.1-0.4c-0.2-0.1-0.4,0-0.4,0.1C74.2,160.4,74.3,160.6,74.4,160.7z"
							/>
					</g>
					<g>
						<circle cx="75.6" cy="161.2" r="0.3"/>
						<path d="M77.2,161.2c-0.1,0.2,0,0.4,0.1,0.4c0.2,0.1,0.4,0,0.4-0.1s0-0.4-0.1-0.4C77.4,160.9,77.2,161,77.2,161.2z"/>
						<path d="M74.9,159.6c-0.1,0.2,0,0.4,0.1,0.4c0.2,0.1,0.4,0,0.4-0.1c0.1-0.2,0-0.4-0.1-0.4C75.2,159.4,75,159.5,74.9,159.6z"/>
						<path d="M70.9,155.5c-0.1,0.2,0,0.4,0.1,0.4c0.2,0.1,0.4,0,0.4-0.1c0.1-0.2,0-0.4-0.1-0.4C71.2,155.3,71,155.3,70.9,155.5z"/>
						<circle cx="72.7" cy="158.1" r="0.3"/>
						<path d="M72.9,160c-0.1,0.2,0,0.4,0.1,0.4c0.2,0.1,0.4,0,0.4-0.1s0-0.4-0.1-0.4C73.2,159.7,73,159.8,72.9,160z"/>
						<path d="M74.2,157.2c-0.1,0.2,0,0.4,0.1,0.4c0.2,0.1,0.4,0,0.4-0.1c0.1-0.2,0-0.4-0.1-0.4C74.5,157,74.3,157,74.2,157.2z"/>
						<path d="M73.7,162.7c-0.1,0.2,0,0.4,0.1,0.4c0.2,0.1,0.4,0,0.4-0.1c0.1-0.2,0-0.4-0.1-0.4C74,162.5,73.8,162.5,73.7,162.7z"/>
						<path d="M77.5,157.4c-0.1,0.2,0,0.4,0.1,0.4c0.2,0.1,0.4,0,0.4-0.1c0.1-0.2,0-0.4-0.1-0.4C77.8,157.2,77.6,157.3,77.5,157.4z"
							/>
						<path d="M70.2,159.1c-0.1,0.2,0,0.4,0.1,0.4c0.2,0.1,0.4,0,0.4-0.1s0-0.4-0.1-0.4C70.5,158.8,70.3,158.9,70.2,159.1z"/>
						<path d="M75.2,154.6c-0.1,0.2,0,0.4,0.1,0.4c0.2,0.1,0.4,0,0.4-0.1c0.1-0.2,0-0.4-0.1-0.4C75.5,154.4,75.3,154.4,75.2,154.6z"
							/>
						<path d="M68.2,157.9c-0.1,0.2,0,0.4,0.1,0.4c0.2,0.1,0.4,0,0.4-0.1c0.1-0.2,0-0.4-0.1-0.4C68.5,157.7,68.3,157.7,68.2,157.9z"
							/>
						<path d="M76.3,159.1c-0.1,0.2,0,0.4,0.1,0.4c0.2,0.1,0.4,0,0.4-0.1s0-0.4-0.1-0.4C76.6,158.8,76.4,158.9,76.3,159.1z"/>
						<path d="M71.8,161.4c-0.1,0.2,0,0.4,0.1,0.4c0.2,0.1,0.4,0,0.4-0.1c0.1-0.2,0-0.4-0.1-0.4C72.1,161.2,71.9,161.3,71.8,161.4z"
							/>
						<circle cx="70.6" cy="161.5" r="0.3"/>
					</g>
				</g>
				<g>
					<g>
						<path d="M75.7,155c0.2-0.1,0.2-0.3,0.1-0.5c-0.1-0.2-0.3-0.2-0.5-0.1c-0.2,0.1-0.2,0.3-0.1,0.5S75.5,155.1,75.7,155z"/>
						<path d="M75.2,156.3c0.2-0.1,0.2-0.3,0.1-0.5c-0.1-0.2-0.3-0.2-0.5-0.1c-0.2,0.1-0.2,0.3-0.1,0.5
							C74.9,156.4,75.1,156.4,75.2,156.3z"/>
						<path d="M76.4,159.1c0.2-0.1,0.2-0.3,0.1-0.5s-0.3-0.2-0.5-0.1c-0.2,0.1-0.2,0.3-0.1,0.5C76.1,159.2,76.3,159.2,76.4,159.1z"
							/>
						<path d="M77.1,157.2c0.2-0.1,0.2-0.3,0.1-0.5c-0.1-0.2-0.3-0.2-0.5-0.1c-0.2,0.1-0.2,0.3-0.1,0.5
							C76.8,157.2,77,157.3,77.1,157.2z"/>
						<path d="M74.6,158.8c0.2-0.1,0.2-0.3,0.1-0.5c-0.1-0.2-0.3-0.2-0.5-0.1c-0.2,0.1-0.2,0.3-0.1,0.5
							C74.2,158.8,74.4,158.9,74.6,158.8z"/>
						<path d="M77.9,154.4c0.2-0.1,0.2-0.3,0.1-0.5c-0.1-0.2-0.3-0.2-0.5-0.1c-0.2,0.1-0.2,0.3-0.1,0.5
							C77.6,154.5,77.8,154.5,77.9,154.4z"/>
						<path d="M77.5,159.6c0.2-0.1,0.2-0.3,0.1-0.5c-0.1-0.2-0.3-0.2-0.5-0.1c-0.2,0.1-0.2,0.3-0.1,0.5
							C77.1,159.6,77.3,159.7,77.5,159.6z"/>
						<path d="M73.8,156.1c0.2-0.1,0.2-0.3,0.1-0.5c-0.1-0.2-0.3-0.2-0.5-0.1c-0.2,0.1-0.2,0.3-0.1,0.5
							C73.4,156.1,73.6,156.2,73.8,156.1z"/>
						<path d="M78.9,157.3c0.2-0.1,0.2-0.3,0.1-0.5c-0.1-0.2-0.3-0.2-0.5-0.1c-0.2,0.1-0.2,0.3-0.1,0.5
							C78.6,157.4,78.8,157.4,78.9,157.3z"/>
					</g>
					<g>
						<circle cx="80" cy="156.7" r="0.3"/>
						<path d="M80.8,155.3c0.1,0.2,0.3,0.2,0.5,0.1c0.2-0.1,0.2-0.3,0.1-0.5c-0.1-0.2-0.3-0.2-0.5-0.1
							C80.8,155,80.8,155.2,80.8,155.3z"/>
						<path d="M78.4,156.4c0.1,0.2,0.3,0.2,0.5,0.1c0.2-0.1,0.2-0.3,0.1-0.5c-0.1-0.2-0.3-0.2-0.5-0.1
							C78.3,156,78.3,156.2,78.4,156.4z"/>
						<path d="M72.7,157.5c0.1,0.2,0.3,0.2,0.5,0.1c0.2-0.1,0.2-0.3,0.1-0.5S73,157,72.8,157C72.6,157.1,72.6,157.3,72.7,157.5z"/>
						<circle cx="75.9" cy="157.4" r="0.3"/>
						<path d="M77.5,158.2c0.1,0.2,0.3,0.2,0.5,0.1c0.2-0.1,0.2-0.3,0.1-0.5c-0.1-0.2-0.3-0.2-0.5-0.1
							C77.5,157.9,77.4,158.1,77.5,158.2z"/>
						<path d="M75.9,155.7c0.1,0.2,0.3,0.2,0.5,0.1c0.2-0.1,0.2-0.3,0.1-0.5c-0.1-0.2-0.3-0.2-0.5-0.1
							C75.9,155.3,75.8,155.5,75.9,155.7z"/>
						<path d="M80.3,159c0.1,0.2,0.3,0.2,0.5,0.1c0.2-0.1,0.2-0.3,0.1-0.5c-0.1-0.2-0.3-0.2-0.5-0.1C80.2,158.7,80.2,158.9,80.3,159
							z"/>
						<path d="M77.9,153c0.1,0.2,0.3,0.2,0.5,0.1c0.2-0.1,0.2-0.3,0.1-0.5c-0.1-0.2-0.3-0.2-0.5-0.1C77.9,152.6,77.8,152.8,77.9,153
							z"/>
						<path d="M75.3,160c0.1,0.2,0.3,0.2,0.5,0.1c0.2-0.1,0.2-0.3,0.1-0.5c-0.1-0.2-0.3-0.2-0.5-0.1C75.2,159.7,75.2,159.9,75.3,160
							z"/>
						<path d="M74.3,153.4c0.1,0.2,0.3,0.2,0.5,0.1c0.2-0.1,0.2-0.3,0.1-0.5c-0.1-0.2-0.3-0.2-0.5-0.1
							C74.2,153,74.2,153.2,74.3,153.4z"/>
						<path d="M73.2,161c0.1,0.2,0.3,0.2,0.5,0.1c0.2-0.1,0.2-0.3,0.1-0.5c-0.1-0.2-0.3-0.2-0.5-0.1C73.2,160.7,73.1,160.9,73.2,161
							z"/>
						<path d="M78.6,154.9c0.1,0.2,0.3,0.2,0.5,0.1c0.2-0.1,0.2-0.3,0.1-0.5c-0.1-0.2-0.3-0.2-0.5-0.1
							C78.6,154.5,78.5,154.7,78.6,154.9z"/>
						<path d="M78.1,160c0.1,0.2,0.3,0.2,0.5,0.1c0.2-0.1,0.2-0.3,0.1-0.5c-0.1-0.2-0.3-0.2-0.5-0.1C78.1,159.6,78.1,159.8,78.1,160
							z"/>
						<circle cx="77.5" cy="161" r="0.3"/>
					</g>
				</g>
				<g>
					<g>
						<path d="M76.6,154.5c0-0.2-0.2-0.3-0.4-0.3c-0.2,0-0.3,0.2-0.3,0.4c0,0.2,0.2,0.3,0.4,0.3C76.5,154.8,76.7,154.7,76.6,154.5z"
							/>
						<path d="M77.7,155.4c0-0.2-0.2-0.3-0.4-0.3c-0.2,0-0.3,0.2-0.3,0.4c0,0.2,0.2,0.3,0.4,0.3C77.6,155.8,77.8,155.6,77.7,155.4z"
							/>
						<path d="M80.8,155.3c0-0.2-0.2-0.3-0.4-0.3c-0.2,0-0.3,0.2-0.3,0.4c0,0.2,0.2,0.3,0.4,0.3C80.7,155.6,80.8,155.4,80.8,155.3z"
							/>
						<path d="M79.2,154c0-0.2-0.2-0.3-0.4-0.3c-0.2,0-0.3,0.2-0.3,0.4c0,0.2,0.2,0.3,0.4,0.3C79.1,154.3,79.2,154.1,79.2,154z"/>
						<path d="M79.8,156.9c0-0.2-0.2-0.3-0.4-0.3c-0.2,0-0.3,0.2-0.3,0.4c0,0.2,0.2,0.3,0.4,0.3C79.7,157.3,79.8,157.1,79.8,156.9z"
							/>
						<path d="M76.9,152.2c0-0.2-0.2-0.3-0.4-0.3c-0.2,0-0.3,0.2-0.3,0.4s0.2,0.3,0.4,0.3C76.8,152.6,76.9,152.4,76.9,152.2z"/>
						<path d="M81.5,154.5c0-0.2-0.2-0.3-0.4-0.3c-0.2,0-0.3,0.2-0.3,0.4c0,0.2,0.2,0.3,0.4,0.3C81.4,154.8,81.6,154.7,81.5,154.5z"
							/>
						<path d="M77,156.7c0-0.2-0.2-0.3-0.4-0.3c-0.2,0-0.3,0.2-0.3,0.4c0,0.2,0.2,0.3,0.4,0.3C76.9,157,77,156.9,77,156.7z"/>
						<path d="M80,152.3c0-0.2-0.2-0.3-0.4-0.3c-0.2,0-0.3,0.2-0.3,0.4c0,0.2,0.2,0.3,0.4,0.3C79.9,152.7,80,152.5,80,152.3z"/>
					</g>
					<g>
						<circle cx="79.7" cy="151.1" r="0.3"/>
						<path d="M78.8,149.8c0.2,0,0.3-0.2,0.3-0.4c0-0.2-0.2-0.3-0.4-0.3c-0.2,0-0.3,0.2-0.3,0.4C78.4,149.7,78.6,149.8,78.8,149.8z"
							/>
						<path d="M78.9,152.5c0.2,0,0.3-0.2,0.3-0.4c0-0.2-0.2-0.3-0.4-0.3c-0.2,0-0.3,0.2-0.3,0.4C78.5,152.4,78.7,152.5,78.9,152.5z"
							/>
						<path d="M77.9,158.2c0.2,0,0.3-0.2,0.3-0.4c0-0.2-0.2-0.3-0.4-0.3c-0.2,0-0.3,0.2-0.3,0.4C77.6,158.1,77.7,158.2,77.9,158.2z"
							/>
						<circle cx="78.9" cy="155.2" r="0.3"/>
						<path d="M80.3,154c0.2,0,0.3-0.2,0.3-0.4c0-0.2-0.2-0.3-0.4-0.3c-0.2,0-0.3,0.2-0.3,0.4C80,153.9,80.1,154,80.3,154z"/>
						<path d="M77.3,154.6c0.2,0,0.3-0.2,0.3-0.4c0-0.2-0.2-0.3-0.4-0.3c-0.2,0-0.3,0.2-0.3,0.4C77,154.5,77.2,154.6,77.3,154.6z"/>
						<path d="M82,151.7c0.2,0,0.3-0.2,0.3-0.4c0-0.2-0.2-0.3-0.4-0.3c-0.2,0-0.3,0.2-0.3,0.4C81.7,151.6,81.9,151.7,82,151.7z"/>
						<path d="M75.5,151.7c0.2,0,0.3-0.2,0.3-0.4c0-0.2-0.2-0.3-0.4-0.3c-0.2,0-0.3,0.2-0.3,0.4C75.2,151.6,75.3,151.8,75.5,151.7z"
							/>
						<path d="M81.2,156.7c0.2,0,0.3-0.2,0.3-0.4c0-0.2-0.2-0.3-0.4-0.3c-0.2,0-0.3,0.2-0.3,0.4C80.9,156.6,81,156.7,81.2,156.7z"/>
						<path d="M74.6,155.3c0.2,0,0.3-0.2,0.3-0.4c0-0.2-0.2-0.3-0.4-0.3c-0.2,0-0.3,0.2-0.3,0.4C74.3,155.2,74.4,155.3,74.6,155.3z"
							/>
						<path d="M81.4,159c0.2,0,0.3-0.2,0.3-0.4c0-0.2-0.2-0.3-0.4-0.3c-0.2,0-0.3,0.2-0.3,0.4C81.1,158.9,81.2,159,81.4,159z"/>
						<path d="M77.6,151.7c0.2,0,0.3-0.2,0.3-0.4c0-0.2-0.2-0.3-0.4-0.3c-0.2,0-0.3,0.2-0.3,0.4C77.2,151.6,77.4,151.8,77.6,151.7z"
							/>
						<path d="M82.2,154c0.2,0,0.3-0.2,0.3-0.4s-0.2-0.3-0.4-0.3c-0.2,0-0.3,0.2-0.3,0.4C81.8,153.9,82,154,82.2,154z"/>
						<circle cx="82.9" cy="154.9" r="0.3"/>
					</g>
				</g>
				<g>
					<g>
						<path d="M78.6,151.6c0-0.2-0.1-0.3-0.3-0.4c-0.2,0-0.3,0.1-0.4,0.3c0,0.2,0.1,0.3,0.3,0.4C78.5,151.9,78.6,151.8,78.6,151.6z"
							/>
						<path d="M79.5,152.7c0-0.2-0.1-0.3-0.3-0.4c-0.2,0-0.3,0.1-0.4,0.3c0,0.2,0.1,0.3,0.3,0.4C79.3,153,79.5,152.9,79.5,152.7z"/>
						<path d="M82.5,153.2c0-0.2-0.1-0.3-0.3-0.4c-0.2,0-0.3,0.1-0.4,0.3s0.1,0.3,0.3,0.4C82.3,153.5,82.5,153.4,82.5,153.2z"/>
						<path d="M81.2,151.6c0-0.2-0.1-0.3-0.3-0.4c-0.2,0-0.3,0.1-0.4,0.3c0,0.2,0.1,0.3,0.3,0.4C81.1,151.9,81.2,151.8,81.2,151.6z"
							/>
						<path d="M81.2,154.6c0-0.2-0.1-0.3-0.3-0.4c-0.2,0-0.3,0.1-0.4,0.3c0,0.2,0.1,0.3,0.3,0.4C81,154.9,81.2,154.8,81.2,154.6z"/>
						<path d="M79.4,149.4c0-0.2-0.1-0.3-0.3-0.4c-0.2,0-0.3,0.1-0.4,0.3c0,0.2,0.1,0.3,0.3,0.4C79.2,149.7,79.4,149.6,79.4,149.4z"
							/>
						<path d="M83.4,152.6c0-0.2-0.1-0.3-0.3-0.4c-0.2,0-0.3,0.1-0.4,0.3c0,0.2,0.1,0.3,0.3,0.4C83.3,152.9,83.4,152.8,83.4,152.6z"
							/>
						<path d="M78.5,153.8c0-0.2-0.1-0.3-0.3-0.4c-0.2,0-0.3,0.1-0.4,0.3s0.1,0.3,0.3,0.4C78.3,154.1,78.5,154,78.5,153.8z"/>
						<path d="M82.4,150.2c0-0.2-0.1-0.3-0.3-0.4c-0.2,0-0.3,0.1-0.4,0.3c0,0.2,0.1,0.3,0.3,0.4C82.2,150.5,82.4,150.4,82.4,150.2z"
							/>
					</g>
					<g>
						<circle cx="82.4" cy="148.9" r="0.3"/>
						<path d="M81.8,147.5c0.2,0,0.3-0.1,0.4-0.3c0-0.2-0.1-0.3-0.3-0.4c-0.2,0-0.3,0.1-0.4,0.3C81.4,147.3,81.6,147.5,81.8,147.5z"
							/>
						<path d="M81.3,150.1c0.2,0,0.3-0.1,0.4-0.3c0-0.2-0.1-0.3-0.3-0.4c-0.2,0-0.3,0.1-0.4,0.3C80.9,149.9,81.1,150.1,81.3,150.1z"
							/>
						<path d="M79.1,155.5c0.2,0,0.3-0.1,0.4-0.3c0-0.2-0.1-0.3-0.3-0.4c-0.2,0-0.3,0.1-0.4,0.3C78.8,155.3,78.9,155.5,79.1,155.5z"
							/>
						<circle cx="80.8" cy="152.8" r="0.3"/>
						<path d="M82.4,151.8c0.2,0,0.3-0.1,0.4-0.3c0-0.2-0.1-0.3-0.3-0.4c-0.2,0-0.3,0.1-0.4,0.3C82,151.7,82.2,151.8,82.4,151.8z"/>
						<path d="M79.3,151.8c0.2,0,0.3-0.1,0.4-0.3c0-0.2-0.1-0.3-0.3-0.4c-0.2,0-0.3,0.1-0.4,0.3S79.1,151.8,79.3,151.8z"/>
						<path d="M84.5,150c0.2,0,0.3-0.1,0.4-0.3c0-0.2-0.1-0.3-0.3-0.4c-0.2,0-0.3,0.1-0.4,0.3C84.2,149.8,84.4,150,84.5,150z"/>
						<path d="M78.2,148.6c0.2,0,0.3-0.1,0.4-0.3c0-0.2-0.1-0.3-0.3-0.4c-0.2,0-0.3,0.1-0.4,0.3C77.8,148.5,78,148.6,78.2,148.6z"/>
						<path d="M82.6,154.7c0.2,0,0.3-0.1,0.4-0.3c0-0.2-0.1-0.3-0.3-0.4c-0.2,0-0.3,0.1-0.4,0.3C82.3,154.5,82.5,154.7,82.6,154.7z"
							/>
						<path d="M76.5,151.9c0.2,0,0.3-0.1,0.4-0.3c0-0.2-0.1-0.3-0.3-0.4c-0.2,0-0.3,0.1-0.4,0.3C76.2,151.7,76.3,151.9,76.5,151.9z"
							/>
						<path d="M82.4,157c0.2,0,0.3-0.1,0.4-0.3c0-0.2-0.1-0.3-0.3-0.4c-0.2,0-0.3,0.1-0.4,0.3C82,156.8,82.2,157,82.4,157z"/>
						<path d="M80.2,149.1c0.2,0,0.3-0.1,0.4-0.3c0-0.2-0.1-0.3-0.3-0.4c-0.2,0-0.3,0.1-0.4,0.3C79.8,148.9,80,149.1,80.2,149.1z"/>
						<path d="M84.1,152.3c0.2,0,0.3-0.1,0.4-0.3c0-0.2-0.1-0.3-0.3-0.4c-0.2,0-0.3,0.1-0.4,0.3S84,152.2,84.1,152.3z"/>
						<circle cx="84.7" cy="153.4" r="0.3"/>
					</g>
				</g>
				<g>
					<g>
						<path d="M80.4,149.6c-0.1-0.2-0.3-0.3-0.4-0.2c-0.2,0.1-0.3,0.3-0.2,0.4c0.1,0.2,0.3,0.3,0.4,0.2
							C80.4,150,80.4,149.8,80.4,149.6z"/>
						<path d="M81.6,150.3c-0.1-0.2-0.3-0.3-0.4-0.2c-0.2,0.1-0.3,0.3-0.2,0.4c0.1,0.2,0.3,0.3,0.4,0.2
							C81.6,150.6,81.7,150.4,81.6,150.3z"/>
						<path d="M84.6,149.4c-0.1-0.2-0.3-0.3-0.4-0.2c-0.2,0.1-0.3,0.3-0.2,0.4c0.1,0.2,0.3,0.3,0.4,0.2
							C84.6,149.8,84.6,149.6,84.6,149.4z"/>
						<path d="M82.7,148.5c-0.1-0.2-0.3-0.3-0.4-0.2c-0.2,0.1-0.3,0.3-0.2,0.4c0.1,0.2,0.3,0.3,0.4,0.2
							C82.7,148.9,82.8,148.7,82.7,148.5z"/>
						<path d="M84,151.3c-0.1-0.2-0.3-0.3-0.4-0.2c-0.2,0.1-0.3,0.3-0.2,0.4s0.3,0.3,0.4,0.2C84,151.6,84.1,151.4,84,151.3z"/>
						<path d="M80.1,147.3c-0.1-0.2-0.3-0.3-0.4-0.2c-0.2,0.1-0.3,0.3-0.2,0.4c0.1,0.2,0.3,0.3,0.4,0.2
							C80.1,147.7,80.2,147.5,80.1,147.3z"/>
						<path d="M85.1,148.5c-0.1-0.2-0.3-0.3-0.4-0.2c-0.2,0.1-0.3,0.3-0.2,0.4c0.1,0.2,0.3,0.3,0.4,0.2
							C85.1,148.9,85.2,148.7,85.1,148.5z"/>
						<path d="M81.2,151.7c-0.1-0.2-0.3-0.3-0.4-0.2c-0.2,0.1-0.3,0.3-0.2,0.4c0.1,0.2,0.3,0.3,0.4,0.2
							C81.2,152,81.3,151.8,81.2,151.7z"/>
						<path d="M83.1,146.8c-0.1-0.2-0.3-0.3-0.4-0.2c-0.2,0.1-0.3,0.3-0.2,0.4c0.1,0.2,0.3,0.3,0.4,0.2
							C83.1,147.1,83.2,146.9,83.1,146.8z"/>
					</g>
					<g>
						<circle cx="82.6" cy="145.6" r="0.3"/>
						<path d="M81.4,144.6c0.2-0.1,0.3-0.3,0.2-0.4s-0.3-0.3-0.4-0.2c-0.2,0.1-0.3,0.3-0.2,0.4C81.1,144.6,81.3,144.6,81.4,144.6z"
							/>
						<path d="M82.1,147.2c0.2-0.1,0.3-0.3,0.2-0.4c-0.1-0.2-0.3-0.3-0.4-0.2c-0.2,0.1-0.3,0.3-0.2,0.4
							C81.7,147.2,81.9,147.2,82.1,147.2z"/>
						<path d="M82.4,152.9c0.2-0.1,0.3-0.3,0.2-0.4c-0.1-0.2-0.3-0.3-0.4-0.2c-0.2,0.1-0.3,0.3-0.2,0.4
							C82.1,152.9,82.3,153,82.4,152.9z"/>
						<circle cx="82.8" cy="149.8" r="0.3"/>
						<path d="M83.8,148.3c0.2-0.1,0.3-0.3,0.2-0.4c-0.1-0.2-0.3-0.3-0.4-0.2c-0.2,0.1-0.3,0.3-0.2,0.4
							C83.5,148.2,83.7,148.3,83.8,148.3z"/>
						<path d="M81.1,149.5c0.2-0.1,0.3-0.3,0.2-0.4c-0.1-0.2-0.3-0.3-0.4-0.2c-0.2,0.1-0.3,0.3-0.2,0.4
							C80.7,149.5,80.9,149.6,81.1,149.5z"/>
						<path d="M85,145.7c0.2-0.1,0.3-0.3,0.2-0.4c-0.1-0.2-0.3-0.3-0.4-0.2c-0.2,0.1-0.3,0.3-0.2,0.4
							C84.7,145.6,84.8,145.7,85,145.7z"/>
						<path d="M78.7,147.2c0.2-0.1,0.3-0.3,0.2-0.4c-0.1-0.2-0.3-0.3-0.4-0.2c-0.2,0.1-0.3,0.3-0.2,0.4
							C78.3,147.1,78.5,147.2,78.7,147.2z"/>
						<path d="M85.3,150.7c0.2-0.1,0.3-0.3,0.2-0.4c-0.1-0.2-0.3-0.3-0.4-0.2c-0.2,0.1-0.3,0.3-0.2,0.4
							C85,150.7,85.2,150.8,85.3,150.7z"/>
						<path d="M78.6,150.8c0.2-0.1,0.3-0.3,0.2-0.4c-0.1-0.2-0.3-0.3-0.4-0.2c-0.2,0.1-0.3,0.3-0.2,0.4
							C78.2,150.8,78.4,150.9,78.6,150.8z"/>
						<path d="M86,152.9c0.2-0.1,0.3-0.3,0.2-0.4c-0.1-0.2-0.3-0.3-0.4-0.2c-0.2,0.1-0.3,0.3-0.2,0.4C85.7,152.9,85.9,153,86,152.9z
							"/>
						<path d="M80.7,146.7c0.2-0.1,0.3-0.3,0.2-0.4c-0.1-0.2-0.3-0.3-0.4-0.2c-0.2,0.1-0.3,0.3-0.2,0.4S80.5,146.8,80.7,146.7z"/>
						<path d="M85.6,147.9c0.2-0.1,0.3-0.3,0.2-0.4c-0.1-0.2-0.3-0.3-0.4-0.2c-0.2,0.1-0.3,0.3-0.2,0.4
							C85.3,147.9,85.5,147.9,85.6,147.9z"/>
						<circle cx="86.6" cy="148.7" r="0.3"/>
					</g>
				</g>
				<g>
					<g>
						<path d="M84.7,144.6c0.2,0,0.3-0.1,0.4-0.3c0-0.2-0.1-0.3-0.3-0.4c-0.2,0-0.3,0.1-0.4,0.3C84.4,144.4,84.6,144.6,84.7,144.6z"
							/>
						<path d="M83.6,145.5c0.2,0,0.3-0.1,0.4-0.3c0-0.2-0.1-0.3-0.3-0.4c-0.2,0-0.3,0.1-0.4,0.3C83.3,145.3,83.4,145.4,83.6,145.5z"
							/>
						<path d="M82.9,148.4c0.2,0,0.3-0.1,0.4-0.3c0-0.2-0.1-0.3-0.3-0.4c-0.2,0-0.3,0.1-0.4,0.3C82.6,148.2,82.7,148.4,82.9,148.4z"
							/>
						<path d="M84.6,147.2c0.2,0,0.3-0.1,0.4-0.3c0-0.2-0.1-0.3-0.3-0.4s-0.3,0.1-0.4,0.3C84.3,147,84.4,147.2,84.6,147.2z"/>
						<path d="M81.6,147.1c0.2,0,0.3-0.1,0.4-0.3c0-0.2-0.1-0.3-0.3-0.4c-0.2,0-0.3,0.1-0.4,0.3C81.3,146.9,81.4,147,81.6,147.1z"/>
						<path d="M86.9,145.5c0.2,0,0.3-0.1,0.4-0.3c0-0.2-0.1-0.3-0.3-0.4s-0.3,0.1-0.4,0.3C86.6,145.3,86.7,145.5,86.9,145.5z"/>
						<path d="M83.5,149.4c0.2,0,0.3-0.1,0.4-0.3c0-0.2-0.1-0.3-0.3-0.4c-0.2,0-0.3,0.1-0.4,0.3C83.2,149.2,83.3,149.4,83.5,149.4z"
							/>
						<path d="M82.5,144.4c0.2,0,0.3-0.1,0.4-0.3c0-0.2-0.1-0.3-0.3-0.4c-0.2,0-0.3,0.1-0.4,0.3C82.2,144.2,82.4,144.4,82.5,144.4z"
							/>
						<path d="M86,148.4c0.2,0,0.3-0.1,0.4-0.3s-0.1-0.3-0.3-0.4c-0.2,0-0.3,0.1-0.4,0.3S85.8,148.4,86,148.4z"/>
					</g>
					<g>
						<circle cx="87.2" cy="148.5" r="0.3"/>
						<path d="M88.7,147.9c0,0.2,0.1,0.3,0.3,0.4c0.2,0,0.3-0.1,0.4-0.3c0-0.2-0.1-0.3-0.3-0.4C88.9,147.6,88.7,147.7,88.7,147.9z"
							/>
						<path d="M86.1,147.3c0,0.2,0.1,0.3,0.3,0.4c0.2,0,0.3-0.1,0.4-0.3c0-0.2-0.1-0.3-0.3-0.4C86.3,147,86.1,147.1,86.1,147.3z"/>
						<path d="M80.8,144.9c0,0.2,0.1,0.3,0.3,0.4c0.2,0,0.3-0.1,0.4-0.3c0-0.2-0.1-0.3-0.3-0.4C81,144.6,80.8,144.7,80.8,144.9z"/>
						<circle cx="83.4" cy="146.7" r="0.3"/>
						<path d="M84.3,148.3c0,0.2,0.1,0.3,0.3,0.4c0.2,0,0.3-0.1,0.4-0.3c0-0.2-0.1-0.3-0.3-0.4C84.5,148,84.3,148.1,84.3,148.3z"/>
						<path d="M84.5,145.3c0,0.2,0.1,0.3,0.3,0.4c0.2,0,0.3-0.1,0.4-0.3c0-0.2-0.1-0.3-0.3-0.4C84.7,145,84.5,145.1,84.5,145.3z"/>
						<path d="M86.1,150.6c0,0.2,0.1,0.3,0.3,0.4c0.2,0,0.3-0.1,0.4-0.3c0-0.2-0.1-0.3-0.3-0.4C86.3,150.3,86.1,150.4,86.1,150.6z"
							/>
						<path d="M87.7,144.3c0,0.2,0.1,0.3,0.3,0.4c0.2,0,0.3-0.1,0.4-0.3c0-0.2-0.1-0.3-0.3-0.4C87.9,144,87.7,144.1,87.7,144.3z"/>
						<path d="M81.4,148.5c0,0.2,0.1,0.3,0.3,0.4c0.2,0,0.3-0.1,0.4-0.3c0-0.2-0.1-0.3-0.3-0.4C81.6,148.2,81.5,148.3,81.4,148.5z"
							/>
						<path d="M84.5,142.5c0,0.2,0.1,0.3,0.3,0.4c0.2,0,0.3-0.1,0.4-0.3c0-0.2-0.1-0.3-0.3-0.4C84.7,142.2,84.5,142.3,84.5,142.5z"
							/>
						<path d="M79.2,148.1c0,0.2,0.1,0.3,0.3,0.4c0.2,0,0.3-0.1,0.4-0.3c0-0.2-0.1-0.3-0.3-0.4C79.4,147.8,79.2,147.9,79.2,148.1z"
							/>
						<path d="M87.2,146.3c0,0.2,0.1,0.3,0.3,0.4s0.3-0.1,0.4-0.3c0-0.2-0.1-0.3-0.3-0.4S87.2,146.1,87.2,146.3z"/>
						<path d="M83.8,150.1c0,0.2,0.1,0.3,0.3,0.4c0.2,0,0.3-0.1,0.4-0.3c0-0.2-0.1-0.3-0.3-0.4C84,149.8,83.8,149.9,83.8,150.1z"/>
						<circle cx="82.7" cy="150.6" r="0.3"/>
					</g>
				</g>
				<g>
					<g>
						<path d="M86.2,142.9c0.2-0.1,0.2-0.3,0.1-0.4c-0.1-0.2-0.3-0.2-0.4-0.1c-0.2,0.1-0.2,0.3-0.1,0.4
							C85.9,142.9,86.1,143,86.2,142.9z"/>
						<path d="M85.8,144.2c0.2-0.1,0.2-0.3,0.1-0.4c-0.1-0.2-0.3-0.2-0.4-0.1c-0.2,0.1-0.2,0.3-0.1,0.4
							C85.4,144.3,85.6,144.3,85.8,144.2z"/>
						<path d="M86.9,147.1c0.2-0.1,0.2-0.3,0.1-0.4c-0.1-0.2-0.3-0.2-0.4-0.1c-0.2,0.1-0.2,0.3-0.1,0.4
							C86.5,147.1,86.7,147.2,86.9,147.1z"/>
						<path d="M87.6,145.1c0.2-0.1,0.2-0.3,0.1-0.4c-0.1-0.2-0.3-0.2-0.4-0.1c-0.2,0.1-0.2,0.3-0.1,0.4
							C87.2,145.2,87.4,145.2,87.6,145.1z"/>
						<path d="M85,146.7c0.2-0.1,0.2-0.3,0.1-0.4c-0.1-0.2-0.3-0.2-0.4-0.1c-0.2,0.1-0.2,0.3-0.1,0.4
							C84.7,146.7,84.9,146.8,85,146.7z"/>
						<path d="M88.5,142.4c0.2-0.1,0.2-0.3,0.1-0.4c-0.1-0.2-0.3-0.2-0.4-0.1c-0.2,0.1-0.2,0.3-0.1,0.4
							C88.1,142.4,88.3,142.5,88.5,142.4z"/>
						<path d="M87.9,147.5c0.2-0.1,0.2-0.3,0.1-0.4c-0.1-0.2-0.3-0.2-0.4-0.1c-0.2,0.1-0.2,0.3-0.1,0.4
							C87.5,147.6,87.7,147.6,87.9,147.5z"/>
						<path d="M84.3,144c0.2-0.1,0.2-0.3,0.1-0.4c-0.1-0.2-0.3-0.2-0.4-0.1c-0.2,0.1-0.2,0.3-0.1,0.4C83.9,144,84.1,144,84.3,144z"
							/>
						<path d="M89.4,145.3c0.2-0.1,0.2-0.3,0.1-0.4c-0.1-0.2-0.3-0.2-0.4-0.1c-0.2,0.1-0.2,0.3-0.1,0.4
							C89,145.4,89.2,145.4,89.4,145.3z"/>
					</g>
					<g>
						<circle cx="90.5" cy="144.7" r="0.3"/>
						<path d="M91.4,143.4c0.1,0.2,0.3,0.2,0.4,0.1c0.2-0.1,0.2-0.3,0.1-0.4c-0.1-0.2-0.3-0.2-0.4-0.1
							C91.3,143,91.3,143.2,91.4,143.4z"/>
						<path d="M88.9,144.4c0.1,0.2,0.3,0.2,0.4,0.1c0.2-0.1,0.2-0.3,0.1-0.4c-0.1-0.2-0.3-0.2-0.4-0.1
							C88.8,144,88.8,144.2,88.9,144.4z"/>
						<path d="M83.2,145.4c0.1,0.2,0.3,0.2,0.4,0.1c0.2-0.1,0.2-0.3,0.1-0.4c-0.1-0.2-0.3-0.2-0.4-0.1
							C83.1,145,83.1,145.2,83.2,145.4z"/>
						<circle cx="86.3" cy="145.3" r="0.3"/>
						<path d="M88,146.2c0.1,0.2,0.3,0.2,0.4,0.1c0.2-0.1,0.2-0.3,0.1-0.4c-0.1-0.2-0.3-0.2-0.4-0.1C88,145.8,87.9,146,88,146.2z"/>
						<path d="M86.4,143.6c0.1,0.2,0.3,0.2,0.4,0.1c0.2-0.1,0.2-0.3,0.1-0.4c-0.1-0.2-0.3-0.2-0.4-0.1
							C86.4,143.3,86.3,143.5,86.4,143.6z"/>
						<path d="M90.7,147.1c0.1,0.2,0.3,0.2,0.4,0.1c0.2-0.1,0.2-0.3,0.1-0.4c-0.1-0.2-0.3-0.2-0.4-0.1
							C90.7,146.7,90.6,146.9,90.7,147.1z"/>
						<path d="M88.5,141c0.1,0.2,0.3,0.2,0.4,0.1c0.2-0.1,0.2-0.3,0.1-0.4c-0.1-0.2-0.3-0.2-0.4-0.1C88.5,140.6,88.4,140.8,88.5,141
							z"/>
						<path d="M85.7,148c0.1,0.2,0.3,0.2,0.4,0.1c0.2-0.1,0.2-0.3,0.1-0.4c-0.1-0.2-0.3-0.2-0.4-0.1C85.7,147.6,85.6,147.8,85.7,148
							z"/>
						<path d="M84.9,141.3c0.1,0.2,0.3,0.2,0.4,0.1c0.2-0.1,0.2-0.3,0.1-0.4c-0.1-0.2-0.3-0.2-0.4-0.1
							C84.8,140.9,84.8,141.1,84.9,141.3z"/>
						<path d="M83.6,148.9c0.1,0.2,0.3,0.2,0.4,0.1c0.2-0.1,0.2-0.3,0.1-0.4c-0.1-0.2-0.3-0.2-0.4-0.1
							C83.6,148.6,83.6,148.8,83.6,148.9z"/>
						<path d="M89.2,142.9c0.1,0.2,0.3,0.2,0.4,0.1c0.2-0.1,0.2-0.3,0.1-0.4s-0.3-0.2-0.4-0.1C89.1,142.5,89.1,142.7,89.2,142.9z"/>
						<path d="M88.6,147.9c0.1,0.2,0.3,0.2,0.4,0.1c0.2-0.1,0.2-0.3,0.1-0.4c-0.1-0.2-0.3-0.2-0.4-0.1
							C88.6,147.6,88.5,147.8,88.6,147.9z"/>
						<circle cx="87.9" cy="149" r="0.3"/>
					</g>
				</g>
				<g>
					<g>
						<path d="M89.1,139.7c0.2,0.1,0.4,0,0.4-0.2c0.1-0.2,0-0.4-0.2-0.4c-0.2-0.1-0.4,0-0.4,0.2C88.9,139.5,89,139.7,89.1,139.7z"/>
						<path d="M87.8,140.3c0.2,0.1,0.4,0,0.4-0.2c0.1-0.2,0-0.4-0.2-0.4c-0.2-0.1-0.4,0-0.4,0.2C87.6,140.1,87.7,140.3,87.8,140.3z"
							/>
						<path d="M86.6,143.1c0.2,0.1,0.4,0,0.4-0.2c0.1-0.2,0-0.4-0.2-0.4c-0.2-0.1-0.4,0-0.4,0.2C86.3,142.9,86.4,143,86.6,143.1z"/>
						<path d="M88.5,142.3c0.2,0.1,0.4,0,0.4-0.2c0.1-0.2,0-0.4-0.2-0.4c-0.2-0.1-0.4,0-0.4,0.2S88.3,142.2,88.5,142.3z"/>
						<path d="M85.6,141.5c0.2,0.1,0.4,0,0.4-0.2c0.1-0.2,0-0.4-0.2-0.4c-0.2-0.1-0.4,0-0.4,0.2C85.3,141.3,85.4,141.4,85.6,141.5z"
							/>
						<path d="M91,141c0.2,0.1,0.4,0,0.4-0.2c0.1-0.2,0-0.4-0.2-0.4c-0.2-0.1-0.4,0-0.4,0.2C90.8,140.7,90.9,140.9,91,141z"/>
						<path d="M87,144.1c0.2,0.1,0.4,0,0.4-0.2c0.1-0.2,0-0.4-0.2-0.4c-0.2-0.1-0.4,0-0.4,0.2C86.7,143.9,86.8,144.1,87,144.1z"/>
						<path d="M87,139.1c0.2,0.1,0.4,0,0.4-0.2c0.1-0.2,0-0.4-0.2-0.4c-0.2-0.1-0.4,0-0.4,0.2C86.7,138.8,86.8,139,87,139.1z"/>
						<path d="M89.6,143.7c0.2,0.1,0.4,0,0.4-0.2c0.1-0.2,0-0.4-0.2-0.4c-0.2-0.1-0.4,0-0.4,0.2S89.4,143.6,89.6,143.7z"/>
					</g>
					<g>
						<circle cx="90.8" cy="144" r="0.3"/>
						<path d="M92.4,143.7c-0.1,0.2,0,0.4,0.2,0.4c0.2,0.1,0.4,0,0.4-0.2c0.1-0.2,0-0.4-0.2-0.4C92.6,143.5,92.4,143.6,92.4,143.7z"
							/>
						<path d="M89.9,142.6c-0.1,0.2,0,0.4,0.2,0.4c0.2,0.1,0.4,0,0.4-0.2c0.1-0.2,0-0.4-0.2-0.4C90.2,142.3,90,142.4,89.9,142.6z"/>
						<path d="M85.2,139.2c-0.1,0.2,0,0.4,0.2,0.4c0.2,0.1,0.4,0,0.4-0.2c0.1-0.2,0-0.4-0.2-0.4C85.5,139,85.3,139.1,85.2,139.2z"/>
						<circle cx="87.5" cy="141.5" r="0.3"/>
						<path d="M88,143.3c-0.1,0.2,0,0.4,0.2,0.4c0.2,0.1,0.4,0,0.4-0.2c0.1-0.2,0-0.4-0.2-0.4C88.2,143,88,143.1,88,143.3z"/>
						<path d="M88.7,140.3c-0.1,0.2,0,0.4,0.2,0.4c0.2,0.1,0.4,0,0.4-0.2c0.1-0.2,0-0.4-0.2-0.4C89,140.1,88.8,140.2,88.7,140.3z"/>
						<path d="M89.3,145.8c-0.1,0.2,0,0.4,0.2,0.4c0.2,0.1,0.4,0,0.4-0.2c0.1-0.2,0-0.4-0.2-0.4C89.5,145.6,89.3,145.7,89.3,145.8z"
							/>
						<path d="M92.1,140c-0.1,0.2,0,0.4,0.2,0.4c0.2,0.1,0.4,0,0.4-0.2s0-0.4-0.2-0.4C92.3,139.7,92.2,139.8,92.1,140z"/>
						<path d="M85.1,142.9c-0.1,0.2,0,0.4,0.2,0.4c0.2,0.1,0.4,0,0.4-0.2c0.1-0.2,0-0.4-0.2-0.4C85.4,142.6,85.2,142.7,85.1,142.9z"
							/>
						<path d="M89.3,137.6c-0.1,0.2,0,0.4,0.2,0.4c0.2,0.1,0.4,0,0.4-0.2c0.1-0.2,0-0.4-0.2-0.4C89.6,137.3,89.4,137.4,89.3,137.6z"
							/>
						<path d="M83,142c-0.1,0.2,0,0.4,0.2,0.4c0.2,0.1,0.4,0,0.4-0.2c0.1-0.2,0-0.4-0.2-0.4C83.2,141.8,83.1,141.9,83,142z"/>
						<path d="M91.2,141.8c-0.1,0.2,0,0.4,0.2,0.4c0.2,0.1,0.4,0,0.4-0.2c0.1-0.2,0-0.4-0.2-0.4C91.4,141.5,91.2,141.6,91.2,141.8z"
							/>
						<path d="M87.1,144.9c-0.1,0.2,0,0.4,0.2,0.4c0.2,0.1,0.4,0,0.4-0.2c0.1-0.2,0-0.4-0.2-0.4C87.4,144.6,87.2,144.7,87.1,144.9z"
							/>
						<circle cx="86" cy="145.1" r="0.3"/>
					</g>
				</g>
				<g>
					<g>
						<path d="M89.3,138.4c0.1-0.2,0.1-0.4-0.1-0.5c-0.2-0.1-0.4-0.1-0.5,0.1c-0.1,0.2-0.1,0.4,0.1,0.5
							C89,138.6,89.2,138.5,89.3,138.4z"/>
						<path d="M89.5,139.8c0.1-0.2,0.1-0.4-0.1-0.5c-0.2-0.1-0.4-0.1-0.5,0.1c-0.1,0.2-0.1,0.4,0.1,0.5
							C89.2,140,89.4,139.9,89.5,139.8z"/>
						<path d="M91.9,141.7c0.1-0.2,0.1-0.4-0.1-0.5c-0.2-0.1-0.4-0.1-0.5,0.1s-0.1,0.4,0.1,0.5C91.6,141.9,91.8,141.9,91.9,141.7z"
							/>
						<path d="M91.6,139.7c0.1-0.2,0.1-0.4-0.1-0.5c-0.2-0.1-0.4-0.1-0.5,0.1s-0.1,0.4,0.1,0.5C91.3,139.9,91.5,139.8,91.6,139.7z"
							/>
						<path d="M90,142.3c0.1-0.2,0.1-0.4-0.1-0.5c-0.2-0.1-0.4-0.1-0.5,0.1c-0.1,0.2-0.1,0.4,0.1,0.5
							C89.7,142.5,89.9,142.4,90,142.3z"/>
						<path d="M91,136.9c0.1-0.2,0.1-0.4-0.1-0.5c-0.2-0.1-0.4-0.1-0.5,0.1c-0.1,0.2-0.1,0.4,0.1,0.5C90.7,137.1,90.9,137,91,136.9z
							"/>
						<path d="M93,141.7c0.1-0.2,0.1-0.4-0.1-0.5c-0.2-0.1-0.4-0.1-0.5,0.1c-0.1,0.2-0.1,0.4,0.1,0.5
							C92.7,141.8,92.9,141.8,93,141.7z"/>
						<path d="M88.1,140.2c0.1-0.2,0.1-0.4-0.1-0.5c-0.2-0.1-0.4-0.1-0.5,0.1c-0.1,0.2-0.1,0.4,0.1,0.5
							C87.8,140.4,88,140.4,88.1,140.2z"/>
						<path d="M93.2,139c0.1-0.2,0.1-0.4-0.1-0.5c-0.2-0.1-0.4-0.1-0.5,0.1c-0.1,0.2-0.1,0.4,0.1,0.5
							C92.9,139.2,93.1,139.2,93.2,139z"/>
					</g>
					<g>
						<circle cx="93.9" cy="137.9" r="0.3"/>
						<path d="M94,136.3c0.2,0.1,0.4,0.1,0.5-0.1c0.1-0.2,0.1-0.4-0.1-0.5c-0.2-0.1-0.4-0.1-0.5,0.1C93.8,136,93.9,136.2,94,136.3z"
							/>
						<path d="M92.3,138.4c0.2,0.1,0.4,0.1,0.5-0.1c0.1-0.2,0.1-0.4-0.1-0.5c-0.2-0.1-0.4-0.1-0.5,0.1
							C92.1,138.1,92.1,138.3,92.3,138.4z"/>
						<path d="M87.8,142c0.2,0.1,0.4,0.1,0.5-0.1c0.1-0.2,0.1-0.4-0.1-0.5c-0.2-0.1-0.4-0.1-0.5,0.1C87.6,141.7,87.6,141.9,87.8,142
							z"/>
						<circle cx="90.5" cy="140.5" r="0.3"/>
						<path d="M92.4,140.4c0.2,0.1,0.4,0.1,0.5-0.1c0.1-0.2,0.1-0.4-0.1-0.5c-0.2-0.1-0.4-0.1-0.5,0.1
							C92.2,140.1,92.3,140.3,92.4,140.4z"/>
						<path d="M89.8,138.9c0.2,0.1,0.4,0.1,0.5-0.1c0.1-0.2,0.1-0.4-0.1-0.5c-0.2-0.1-0.4-0.1-0.5,0.1
							C89.6,138.6,89.6,138.8,89.8,138.9z"/>
						<path d="M95.2,139.9c0.2,0.1,0.4,0.1,0.5-0.1c0.1-0.2,0.1-0.4-0.1-0.5c-0.2-0.1-0.4-0.1-0.5,0.1
							C95,139.6,95.1,139.8,95.2,139.9z"/>
						<path d="M90.3,135.6c0.2,0.1,0.4,0.1,0.5-0.1c0.1-0.2,0.1-0.4-0.1-0.5c-0.2-0.1-0.4-0.1-0.5,0.1
							C90.1,135.3,90.2,135.5,90.3,135.6z"/>
						<path d="M91.2,143.1c0.2,0.1,0.4,0.1,0.5-0.1c0.1-0.2,0.1-0.4-0.1-0.5c-0.2-0.1-0.4-0.1-0.5,0.1C91,142.8,91.1,143,91.2,143.1
							z"/>
						<path d="M87.3,137.6c0.2,0.1,0.4,0.1,0.5-0.1c0.1-0.2,0.1-0.4-0.1-0.5c-0.2-0.1-0.4-0.1-0.5,0.1
							C87.1,137.3,87.1,137.5,87.3,137.6z"/>
						<path d="M89.9,144.9c0.2,0.1,0.4,0.1,0.5-0.1c0.1-0.2,0.1-0.4-0.1-0.5c-0.2-0.1-0.4-0.1-0.5,0.1
							C89.7,144.6,89.7,144.8,89.9,144.9z"/>
						<path d="M91.9,137c0.2,0.1,0.4,0.1,0.5-0.1s0.1-0.4-0.1-0.5c-0.2-0.1-0.4-0.1-0.5,0.1S91.7,136.9,91.9,137z"/>
						<path d="M93.8,141.7c0.2,0.1,0.4,0.1,0.5-0.1c0.1-0.2,0.1-0.4-0.1-0.5c-0.2-0.1-0.4-0.1-0.5,0.1
							C93.6,141.4,93.6,141.6,93.8,141.7z"/>
						<circle cx="93.7" cy="142.9" r="0.3"/>
					</g>
				</g>
			</g>
		</g>
		<path class="st9" d="M92.2,131.9c0.4,1.9-0.1,4-1.4,5.5l-24.4,28.5c-0.1,0.1-3.7-0.1-3.5,0"/>
	</g>
</g>
</svg>
