<svg width="200" height="200" viewBox="0 0 200 200" fill="none" xmlns="http://www.w3.org/2000/svg">
<circle cx="100" cy="100" r="100" fill="#E4F3FA"/>
<path d="M103.797 59.5627C108.512 59.6159 112.446 62.3396 112.446 67.2882C112.446 72.8284 107.367 74.2238 107.367 79.2183C107.367 87.628 124.241 82.9964 124.241 82.9964C124.241 90.1562 129.168 108.223 120.626 108.126C115.592 108.07 114.128 103.013 108.543 102.95C103.556 102.893 100.857 106.768 100.857 111.445C100.857 116.213 103.511 120.305 108.772 120.365C114.585 120.43 117.062 114.903 120.218 114.938C130.008 115.049 124.248 139.794 124.248 139.794L77.4291 139.265C77.4291 139.265 83.1894 114.902 73.4025 114.791C70.2441 114.756 67.7278 119.132 61.9169 119.066C56.654 119.006 54 114.572 54 109.758C54 105.128 56.7003 101.253 61.6879 101.309C67.2698 101.372 68.7352 106.429 73.7706 106.486C85.471 106.618 74.2314 79.2286 74.2314 79.2286C74.2314 79.2286 98.9923 87.0903 98.9923 78.7612C98.9923 75.6278 94.5541 73.0804 94.5541 67.3138C94.5541 62.0971 98.9923 59.5084 103.797 59.5627Z" fill="#4DB4E0"/>
</svg>
