<svg width="200" height="200" viewBox="0 0 200 200" fill="none" xmlns="http://www.w3.org/2000/svg">
<circle cx="100" cy="100" r="100" fill="#E4F3FA"/>
<g filter="url(#filter0_f_11481_346671)">
<path opacity="0.4" fill-rule="evenodd" clip-rule="evenodd" d="M57.0833 99.5902L56.889 116.787C56.8621 119.161 58.7432 121.086 61.0904 121.086H65.3404L65.6318 95.291H61.3818C59.0346 95.291 57.1101 97.2158 57.0833 99.5902ZM137.882 95.291H133.632L133.34 121.086L137.59 121.086C139.938 121.086 141.862 119.161 141.889 116.787L142.083 99.5902C142.11 97.2158 140.229 95.291 137.882 95.291ZM90.8404 121.086H82.3404L82.3889 116.787H90.8889L90.8404 121.086ZM107.84 121.086H116.34L116.389 116.787H107.889L107.84 121.086ZM103.59 121.086H95.0904L95.1389 116.787H103.639L103.59 121.086Z" fill="#4DB4E0"/>
<path fill-rule="evenodd" clip-rule="evenodd" d="M104.076 78.0943H118.951C124.819 78.0943 129.522 82.9063 129.454 88.8422L129.042 125.385C128.984 130.132 125.137 133.979 120.444 133.983H77.9444C73.2519 133.979 69.4924 130.132 69.5416 125.385L69.9545 88.8422C70.0216 82.9063 74.8329 78.0943 80.7009 78.0943H95.5759L95.6731 69.4959C95.6999 67.1216 97.6245 65.1968 99.9717 65.1968C102.319 65.1968 104.2 67.1216 104.173 69.4959L104.076 78.0943ZM90.8402 121.086L90.8888 116.787H82.3888L82.3402 121.086H90.8402ZM86.7723 104.964C83.8383 104.964 81.487 102.558 81.5206 99.5901C81.5541 96.6222 83.9598 94.2162 86.8938 94.2162C89.8278 94.2162 92.1791 96.6222 92.1456 99.5901C92.112 102.558 89.7064 104.964 86.7723 104.964ZM95.0902 121.086H103.59L103.639 116.787H95.1388L95.0902 121.086ZM116.389 116.787L116.34 121.086H107.84L107.889 116.787H116.389ZM107.021 99.5901C106.987 102.558 109.338 104.964 112.272 104.964C115.206 104.964 117.612 102.558 117.646 99.5901C117.679 96.6222 115.328 94.2162 112.394 94.2162C109.46 94.2162 107.054 96.6222 107.021 99.5901Z" fill="#4DB4E0"/>
</g>
<defs>
<filter id="filter0_f_11481_346671" x="47" y="47" width="105.166" height="105.18" filterUnits="userSpaceOnUse" color-interpolation-filters="sRGB">
<feFlood flood-opacity="0" result="BackgroundImageFix"/>
<feBlend mode="normal" in="SourceGraphic" in2="BackgroundImageFix" result="shape"/>
<feGaussianBlur stdDeviation="0.5" result="effect1_foregroundBlur_11481_346671"/>
</filter>
</defs>
</svg>
