<svg width="200" height="200" viewBox="0 0 200 200" fill="none" xmlns="http://www.w3.org/2000/svg">
<circle cx="100" cy="100" r="100" fill="#E4F3FA"/>
<g filter="url(#filter0_f_11481_346672)">
<path opacity="0.4" fill-rule="evenodd" clip-rule="evenodd" d="M92.5506 82.0781C91.859 83.291 91.2266 84.5319 90.6533 85.8007L82.226 104.47H67.867C66.7171 104.469 65.656 103.867 65.0623 102.878C64.4686 101.889 64.4267 100.653 64.9516 99.6121L71.9518 85.7853C73.1015 83.517 75.4093 82.0829 77.9177 82.0781H92.5506ZM117.447 122.549L117.614 107.715C116.403 108.408 115.163 109.04 113.895 109.611L95.3842 117.927L95.22 132.459C95.2082 133.62 95.7901 134.698 96.7587 135.31C97.7273 135.922 98.9454 135.98 99.9798 135.465L113.713 128.553C115.974 127.417 117.42 125.092 117.447 122.549Z" fill="#4DB4E0"/>
<path fill-rule="evenodd" clip-rule="evenodd" d="M133.169 65.1307C134.012 65.3147 134.665 65.9828 134.837 66.838C135.755 71.3443 135.715 74.871 135.661 78.392C135.542 88.9202 131.343 96.4004 125.128 102.194C121.807 105.272 118.012 107.778 113.895 109.611L95.3847 117.927L92.2322 121.072C90.4836 122.82 87.6811 122.82 85.972 121.072L79.0107 113.947C77.302 112.198 77.334 109.363 79.0822 107.614L82.2264 104.47L90.6538 85.7994C92.5048 81.6577 95.0176 77.8467 98.09 74.5211C103.874 68.3061 111.314 64.165 121.767 64.165C125.24 64.165 128.725 64.165 133.169 65.1307ZM112.391 82.0782C112.356 85.1699 114.806 87.6761 117.862 87.6761C119.33 87.6761 120.744 87.0863 121.793 86.0365C122.843 84.9867 123.442 83.5629 123.459 82.0782C123.494 78.9866 121.045 76.4804 117.988 76.4804C114.932 76.4804 112.426 78.9866 112.391 82.0782Z" fill="#4DB4E0"/>
</g>
<defs>
<filter id="filter0_f_11481_346672" x="56.0283" y="56" width="87.9717" height="87.9834" filterUnits="userSpaceOnUse" color-interpolation-filters="sRGB">
<feFlood flood-opacity="0" result="BackgroundImageFix"/>
<feBlend mode="normal" in="SourceGraphic" in2="BackgroundImageFix" result="shape"/>
<feGaussianBlur stdDeviation="0.5" result="effect1_foregroundBlur_11481_346672"/>
</filter>
</defs>
</svg>
